SplineFontDB: 3.0
FontName: DuctusSerifold
FullName: Ductus Serif Bold
FamilyName: DuctusSerifBold
Weight: Book
Copyright: 
Version: 001.000
ItalicAngle: 0
UnderlinePosition: -150
UnderlineWidth: 50
Ascent: 800
Descent: 200
InvalidEm: 0
sfntRevision: 0x00010000
LayerCount: 2
Layer: 0 1 "Arri+AOgA-re" 1
Layer: 1 1 "Avant" 0
XUID: [1021 706 -322349554 15881987]
StyleMap: 0x0000
FSType: 0
OS2Version: 4
OS2_WeightWidthSlopeOnly: 0
OS2_UseTypoMetrics: 1
CreationTime: 1510948569
ModificationTime: 1519144688
PfmFamily: 17
TTFWeight: 400
TTFWidth: 5
LineGap: 90
VLineGap: 0
Panose: 2 0 5 3 0 0 0 0 0 0
OS2TypoAscent: 800
OS2TypoAOffset: 0
OS2TypoDescent: -200
OS2TypoDOffset: 0
OS2TypoLinegap: 90
OS2WinAscent: 1194
OS2WinAOffset: 0
OS2WinDescent: 231
OS2WinDOffset: 0
HheadAscent: 1194
HheadAOffset: 0
HheadDescent: -231
HheadDOffset: 0
OS2SubXSize: 650
OS2SubYSize: 700
OS2SubXOff: 0
OS2SubYOff: 140
OS2SupXSize: 650
OS2SupYSize: 700
OS2SupXOff: 0
OS2SupYOff: 480
OS2StrikeYSize: 49
OS2StrikeYPos: 258
OS2CapHeight: 732
OS2XHeight: 525
OS2Vendor: 'PfEd'
OS2CodePages: 00000001.00000000
OS2UnicodeRanges: 00000003.00000000.00000000.00000000
MarkAttachClasses: 1
DEI: 91125
ShortTable: cvt  2
  33
  633
EndShort
ShortTable: maxp 16
  1
  0
  150
  99
  8
  0
  0
  2
  0
  1
  1
  0
  64
  46
  0
  0
EndShort
LangName: 1033 "" "" "Serif"
GaspTable: 1 65535 2 0
Encoding: UnicodeBmp
UnicodeInterp: none
NameList: AGL For New Fonts
DisplaySize: -48
AntiAlias: 1
FitToEm: 0
WinInfo: 60 30 11
BeginPrivate: 0
EndPrivate
Grid
-1000 524 m 0
 2000 524 l 1024
EndSplineSet
BeginChars: 65539 150

StartChar: .notdef
Encoding: 65536 -1 0
Width: 348
VWidth: 946
Flags: W
LayerCount: 2
Fore
SplineSet
43.599609375 26.6396484375 m 1,0,-1
 43.599609375 639.360351562 l 1,1,-1
 287.400390625 639.360351562 l 1,2,-1
 287.400390625 26.6396484375 l 1,3,-1
 43.599609375 26.6396484375 l 1,0,-1
73.9599609375 57 m 1,4,-1
 257.040039062 57 l 1,5,-1
 257.040039062 609 l 1,6,-1
 73.9599609375 609 l 1,7,-1
 73.9599609375 57 l 1,4,-1
EndSplineSet
EndChar

StartChar: exclam
Encoding: 33 33 4
Width: 303
VWidth: 949
Flags: W
LayerCount: 2
Fore
SplineSet
151 723.299804688 m 5,0,-1
 187.799804688 723.299804688 l 5,1,-1
 210.299804688 723.299804688 l 5,2,-1
 210.299804688 700.799804688 l 5,3,-1
 210.299804688 252.759765625 l 5,4,-1
 210.299804688 230.259765625 l 5,5,-1
 187.799804688 230.259765625 l 5,6,-1
 151 230.259765625 l 5,7,-1
 114.200195312 230.259765625 l 5,8,-1
 91.7001953125 230.259765625 l 5,9,-1
 91.7001953125 252.759765625 l 5,10,-1
 91.7001953125 700.799804688 l 5,11,-1
 91.7001953125 723.299804688 l 5,12,-1
 114.200195312 723.299804688 l 5,13,-1
 151 723.299804688 l 5,0,-1
151 135.940429688 m 5,14,-1
 187.799804688 135.940429688 l 5,15,-1
 210.299804688 135.940429688 l 5,16,-1
 210.299804688 113.440429688 l 5,17,-1
 210.299804688 24.2001953125 l 5,18,-1
 210.299804688 1.7001953125 l 5,19,-1
 187.799804688 1.7001953125 l 5,20,-1
 151 1.7001953125 l 5,21,-1
 114.200195312 1.7001953125 l 5,22,-1
 91.7001953125 1.7001953125 l 5,23,-1
 91.7001953125 24.2001953125 l 5,24,-1
 91.7001953125 113.440429688 l 5,25,-1
 91.7001953125 135.940429688 l 5,26,-1
 114.200195312 135.940429688 l 5,27,-1
 151 135.940429688 l 5,14,-1
EndSplineSet
EndChar

StartChar: quotedbl
Encoding: 34 34 5
Width: 500
VWidth: 982
Flags: W
LayerCount: 2
Fore
SplineSet
156.759765625 712.860351562 m 1,0,-1
 119.959960938 712.860351562 l 1,1,-1
 97.459960938 712.860351562 l 1,2,-1
 97.459960938 735.360351562 l 1,3,-1
 97.459960938 835.639648438 l 1,4,-1
 97.459960938 858.139648438 l 1,5,-1
 119.959960938 858.139648438 l 1,6,-1
 156.759765625 858.139648438 l 1,7,-1
 193.559570312 858.139648438 l 1,8,-1
 216.059570312 858.139648438 l 1,9,-1
 216.059570312 835.639648438 l 1,10,-1
 216.059570312 735.360351562 l 1,11,-1
 216.059570312 712.860351562 l 1,12,-1
 193.559570312 712.860351562 l 1,13,-1
 156.759765625 712.860351562 l 1,0,-1
343.240234375 712.860351562 m 1,14,-1
 306.440429688 712.860351562 l 1,15,-1
 283.940429688 712.860351562 l 1,16,-1
 283.940429688 735.360351562 l 1,17,-1
 283.940429688 835.639648438 l 1,18,-1
 283.940429688 858.139648438 l 1,19,-1
 306.440429688 858.139648438 l 1,20,-1
 343.240234375 858.139648438 l 1,21,-1
 380.040039062 858.139648438 l 1,22,-1
 402.540039062 858.139648438 l 1,23,-1
 402.540039062 835.639648438 l 1,24,-1
 402.540039062 735.360351562 l 1,25,-1
 402.540039062 712.860351562 l 1,26,-1
 380.040039062 712.860351562 l 1,27,-1
 343.240234375 712.860351562 l 1,14,-1
EndSplineSet
EndChar

StartChar: numbersign
Encoding: 35 35 6
Width: 612
VWidth: 940
Flags: W
LayerCount: 2
Fore
SplineSet
522.940429688 170.799804688 m 1,0,-1
 522.940429688 134 l 1,1,-1
 522.940429688 111.5 l 1,2,-1
 500.440429688 111.5 l 1,3,-1
 102.559570312 111.5 l 1,4,-1
 80.0595703125 111.5 l 1,5,-1
 80.0595703125 134 l 1,6,-1
 80.0595703125 170.799804688 l 1,7,-1
 80.0595703125 207.599609375 l 1,8,-1
 80.0595703125 230.099609375 l 1,9,-1
 102.559570312 230.099609375 l 1,10,-1
 500.440429688 230.099609375 l 1,11,-1
 522.940429688 230.099609375 l 1,12,-1
 522.940429688 207.599609375 l 1,13,-1
 522.940429688 170.799804688 l 1,0,-1
522.940429688 350.200195312 m 1,14,-1
 522.940429688 313.400390625 l 1,15,-1
 522.940429688 290.900390625 l 1,16,-1
 500.440429688 290.900390625 l 1,17,-1
 102.559570312 290.900390625 l 1,18,-1
 80.0595703125 290.900390625 l 1,19,-1
 80.0595703125 313.400390625 l 1,20,-1
 80.0595703125 350.200195312 l 1,21,-1
 80.0595703125 387 l 1,22,-1
 80.0595703125 409.5 l 1,23,-1
 102.559570312 409.5 l 1,24,-1
 500.440429688 409.5 l 1,25,-1
 522.940429688 409.5 l 1,26,-1
 522.940429688 387 l 1,27,-1
 522.940429688 350.200195312 l 1,14,-1
244.147460938 506.905273438 m 1,28,-1
 280.055664062 503.22265625 l 1,29,-1
 302.349609375 500.936523438 l 1,30,-1
 300.151367188 478.6328125 l 1,31,-1
 255.991210938 30.5927734375 l 1,32,-1
 253.78125 8.1689453125 l 1,33,-1
 231.360351562 10.4111328125 l 1,34,-1
 194.561523438 14.091796875 l 1,35,-1
 157.76171875 17.771484375 l 1,36,-1
 135.359375 20.01171875 l 1,37,-1
 137.61328125 42.4130859375 l 1,38,-1
 182.693359375 490.453125 l 1,39,-1
 184.944335938 512.826171875 l 1,40,-1
 207.319335938 510.588867188 l 1,41,-1
 244.147460938 506.905273438 l 1,28,-1
408.467773438 506.905273438 m 1,42,-1
 444.375976562 503.22265625 l 1,43,-1
 466.669921875 500.936523438 l 1,44,-1
 464.471679688 478.6328125 l 1,45,-1
 420.311523438 30.5927734375 l 1,46,-1
 418.1015625 8.1689453125 l 1,47,-1
 395.680664062 10.4111328125 l 1,48,-1
 358.881835938 14.091796875 l 1,49,-1
 322.08203125 17.771484375 l 1,50,-1
 299.6796875 20.01171875 l 1,51,-1
 301.93359375 42.4130859375 l 1,52,-1
 347.013671875 490.453125 l 1,53,-1
 349.264648438 512.826171875 l 1,54,-1
 371.639648438 510.588867188 l 1,55,-1
 408.467773438 506.905273438 l 1,42,-1
EndSplineSet
EndChar

StartChar: dollar
Encoding: 36 36 7
Width: 690
VWidth: 949
Flags: W
LayerCount: 2
Fore
SplineSet
528.985351562 696.419921875 m 1,0,-1
 570.385742188 696.419921875 l 1,1,-1
 592.885742188 696.419921875 l 1,2,-1
 592.885742188 673.919921875 l 1,3,-1
 592.885742188 558.919921875 l 2,4,5
 592.885742188 533.429116189 592.885742188 533.429116189 573.68713963 515.707208627 c 0,6,7
 554.696444981 498.177217363 554.696444981 498.177217363 529.097540027 499.682847264 c 0,8,9
 514.014853134 501.119221025 514.014853134 501.119221025 501.905048263 508.913890841 c 128,-1,10
 489.795243392 516.708560656 489.795243392 516.708560656 482.730530993 529.424443063 c 0,11,12
 452.938944483 580.956528929 452.938944483 580.956528929 400.591897708 599.478672514 c 0,13,14
 352.342579836 618.462038222 352.342579836 618.462038222 306.758246609 600.540791524 c 0,15,16
 262.791591178 583.254415122 262.791591178 583.254415122 246.634812459 539.56011769 c 0,17,18
 244.205212193 531.053128053 244.205212193 531.053128053 244.401547725 526.381834512 c 128,-1,19
 244.597883257 521.71054097 244.597883257 521.71054097 246.992885933 516.794764528 c 0,20,21
 249.925954419 510.77427278 249.925954419 510.77427278 255.078659399 505.212585393 c 128,-1,22
 260.23136438 499.650898006 260.23136438 499.650898006 268.126966769 494.446848374 c 0,23,24
 274.196142757 490.446802827 274.196142757 490.446802827 281.69148678 486.204511083 c 128,-1,25
 289.186830802 481.962219339 289.186830802 481.962219339 298.330424576 477.384854234 c 128,-1,26
 307.47401835 472.807489128 307.47401835 472.807489128 317.89054498 468.112514771 c 0,27,28
 350.148255991 453.57416774 350.148255991 453.57416774 383.798956986 439.931756694 c 0,29,30
 395.49856202 435.188746145 395.49856202 435.188746145 408.143836565 429.574438656 c 128,-1,31
 420.78911111 423.960131167 420.78911111 423.960131167 434.299785755 417.51578511 c 128,-1,32
 447.810460399 411.071439052 447.810460399 411.071439052 462.314776466 403.741307945 c 0,33,34
 506.36353311 381.479621798 506.36353311 381.479621798 541.736046419 357.579302393 c 0,35,36
 582.732520541 328.881879303 582.732520541 328.881879303 604.540431667 291.497361214 c 0,37,38
 627.432342926 252.254580667 627.432342926 252.254580667 623.168996151 200.5706917 c 0,39,40
 618.994137665 149.946100641 618.994137665 149.946100641 582.556952371 97.3149688954 c 0,41,42
 579.590762148 92.8656835588 579.590762148 92.8656835588 575.255605702 88.5305271115 c 0,43,44
 551.411820847 64.6867422565 551.411820847 64.6867422565 521.734212118 45.8901533297 c 0,45,46
 453.185391447 2.17873302238 453.185391447 2.17873302238 371.704535034 -1.29984802448 c 128,-1,47
 290.384923809 -4.77053745107 290.384923809 -4.77053745107 217.054948637 32.3898802978 c 0,48,49
 143.426023744 69.701792662 143.426023744 69.701792662 97.7893396602 142.124859808 c 2,50,-1
 85.812941026 161.130787602 l 1,51,-1
 104.800001397 173.137075707 l 1,52,-1
 167.360548273 212.696646019 l 1,53,-1
 186.414286211 224.745097052 l 1,54,-1
 198.425899837 205.668115115 l 2,55,56
 212.534151469 183.261228754 212.534151469 183.261228754 230.683689722 166.539285328 c 128,-1,57
 248.833227974 149.817341902 248.833227974 149.817341902 271.473482239 138.291410165 c 0,58,59
 316.822817317 115.204507771 316.822817317 115.204507771 366.59651269 117.261091612 c 128,-1,60
 416.225763435 119.31170719 416.225763435 119.31170719 459.207441792 146.588946482 c 0,61,62
 474.352052252 155.675552004 474.352052252 155.675552004 487.588517924 168.482698263 c 0,63,64
 496.841410544 182.608232281 496.841410544 182.608232281 501.928234564 194.017823962 c 128,-1,65
 507.015058585 205.427415642 507.015058585 205.427415642 508.09146728 212.96292947 c 0,66,67
 509.480435792 226.46441579 509.480435792 226.46441579 504.546041741 233.539847994 c 0,68,69
 495.818413501 245.176428308 495.818413501 245.176428308 471.122509493 261.640364314 c 0,70,71
 468.293702958 263.661001691 468.293702958 263.661001691 464.957326614 265.732457279 c 128,-1,72
 461.62095027 267.803912867 461.62095027 267.803912867 457.610160264 270.020518185 c 128,-1,73
 453.599370259 272.237123503 453.599370259 272.237123503 448.8540143 274.606436596 c 128,-1,74
 444.108658341 276.975749688 444.108658341 276.975749688 438.623173482 279.499091356 c 0,75,76
 416.238721626 289.795064817 416.238721626 289.795064817 392.030346861 299.209644278 c 0,77,78
 366.893606104 308.985263069 366.893606104 308.985263069 337.159420852 321.529110485 c 0,79,80
 322.225211314 327.829557539 322.225211314 327.829557539 308.09019199 334.137690432 c 128,-1,81
 293.955172666 340.445823324 293.955172666 340.445823324 280.613141876 346.765523421 c 0,82,83
 253.162107616 359.768698724 253.162107616 359.768698724 225.790955045 377.056493625 c 0,84,85
 197.69654376 394.800056967 197.69654376 394.800056967 177.689093551 413.807240852 c 0,86,87
 157.093022144 433.372524903 157.093022144 433.372524903 142.187134266 458.0447156 c 0,88,89
 125.721245773 485.299015661 125.721245773 485.299015661 125.149363935 516.183063251 c 0,90,91
 124.623727197 544.570795139 124.623727197 544.570795139 134.852768821 578.325220993 c 2,92,-1
 135.047746075 578.96861903 l 1,93,-1
 135.280790231 579.599227929 l 2,94,95
 152.629402859 626.543934572 152.629402859 626.543934572 186.936052612 660.850584325 c 128,-1,96
 221.359763773 695.273204747 221.359763773 695.273204747 263.883301266 710.311949656 c 0,97,98
 304.776114008 724.775036126 304.776114008 724.775036126 350.918982257 726.759494404 c 0,99,100
 398.010691296 728.784759312 398.010691296 728.784759312 441.401083198 711.477968902 c 0,101,102
 467.695922973 701.715391712 467.695922973 701.715391712 504.829950286 674.162669792 c 1,103,104
 505.175834733 675.131268638 505.175834733 675.131268638 505.316960917 675.695923192 c 2,105,-1
 505.91601639 678.092781024 l 1,106,-1
 507.020896015 680.302540274 l 1,107,-1
 508.860739765 683.982227774 l 1,108,-1
 515.079586815 696.419921875 l 1,109,-1
 528.985351562 696.419921875 l 1,0,-1
362.465820312 756.219726562 m 1,110,-1
 399.265625 756.219726562 l 1,111,-1
 421.765625 756.219726562 l 1,112,-1
 421.765625 733.719726562 l 1,113,-1
 421.765625 -8.7197265625 l 1,114,-1
 421.765625 -31.2197265625 l 1,115,-1
 399.265625 -31.2197265625 l 1,116,-1
 362.465820312 -31.2197265625 l 1,117,-1
 325.666015625 -31.2197265625 l 1,118,-1
 303.166015625 -31.2197265625 l 1,119,-1
 303.166015625 -8.7197265625 l 1,120,-1
 303.166015625 733.719726562 l 1,121,-1
 303.166015625 756.219726562 l 1,122,-1
 325.666015625 756.219726562 l 1,123,-1
 362.465820312 756.219726562 l 1,110,-1
148.10546875 258.5 m 1,124,-1
 184.905273438 258.5 l 1,125,-1
 207.405273438 258.5 l 1,126,-1
 207.405273438 236 l 1,127,-1
 207.405273438 90.6396484375 l 1,128,-1
 207.405273438 68.1396484375 l 1,129,-1
 184.905273438 68.1396484375 l 1,130,-1
 148.10546875 68.1396484375 l 1,131,-1
 111.305664062 68.1396484375 l 1,132,-1
 88.805664062 68.1396484375 l 1,133,-1
 88.805664062 90.6396484375 l 1,134,-1
 88.805664062 236 l 1,135,-1
 88.805664062 258.5 l 1,136,-1
 111.305664062 258.5 l 1,137,-1
 148.10546875 258.5 l 1,124,-1
EndSplineSet
EndChar

StartChar: percent
Encoding: 37 37 8
Width: 727
VWidth: 951
Flags: W
LayerCount: 2
Fore
SplineSet
306.035746603 608.431865997 m 1,0,-1
 336.983809684 589.316743772 l 1,1,-1
 356.126992537 577.492925298 l 1,2,-1
 344.302906856 558.349907488 l 2,3,4
 321.421659887 521.305510985 321.421659887 521.305510985 285.36902712 504.664566207 c 0,5,6
 249.781209763 488.239866779 249.781209763 488.239866779 214.57428201 492.151352182 c 0,7,8
 180.462116774 495.942486839 180.462116774 495.942486839 151.162181147 514.390295814 c 0,9,10
 141.07910206 520.872548264 141.07910206 520.872548264 132.344141893 528.584900211 c 128,-1,11
 123.609181726 536.297252158 123.609181726 536.297252158 116.240785959 545.22992799 c 128,-1,12
 108.872390192 554.162603823 108.872390192 554.162603823 102.915131905 564.271356419 c 0,13,14
 84.5370520504 595.4587593 84.5370520504 595.4587593 85.0821319094 635.798140759 c 0,15,16
 85.636322497 676.811774162 85.636322497 676.811774162 111.738308457 713.78978001 c 2,17,-1
 124.825066191 732.329449933 l 1,18,-1
 143.252153054 719.084637416 l 1,19,-1
 172.664808722 697.943742337 l 1,20,-1
 178.782898228 693.573413352 l 1,21,-1
 184.212864947 689.953435539 l 1,22,-1
 202.822561995 676.927042674 l 1,23,-1
 221.430781889 663.901683784 l 1,24,-1
 208.229862881 645.417594432 l 2,25,26
 206.773322744 643.378128996 206.773322744 643.378128996 205.783053586 641.529746361 c 128,-1,27
 204.792784427 639.681363725 204.792784427 639.681363725 204.209087694 638.04770657 c 2,28,-1
 202.693513096 631.468944846 l 2,29,30
 202.532402517 629.37416526 202.532402517 629.37416526 202.887163461 628.073375131 c 0,31,32
 203.370456916 626.300957094 203.370456916 626.300957094 204.763712746 624.112218935 c 0,33,34
 205.574675966 622.83760219 205.574675966 622.83760219 206.399653389 621.857774705 c 128,-1,35
 207.224630813 620.877947219 207.224630813 620.877947219 208.085865078 620.11240565 c 0,36,37
 211.05975528 617.46957115 211.05975528 617.46957115 215.171902353 614.728139768 c 0,38,39
 223.197098667 609.51153855 223.197098667 609.51153855 227.446193899 608.571252107 c 128,-1,40
 231.695289131 607.630965664 231.695289131 607.630965664 235.399549579 610.438474474 c 128,-1,41
 239.103810027 613.245983284 239.103810027 613.245983284 244.517968852 621.783882311 c 2,42,-1
 256.846162862 641.224921825 l 1,43,-1
 276.000285665 628.455506623 l 1,44,-1
 306.035746603 608.431865997 l 1,0,-1
147.408016493 660.717638835 m 1,45,-1
 117.120615267 679.991173911 l 1,46,-1
 98.3917298256 691.909391251 l 1,47,-1
 110.057012469 710.796853635 l 2,48,49
 121.319614221 729.032328371 121.319614221 729.032328371 136.22425822 742.544037803 c 128,-1,50
 151.128902219 756.055747235 151.128902219 756.055747235 169.252114851 764.141287915 c 0,51,52
 204.559754379 779.894689952 204.559754379 779.894689952 239.432795561 776.572496611 c 0,53,54
 273.740195082 773.305455532 273.740195082 773.305455532 303.198170417 754.758141686 c 0,55,56
 313.280994557 748.276053136 313.280994557 748.276053136 322.016126464 740.563378023 c 128,-1,57
 330.751258371 732.85070291 330.751258371 732.85070291 338.119416729 723.918092602 c 128,-1,58
 345.487575087 714.985482294 345.487575087 714.985482294 351.44392166 704.877626535 c 0,59,60
 369.823304125 673.690019547 369.823304125 673.690019547 369.278219654 633.350296741 c 0,61,62
 369.093039177 619.64576198 369.093039177 619.64576198 365.954558211 606.198310041 c 128,-1,63
 362.816077245 592.750858101 362.816077245 592.750858101 356.96923298 580.075867264 c 128,-1,64
 351.122388714 567.400876427 351.122388714 567.400876427 342.622043107 555.358657491 c 2,65,-1
 329.72398939 537.086319649 l 1,66,-1
 311.374935817 549.875000302 l 1,67,-1
 281.014584254 571.035156552 l 1,68,-1
 280.219887377 571.58903387 l 1,69,-1
 279.47573382 572.209161834 l 1,70,-1
 274.879187446 576.039617145 l 1,71,-1
 270.145900355 579.195420975 l 1,72,-1
 251.537329962 592.221716549 l 1,73,-1
 234.247456263 604.324903441 l 1,74,-1
 245.220876545 622.352962483 l 2,75,76
 247.680479173 626.393804831 247.680479173 626.393804831 249.226393075 629.965410938 c 128,-1,77
 250.772306978 633.537017046 250.772306978 633.537017046 251.135473473 635.525794401 c 128,-1,78
 251.498639969 637.514571756 251.498639969 637.514571756 251.650137482 639.180109657 c 128,-1,79
 251.801634995 640.845647558 251.801634995 640.845647558 251.472404844 641.074353492 c 0,80,81
 249.633097804 647.818913205 249.633097804 647.818913205 239.420602946 654.268759818 c 0,82,83
 227.780859991 661.917889886 227.780859991 661.917889886 222.6947919 660.765429376 c 128,-1,84
 217.608723809 659.612968865 217.608723809 659.612968865 209.841265058 647.3643327 c 2,85,-1
 197.680713334 628.188154438 l 1,86,-1
 178.616665539 640.523749787 l 1,87,-1
 147.408016493 660.717638835 l 1,45,-1
575.59643562 116.231582891 m 1,88,-1
 606.280837036 95.7746572682 l 1,89,-1
 624.607315706 83.5566118199 l 1,90,-1
 612.782263589 64.9741308922 l 2,91,92
 589.91291158 29.0360823024 589.91291158 29.0360823024 554.009225608 12.4656013286 c 0,93,94
 542.412411691 7.11299259256 542.412411691 7.11299259256 530.690595475 3.9056113727 c 128,-1,95
 518.968779259 0.698230152848 518.968779259 0.698230152848 507.508193197 -0.341884681391 c 0,96,97
 503 -1 503 -1 483.215734096 -0.0479584727585 c 0,98,99
 449.102135871 3.74205815171 449.102135871 3.74205815171 419.801829583 22.1901005013 c 0,100,101
 404.670429459 31.9178388938 404.670429459 31.9178388938 392.580559352 44.4132582021 c 128,-1,102
 380.490689246 56.9086775104 380.490689246 56.9086775104 371.556078339 72.0706156526 c 0,103,104
 353.175556009 103.260156856 353.175556009 103.260156856 353.721836987 143.142147755 c 0,105,106
 354.277286788 183.693521109 354.277286788 183.693521109 380.377956893 220.669662822 c 2,107,-1
 393.464508889 239.209041282 l 1,108,-1
 411.89151427 225.964726671 l 1,109,-1
 440.380570241 205.488365348 l 1,110,-1
 445.80277455 202.389962887 l 1,111,-1
 447.121167066 201.575114313 l 1,112,-1
 452.641674878 197.89445025 l 1,113,-1
 453.660309107 197.173713482 l 1,114,-1
 472.059723169 183.373908795 l 1,115,-1
 488.727878969 170.872570776 l 1,116,-1
 477.542066924 153.294502653 l 2,117,118
 469.952104156 141.36717167 469.952104156 141.36717167 471.571269058 135.25138726 c 0,119,120
 472.12577267 133.156465028 472.12577267 133.156465028 473.223628794 131.256354041 c 128,-1,121
 474.321484918 129.356243054 474.321484918 129.356243054 476.90889822 126.847267192 c 128,-1,122
 479.496311523 124.338291329 479.496311523 124.338291329 483.410327926 121.866338511 c 0,123,124
 494.919998347 114.584981888 494.919998347 114.584981888 500.250997402 115.797536732 c 128,-1,125
 505.581996457 117.010091575 505.581996457 117.010091575 513.295186321 128.876513297 c 2,126,-1
 525.277663302 147.311055636 l 1,127,-1
 543.983809684 135.757173459 l 1,128,-1
 575.59643562 116.231582891 l 1,88,-1
431.76425642 158.348174387 m 2,129,130
 427.34849558 161.108610867 427.34849558 161.108610867 422.82717478 164.034179688 c 2,131,-1
 421.387743463 164.034179688 l 1,132,-1
 415.719440897 167.813048065 l 1,133,-1
 385.359089335 188.053282439 l 1,134,-1
 367.031737441 200.271517035 l 1,135,-1
 378.857661416 218.854428707 l 2,136,137
 401.727709256 254.791754186 401.727709256 254.791754186 437.63097288 271.363754105 c 0,138,139
 473.219156606 287.788622622 473.219156606 287.788622622 508.424973606 283.876074284 c 0,140,141
 542.537549629 280.086043512 542.537549629 280.086043512 571.593338694 261.791953959 c 0,142,143
 602.110887982 243.262532873 602.110887982 243.262532873 620.172336389 212.067175634 c 0,144,145
 626.283691412 201.511091548 626.283691412 201.511091548 630.310166197 189.874530786 c 128,-1,146
 634.336640983 178.237970023 634.336640983 178.237970023 636.216236047 165.96025819 c 128,-1,147
 638.095831111 153.682546356 638.095831111 153.682546356 637.91781145 140.685977245 c 0,148,149
 637.639593515 120.374295909 637.639593515 120.374295909 630.84771175 100.828940927 c 128,-1,150
 624.055829984 81.283585945 624.055829984 81.283585945 611.261691543 63.158462178 c 2,151,-1
 598.174933809 44.6187922542 l 1,152,-1
 579.747846946 57.863604772 l 1,153,-1
 551.260499111 78.3394175796 l 1,154,-1
 545.838149969 81.4374329796 l 1,155,-1
 544.116856768 82.4208799519 l 1,156,-1
 542.594046399 83.6901580208 l 1,157,-1
 537.801982014 87.6843928622 l 1,158,-1
 520.177438006 100.021199513 l 1,159,-1
 502.456055117 112.425791324 l 1,160,-1
 514.153795556 130.62151 l 2,161,162
 519.362247749 138.723205481 519.362247749 138.723205481 519.846536739 145.019476458 c 0,163,164
 520.182000566 149.38086233 520.182000566 149.38086233 518.354150449 152.192778717 c 0,165,166
 515.063031802 157.256575675 515.063031802 157.256575675 508.000508843 162.106198834 c 0,167,168
 499.791252113 167.099004449 499.791252113 167.099004449 495.420088463 167.933917403 c 128,-1,169
 491.048924813 168.768830358 491.048924813 168.768830358 487.394014508 166.009186041 c 128,-1,170
 483.739104203 163.249541724 483.739104203 163.249541724 478.345438679 154.951611703 c 2,171,-1
 466.108714419 136.125920502 l 1,172,-1
 447.257559518 148.323380431 l 1,173,-1
 431.76425642 158.348174387 l 2,129,130
529.310549358 699.311446437 m 1,174,-1
 561.723079256 680.789158182 l 1,175,-1
 581.264120349 669.622340996 l 1,176,-1
 570.091513634 650.084609493 l 1,177,-1
 211.291708947 22.6451563677 l 1,178,-1
 200.126122324 3.11970102188 l 1,179,-1
 180.596958538 14.27880013 l 1,180,-1
 148.273556236 32.7486155175 l 1,181,-1
 116.871950148 51.2209558832 l 1,182,-1
 97.7244460433 62.4846858976 l 1,183,-1
 108.743039527 81.7742977373 l 1,184,-1
 466.622922339 708.293828987 l 1,185,-1
 477.543814755 727.412401238 l 1,186,-1
 496.894432004 716.908149331 l 1,187,-1
 529.310549358 699.311446437 l 1,174,-1
EndSplineSet
EndChar

StartChar: ampersand
Encoding: 38 38 9
Width: 644
VWidth: 947
Flags: W
LayerCount: 2
Fore
SplineSet
495.934570312 403.326171875 m 1,0,-1
 532.734375 403.326171875 l 1,1,-1
 555.234375 403.326171875 l 1,2,-1
 555.234375 380.826171875 l 2,3,4
 555.234375 364.05360635 555.234375 364.05360635 554.12880315 347.284346079 c 128,-1,5
 553.023231301 330.515085809 553.023231301 330.515085809 550.868797852 314.249541371 c 128,-1,6
 548.714364402 297.983996934 548.714364402 297.983996934 545.552519178 282.214575314 c 128,-1,7
 542.390673953 266.445153693 542.390673953 266.445153693 538.265484045 251.427327272 c 1,8,9
 550.690630797 235.278596218 550.690630797 235.278596218 559.083121022 219.970785087 c 128,-1,10
 567.475611246 204.662973956 567.475611246 204.662973956 573.338409043 187.563103831 c 0,11,12
 586.134179442 150.243144378 586.134179442 150.243144378 579.848116133 106.24403717 c 128,-1,13
 573.568724702 62.2849641478 573.568724702 62.2849641478 544.726456701 21.0831299206 c 2,14,-1
 531.849827388 2.68857279576 l 1,15,-1
 513.428767857 15.5272596473 l 1,16,-1
 483.069271753 36.6865237398 l 1,17,-1
 452.708920191 57.8466799898 l 1,18,-1
 434.96394161 70.2143404453 l 1,19,20
 429.999074402 65.4305738893 429.999074402 65.4305738893 426.107592429 61.9328166629 c 128,-1,21
 422.216110455 58.4350594365 422.216110455 58.4350594365 417.417953778 54.4203113396 c 0,22,23
 370.591069279 15.5642978939 370.591069279 15.5642978939 316.486526283 -0.467544399038 c 0,24,25
 260.815374849 -16.9621734866 260.815374849 -16.9621734866 205.087741285 -2.51430906081 c 0,26,27
 148.50454528 12.1553672271 148.50454528 12.1553672271 108.052034414 59.8690933347 c 0,28,29
 70.4672294599 103.717478344 70.4672294599 103.717478344 64.634528938 155.676012016 c 0,30,31
 58.88589708 206.895534083 58.88589708 206.895534083 80.7481017422 255.306674944 c 0,32,33
 101.20622581 300.606363632 101.20622581 300.606363632 132.360283293 340.03489414 c 0,34,35
 144.238918335 355.06897632 144.238918335 355.06897632 157.626229963 369.378224971 c 128,-1,36
 171.01354159 383.687473623 171.01354159 383.687473623 185.841735792 397.271535739 c 1,37,38
 177.816703299 406.681387502 177.816703299 406.681387502 171.413614753 415.558996477 c 128,-1,39
 165.010526208 424.436605452 165.010526208 424.436605452 159.210490859 434.159704171 c 0,40,41
 141.84984471 463.265751569 141.84984471 463.265751569 133.686222619 496.42823234 c 0,42,43
 129.350481964 514.380954492 129.350481964 514.380954492 129.48356136 532.899042007 c 128,-1,44
 129.616640756 551.417129523 129.616640756 551.417129523 134.065397664 570.783973477 c 128,-1,45
 138.499275803 590.083635102 138.499275803 590.083635102 147.427892643 608.986399709 c 128,-1,46
 156.356509482 627.889164316 156.356509482 627.889164316 169.350999442 645.881657457 c 0,47,48
 191.777619637 678.399185517 191.777619637 678.399185517 226.301289618 690.482836478 c 0,49,50
 259.826308605 702.216948991 259.826308605 702.216948991 292.189592694 695.403181954 c 0,51,52
 322.973801311 688.922778695 322.973801311 688.922778695 348.845017308 670.596666559 c 0,53,54
 366.574137903 658.082058314 366.574137903 658.082058314 380.788792723 641.892904451 c 128,-1,55
 395.003447543 625.703750587 395.003447543 625.703750587 405.387027528 606.233918109 c 0,56,57
 426.720263631 566.234949578 426.720263631 566.234949578 424.106103753 514.470143809 c 0,58,59
 421.480507849 462.502067325 421.480507849 462.502067325 388.135608028 414.567529454 c 0,60,61
 384.175350166 409.287185637 384.175350166 409.287185637 378.444082261 403.555917732 c 0,62,63
 376.525867969 401.63770344 376.525867969 401.63770344 374.030854759 399.265244606 c 128,-1,64
 371.535841549 396.892785771 371.535841549 396.892785771 370.016351353 395.511404391 c 1,65,66
 376.900431374 390.504871196 376.900431374 390.504871196 384.779149649 384.898996202 c 0,67,68
 396.847755897 376.31143442 396.847755897 376.31143442 407.999380964 368.180021072 c 128,-1,69
 419.151006032 360.048607724 419.151006032 360.048607724 429.394809157 352.366002504 c 0,70,71
 432.087068023 350.346743406 432.087068023 350.346743406 435.374024187 347.851511216 c 1,72,73
 436.634765625 364.176603194 436.634765625 364.176603194 436.634765625 380.826171875 c 2,74,-1
 436.634765625 403.326171875 l 1,75,-1
 459.134765625 403.326171875 l 1,76,-1
 495.934570312 403.326171875 l 1,0,-1
401.244118786 222.93812146 m 1,77,78
 376.102882734 243.658821144 376.102882734 243.658821144 331.252620326 276.688318749 c 0,79,80
 312.816486543 290.265189492 312.816486543 290.265189492 298.520912933 300.881184049 c 128,-1,81
 284.225339323 311.497178606 284.225339323 311.497178606 275.622399901 317.989968391 c 1,82,83
 262.435879295 306.672787308 262.435879295 306.672787308 251.270994871 295.570511896 c 128,-1,84
 240.106110447 284.468236485 240.106110447 284.468236485 230.930777297 273.615810505 c 128,-1,85
 221.755444146 262.763384524 221.755444146 262.763384524 214.053965202 251.638997213 c 0,86,87
 188.290054136 214.424748399 188.290054136 214.424748399 184.789921649 183.698886138 c 0,88,89
 181.714407809 156.706900057 181.714407809 156.706900057 198.835926137 135.475839308 c 0,90,91
 221.299481787 107.396953596 221.299481787 107.396953596 258.391636703 108.456643741 c 0,92,93
 278.2640289 109.024380456 278.2640289 109.024380456 299.026410888 117.976517119 c 128,-1,94
 319.788792876 126.928653781 319.788792876 126.928653781 341.672751351 145.096402208 c 0,95,96
 377.846668757 175.482216364 377.846668757 175.482216364 401.244118786 222.93812146 c 1,77,78
282.588842749 472.631364331 m 1,97,98
 284.119534208 474.330378501 284.119534208 474.330378501 285.354228534 475.769316444 c 128,-1,99
 286.588922861 477.208254387 286.588922861 477.208254387 287.670183742 478.559975048 c 128,-1,100
 288.751444623 479.91169571 288.751444623 479.91169571 289.677891955 481.151403625 c 128,-1,101
 290.604339287 482.391111541 290.604339287 482.391111541 291.632349254 483.84751204 c 0,102,103
 299.694054701 495.574407059 299.694054701 495.574407059 303.281171033 507.410139657 c 0,104,105
 306.68325576 518.63846388 306.68325576 518.63846388 306.047450457 527.858315729 c 0,106,107
 305.360126378 537.825244515 305.360126378 537.825244515 301.974686802 546.628106192 c 0,108,109
 298.749196276 555.013286084 298.749196276 555.013286084 293.411187547 561.293963021 c 0,110,111
 291.486129623 563.558694627 291.486129623 563.558694627 288.996628714 566.103981273 c 128,-1,112
 286.507127805 568.64926792 286.507127805 568.64926792 284.221617067 570.754903069 c 128,-1,113
 281.936106329 572.860538218 281.936106329 572.860538218 280.062755074 574.385300114 c 0,114,115
 277.429956134 576.173068579 277.429956134 576.173068579 275.073886677 577.444460967 c 128,-1,116
 272.717817219 578.715853355 272.717817219 578.715853355 271.164129554 579.268593048 c 128,-1,117
 269.61044189 579.821332742 269.61044189 579.821332742 268.761117175 580.037472353 c 128,-1,118
 267.911792461 580.253611964 267.911792461 580.253611964 267.439921304 580.279844809 c 0,119,120
 266.748408825 579.705618217 266.748408825 579.705618217 266.030350757 578.691926103 c 0,121,122
 258.022276968 566.870869342 258.022276968 566.870869342 253.90237635 556.232864429 c 128,-1,123
 249.782475733 545.594859516 249.782475733 545.594859516 249.299347757 536.897530203 c 0,124,125
 248.304802139 518.994301373 248.304802139 518.994301373 258.051746553 502.861181814 c 0,126,127
 261.769784638 496.70754437 261.769784638 496.70754437 268.394547912 488.536063428 c 128,-1,128
 275.019311186 480.364582485 275.019311186 480.364582485 282.588842749 472.631364331 c 1,97,98
EndSplineSet
EndChar

StartChar: quotesingle
Encoding: 39 39 10
Width: 277
VWidth: 975
Flags: W
LayerCount: 2
Fore
SplineSet
102.758789062 591.125 m 5,0,-1
 70.2255859375 608.78515625 l 5,1,-1
 50.6455078125 619.4140625 l 5,2,-1
 61.0810546875 639.09765625 l 6,3,4
 73.75390625 663.00390625 73.75390625 663.00390625 82.1611328125 687.72265625 c 132,-1,5
 90.568359375 712.442382812 90.568359375 712.442382812 94.7548828125 738.08984375 c 132,-1,6
 98.9404296875 763.73828125 98.9404296875 763.73828125 98.9404296875 790.48046875 c 6,7,-1
 98.9404296875 812.98046875 l 5,8,-1
 121.440429688 812.98046875 l 5,9,-1
 158.240234375 812.98046875 l 5,10,-1
 195.040039062 812.98046875 l 5,11,-1
 217.540039062 812.98046875 l 5,12,-1
 217.540039062 790.48046875 l 6,13,14
 217.540039062 680.92578125 217.540039062 680.92578125 166.161132812 583.983398438 c 6,15,-1
 155.87109375 564.568359375 l 5,16,-1
 136.217773438 574.395507812 l 5,17,-1
 102.758789062 591.125 l 5,0,-1
EndSplineSet
EndChar

StartChar: parenleft
Encoding: 40 40 11
Width: 377
VWidth: 949
Flags: W
LayerCount: 2
Fore
SplineSet
270.568359375 739.001953125 m 5,0,-1
 298.94921875 715.19921875 l 5,1,-1
 316.166992188 700.758789062 l 5,2,-1
 301.748046875 683.5234375 l 6,3,4
 225.12890625 591.932617188 225.12890625 591.932617188 198.290039062 477.981445312 c 132,-1,5
 171.443359375 363.990234375 171.443359375 363.990234375 198.294921875 249.540039062 c 132,-1,6
 225.135742188 135.139648438 225.135742188 135.139648438 301.748046875 43.556640625 c 6,7,-1
 316.166992188 26.3212890625 l 5,8,-1
 298.94921875 11.880859375 l 5,9,-1
 270.401367188 -12.0625 l 5,10,-1
 242.774414062 -35.0849609375 l 5,11,-1
 225.631835938 -49.3701171875 l 5,12,-1
 211.205078125 -32.3466796875 l 6,13,14
 115.685546875 80.3662109375 115.685546875 80.3662109375 82.7138671875 222.288085938 c 4,15,16
 49.7880859375 364.008789062 49.7880859375 364.008789062 82.7177734375 505.268554688 c 132,-1,17
 115.6796875 646.672851562 115.6796875 646.672851562 211.14453125 760.275390625 c 6,18,-1
 225.841796875 777.764648438 l 5,19,-1
 243.106445312 762.802734375 l 5,20,-1
 270.568359375 739.001953125 l 5,0,-1
EndSplineSet
EndChar

StartChar: parenright
Encoding: 41 41 12
Width: 412
VWidth: 949
Flags: W
LayerCount: 2
Fore
SplineSet
121.600585938 742.119140625 m 1,0,-1
 150.12109375 766.0390625 l 1,1,-1
 167.4296875 780.555664062 l 1,2,-1
 181.876953125 763.189453125 l 2,3,4
 229.018554688 706.525390625 229.018554688 706.525390625 261.043945312 642.713867188 c 128,-1,5
 293.069335938 578.90234375 293.069335938 578.90234375 309.756835938 508.337890625 c 0,6,7
 343.177734375 367.008789062 343.177734375 367.008789062 309.760742188 225.217773438 c 0,8,9
 293.071289062 154.41015625 293.071289062 154.41015625 261.030273438 90.6875 c 128,-1,10
 228.990234375 26.96484375 228.990234375 26.96484375 181.817382812 -29.26171875 c 2,11,-1
 167.633789062 -46.1669921875 l 1,12,-1
 150.456054688 -32.314453125 l 1,13,-1
 121.766601562 -9.1787109375 l 1,14,-1
 93.0810546875 14.880859375 l 1,15,-1
 75.8642578125 29.3212890625 l 1,16,-1
 90.2822265625 46.556640625 l 2,17,18
 166.922851562 138.172851562 166.922851562 138.172851562 194.212890625 252.619140625 c 128,-1,19
 221.486328125 366.990234375 221.486328125 366.990234375 194.217773438 480.901367188 c 128,-1,20
 166.9296875 594.899414062 166.9296875 594.899414062 90.2822265625 686.5234375 c 2,21,-1
 75.8642578125 703.758789062 l 1,22,-1
 93.0810546875 718.19921875 l 1,23,-1
 121.600585938 742.119140625 l 1,0,-1
EndSplineSet
EndChar

StartChar: plus
Encoding: 43 43 14
Width: 520
VWidth: 942
Flags: W
LayerCount: 2
Fore
SplineSet
418.8203125 277 m 1,0,-1
 418.8203125 240.200195312 l 1,1,-1
 418.8203125 217.700195312 l 1,2,-1
 396.3203125 217.700195312 l 1,3,-1
 127.6796875 217.700195312 l 1,4,-1
 105.1796875 217.700195312 l 1,5,-1
 105.1796875 240.200195312 l 1,6,-1
 105.1796875 277 l 1,7,-1
 105.1796875 313.799804688 l 1,8,-1
 105.1796875 336.299804688 l 1,9,-1
 127.6796875 336.299804688 l 1,10,-1
 396.3203125 336.299804688 l 1,11,-1
 418.8203125 336.299804688 l 1,12,-1
 418.8203125 313.799804688 l 1,13,-1
 418.8203125 277 l 1,0,-1
262 433.8203125 m 1,14,-1
 298.799804688 433.8203125 l 1,15,-1
 321.299804688 433.8203125 l 1,16,-1
 321.299804688 411.3203125 l 1,17,-1
 321.299804688 142.6796875 l 1,18,-1
 321.299804688 120.1796875 l 1,19,-1
 298.799804688 120.1796875 l 1,20,-1
 262 120.1796875 l 1,21,-1
 225.200195312 120.1796875 l 1,22,-1
 202.700195312 120.1796875 l 1,23,-1
 202.700195312 142.6796875 l 1,24,-1
 202.700195312 411.3203125 l 1,25,-1
 202.700195312 433.8203125 l 1,26,-1
 225.200195312 433.8203125 l 1,27,-1
 262 433.8203125 l 1,14,-1
EndSplineSet
EndChar

StartChar: comma
Encoding: 44 44 15
Width: 276
VWidth: 916
Flags: W
LayerCount: 2
Fore
SplineSet
91.3871263782 -166.674427113 m 1,0,-1
 57.586785201 -152.971795757 l 1,1,-1
 36.4370608691 -144.397714381 l 1,2,-1
 45.3104244101 -123.3717987 l 2,3,4
 85.860351562 -27.2865492652 85.860351562 -27.2865492652 85.860351562 77.6396484375 c 2,5,-1
 85.860351562 100.139648438 l 1,6,-1
 108.360351562 100.139648438 l 1,7,-1
 145.16015625 100.139648438 l 1,8,-1
 181.959960938 100.139648438 l 1,9,-1
 204.459960938 100.139648438 l 1,10,-1
 204.459960938 77.6396484375 l 2,11,12
 204.459960938 -50.1329875384 204.459960938 -50.1329875384 154.894271572 -169.281668436 c 2,13,-1
 146.131108336 -190.347033478 l 1,14,-1
 125.189764689 -181.291495916 l 1,15,-1
 91.3871263782 -166.674427113 l 1,0,-1
EndSplineSet
EndChar

StartChar: hyphen
Encoding: 45 45 16
Width: 483
VWidth: 943
Flags: W
LayerCount: 2
Fore
SplineSet
396.8203125 298 m 1,0,-1
 396.8203125 261.200195312 l 1,1,-1
 396.8203125 238.700195312 l 1,2,-1
 374.3203125 238.700195312 l 1,3,-1
 105.6796875 238.700195312 l 1,4,-1
 83.1796875 238.700195312 l 1,5,-1
 83.1796875 261.200195312 l 1,6,-1
 83.1796875 298 l 1,7,-1
 83.1796875 334.799804688 l 1,8,-1
 83.1796875 357.299804688 l 1,9,-1
 105.6796875 357.299804688 l 1,10,-1
 374.3203125 357.299804688 l 1,11,-1
 396.8203125 357.299804688 l 1,12,-1
 396.8203125 334.799804688 l 1,13,-1
 396.8203125 298 l 1,0,-1
EndSplineSet
EndChar

StartChar: period
Encoding: 46 46 17
Width: 259
VWidth: 923
Flags: W
LayerCount: 2
Fore
SplineSet
127 134.620117188 m 1,0,-1
 163.799804688 134.620117188 l 1,1,-1
 186.299804688 134.620117188 l 1,2,-1
 186.299804688 112.120117188 l 1,3,-1
 186.299804688 22.8798828125 l 1,4,-1
 186.299804688 0.3798828125 l 1,5,-1
 163.799804688 0.3798828125 l 1,6,-1
 127 0.3798828125 l 1,7,-1
 90.2001953125 0.3798828125 l 1,8,-1
 67.7001953125 0.3798828125 l 1,9,-1
 67.7001953125 22.8798828125 l 1,10,-1
 67.7001953125 112.120117188 l 1,11,-1
 67.7001953125 134.620117188 l 1,12,-1
 90.2001953125 134.620117188 l 1,13,-1
 127 134.620117188 l 1,0,-1
EndSplineSet
EndChar

StartChar: slash
Encoding: 47 47 18
Width: 433
VWidth: 947
Flags: W
LayerCount: 2
Fore
SplineSet
372.250914568 681.411505183 m 1,0,-1
 406.290704061 666.69188654 l 1,1,-1
 426.879198647 657.788929346 l 1,2,-1
 418.039538893 637.173178776 l 1,3,-1
 149.398913893 10.652670964 l 1,4,-1
 140.50455441 -10.0906496703 l 1,5,-1
 119.788874932 -1.13210038446 l 1,6,-1
 85.7493350016 13.588386897 l 1,7,-1
 51.7092959391 28.3081134595 l 1,8,-1
 31.1208013524 37.2110706533 l 1,9,-1
 39.9604611066 57.8268212235 l 1,10,-1
 308.601086107 684.347329036 l 1,11,-1
 317.49544559 705.09064967 l 1,12,-1
 338.211125068 696.132100384 l 1,13,-1
 372.250914568 681.411505183 l 1,0,-1
EndSplineSet
EndChar

StartChar: zero
Encoding: 48 48 19
Width: 648
VWidth: 942
Flags: W
LayerCount: 2
Fore
SplineSet
192.647460938 500.159179688 m 1,0,-1
 216.567382812 471.639648438 l 1,1,-1
 230.921875 454.524414062 l 1,2,-1
 213.911132812 440.045898438 l 2,3,4
 175.44921875 407.3125 175.44921875 407.3125 163.173828125 370.485351562 c 0,5,6
 145.622070312 317.83203125 145.622070312 317.83203125 166.216796875 247.641601562 c 0,7,8
 170.573242188 232.083007812 170.573242188 232.083007812 179.240234375 213.568359375 c 128,-1,9
 187.907226562 195.053710938 187.907226562 195.053710938 201.05859375 173.573242188 c 0,10,11
 205.134765625 166.860351562 205.134765625 166.860351562 211.0859375 160.354492188 c 128,-1,12
 217.038085938 153.848632812 217.038085938 153.848632812 225.65234375 147.028320312 c 128,-1,13
 234.267578125 140.208007812 234.267578125 140.208007812 245.111328125 133.673828125 c 0,14,15
 272.245117188 116.817382812 272.245117188 116.817382812 300.8125 110.782226562 c 0,16,17
 316.939453125 107.720703125 316.939453125 107.720703125 333.130859375 107.08984375 c 128,-1,18
 349.323242188 106.458984375 349.323242188 106.458984375 364.389648438 108.28125 c 0,19,20
 376.212890625 109.869140625 376.212890625 109.869140625 392.224609375 116.90234375 c 128,-1,21
 408.237304688 123.934570312 408.237304688 123.934570312 426.967773438 136.421875 c 2,22,-1
 445.688476562 148.90234375 l 1,23,-1
 458.168945312 130.180664062 l 1,24,-1
 478.495117188 99.6923828125 l 1,25,-1
 498.818359375 68.283203125 l 1,26,-1
 510.912109375 49.591796875 l 1,27,-1
 492.349609375 37.30078125 l 2,28,29
 418.622070312 -11.51953125 418.622070312 -11.51953125 344.688476562 -11.51953125 c 0,30,31
 272.216796875 -11.51953125 272.216796875 -11.51953125 212.321289062 18.427734375 c 0,32,33
 139.6796875 54.2509765625 139.6796875 54.2509765625 104.504882812 108.286132812 c 0,34,35
 54.52734375 186.892578125 54.52734375 186.892578125 48.27734375 227.520507812 c 0,36,37
 30.9375 346.002929688 30.9375 346.002929688 51.89453125 409.87109375 c 0,38,39
 74.1064453125 478.524414062 74.1064453125 478.524414062 137.00390625 531.438476562 c 2,40,-1
 154.247070312 545.9453125 l 1,41,-1
 168.727539062 528.6796875 l 1,42,-1
 192.647460938 500.159179688 l 1,0,-1
442.56640625 72.7412109375 m 1,43,-1
 418.765625 100.205078125 l 1,44,-1
 403.684570312 117.60546875 l 1,45,-1
 421.4296875 132.280273438 l 2,46,47
 463.068359375 166.7109375 463.068359375 166.7109375 473.038085938 217.758789062 c 0,48,49
 484.375976562 274.025390625 484.375976562 274.025390625 469.344726562 325.37890625 c 0,50,51
 457.525390625 367.170898438 457.525390625 367.170898438 433.115234375 400.83984375 c 0,52,53
 421.373046875 417.440429688 421.373046875 417.440429688 406.274414062 430.111328125 c 128,-1,54
 391.17578125 442.783203125 391.17578125 442.783203125 372.359375 452.005859375 c 0,55,56
 337.6640625 467.698242188 337.6640625 467.698242188 294.9765625 466.883789062 c 0,57,58
 253.151367188 466.086914062 253.151367188 466.086914062 207.970703125 436.513671875 c 2,59,-1
 189.303710938 424.294921875 l 1,60,-1
 176.927734375 442.859375 l 1,61,-1
 156.6875 473.219726562 l 1,62,-1
 136.447265625 503.580078125 l 1,63,-1
 124.04296875 522.184570312 l 1,64,-1
 142.571289062 534.704101562 l 2,65,66
 160.734375 546.9765625 160.734375 546.9765625 179.17578125 556.288085938 c 128,-1,67
 197.616210938 565.599609375 197.616210938 565.599609375 216.387695312 571.962890625 c 128,-1,68
 235.159179688 578.325195312 235.159179688 578.325195312 254.265625 581.609375 c 128,-1,69
 273.373046875 584.892578125 273.373046875 584.892578125 292.564453125 585.020507812 c 0,70,71
 370.708984375 585.517578125 370.708984375 585.517578125 427.815429688 553.6796875 c 0,72,73
 451.560546875 540.595703125 451.560546875 540.595703125 470.697265625 526.90625 c 128,-1,74
 489.833984375 513.217773438 489.833984375 513.217773438 505.130859375 498.049804688 c 128,-1,75
 520.427734375 482.8828125 520.427734375 482.8828125 530.94921875 466.749023438 c 0,76,77
 554.951171875 430.266601562 554.951171875 430.266601562 575.107421875 384.67578125 c 0,78,79
 585.515625 359.95703125 585.515625 359.95703125 590.5390625 329.3125 c 128,-1,80
 595.563476562 298.66796875 595.563476562 298.66796875 595.807617188 260.90625 c 0,81,82
 596.302734375 184.263671875 596.302734375 184.263671875 570.471679688 132.095703125 c 0,83,84
 557.685546875 106.2734375 557.685546875 106.2734375 539.499023438 83.5712890625 c 128,-1,85
 521.3125 60.869140625 521.3125 60.869140625 497.9765625 41.5048828125 c 2,86,-1
 480.751953125 27.212890625 l 1,87,-1
 466.369140625 44.361328125 l 1,88,-1
 442.56640625 72.7412109375 l 1,43,-1
316.16796875 224.919921875 m 1,89,-1
 279.368164062 224.919921875 l 1,90,-1
 256.868164062 224.919921875 l 1,91,-1
 256.868164062 247.419921875 l 1,92,-1
 256.868164062 321.940429688 l 1,93,-1
 256.868164062 344.440429688 l 1,94,-1
 279.368164062 344.440429688 l 1,95,-1
 316.16796875 344.440429688 l 1,96,-1
 352.967773438 344.440429688 l 1,97,-1
 375.467773438 344.440429688 l 1,98,-1
 375.467773438 321.940429688 l 1,99,-1
 375.467773438 247.419921875 l 1,100,-1
 375.467773438 224.919921875 l 1,101,-1
 352.967773438 224.919921875 l 1,102,-1
 316.16796875 224.919921875 l 1,89,-1
EndSplineSet
EndChar

StartChar: one
Encoding: 49 49 20
Width: 504
VWidth: 943
Flags: W
LayerCount: 2
Fore
SplineSet
89.4245631588 342.642410342 m 1,0,-1
 71.0241725341 374.842605654 l 1,1,-1
 59.8830477199 394.339278433 l 1,2,-1
 79.3575751862 405.519067855 l 2,3,4
 173.468563844 459.545592368 173.468563844 459.545592368 228.49177899 554.744812158 c 0,5,6
 241.756378983 576.851435873 241.756378983 576.851435873 266.647029456 582.707693817 c 0,7,8
 278.935861742 585.583680999 278.935861742 585.583680999 291.067696657 583.302376942 c 128,-1,9
 303.199531572 581.021072884 303.199531572 581.021072884 313.970374031 573.841019387 c 0,10,11
 339.379882812 555.904428893 339.379882812 555.904428893 339.379882812 524.92578125 c 2,12,-1
 339.379882812 63.0859375 l 1,13,-1
 339.379882812 40.5859375 l 1,14,-1
 316.879882812 40.5859375 l 1,15,-1
 280.080078125 40.5859375 l 1,16,-1
 243.280273438 40.5859375 l 1,17,-1
 220.780273438 40.5859375 l 1,18,-1
 220.780273438 63.0859375 l 1,19,-1
 220.780273438 361.379499298 l 1,20,21
 182.504993264 327.829817738 182.504993264 327.829817738 138.732156434 302.19073069 c 2,22,-1
 119.108394091 290.696493913 l 1,23,-1
 107.824953783 310.442215029 l 1,24,-1
 89.4245631588 342.642410342 l 1,0,-1
120.5 63.0859375 m 1,25,-1
 120.5 99.8857421875 l 1,26,-1
 120.5 122.385742188 l 1,27,-1
 143 122.385742188 l 1,28,-1
 402.440429688 122.385742188 l 1,29,-1
 424.940429688 122.385742188 l 1,30,-1
 424.940429688 99.8857421875 l 1,31,-1
 424.940429688 63.0859375 l 1,32,-1
 424.940429688 26.2861328125 l 1,33,-1
 424.940429688 3.7861328125 l 1,34,-1
 402.440429688 3.7861328125 l 1,35,-1
 143 3.7861328125 l 1,36,-1
 120.5 3.7861328125 l 1,37,-1
 120.5 26.2861328125 l 1,38,-1
 120.5 63.0859375 l 1,25,-1
EndSplineSet
EndChar

StartChar: two
Encoding: 50 50 21
Width: 610
VWidth: 943
Flags: W
LayerCount: 2
Fore
SplineSet
176.428710938 447.61328125 m 1,0,-1
 144.436523438 465.892578125 l 1,1,-1
 124.702148438 477.169921875 l 1,2,-1
 136.177734375 496.7890625 l 2,3,4
 168.5859375 552.194335938 168.5859375 552.194335938 224.950195312 574.845703125 c 0,5,6
 280.35546875 597.112304688 280.35546875 597.112304688 338.532226562 585.684570312 c 0,7,8
 422.09765625 568.360351562 422.09765625 568.360351562 465.3515625 513.641601562 c 0,9,10
 510.260742188 456.828125 510.260742188 456.828125 487.541015625 359.752929688 c 0,11,12
 485.182617188 349.794921875 485.182617188 349.794921875 481.735351562 340.151367188 c 128,-1,13
 478.2890625 330.5078125 478.2890625 330.5078125 473.791015625 321.26171875 c 128,-1,14
 469.293945312 312.015625 469.293945312 312.015625 463.772460938 303.16015625 c 128,-1,15
 458.250976562 294.303710938 458.250976562 294.303710938 451.704101562 285.831054688 c 0,16,17
 426.014648438 252.5859375 426.014648438 252.5859375 393.547851562 230.7734375 c 0,18,19
 363.592773438 210.646484375 363.592773438 210.646484375 329.01953125 190.088867188 c 128,-1,20
 294.458007812 169.5390625 294.458007812 169.5390625 264.939453125 154.077148438 c 0,21,22
 260.482421875 151.7421875 260.482421875 151.7421875 256.186523438 149.283203125 c 128,-1,23
 251.891601562 146.82421875 251.891601562 146.82421875 247.767578125 144.247070312 c 128,-1,24
 243.64453125 141.669921875 243.64453125 141.669921875 239.684570312 138.971679688 c 128,-1,25
 235.725585938 136.274414062 235.725585938 136.274414062 231.926757812 133.454101562 c 128,-1,26
 228.12890625 130.633789062 228.12890625 130.633789062 224.497070312 127.697265625 c 128,-1,27
 220.864257812 124.760742188 220.864257812 124.760742188 217.383789062 121.698242188 c 0,28,29
 215.8984375 120.390625 215.8984375 120.390625 214.161132812 118.768554688 c 2,30,-1
 412.780273438 118.768554688 l 1,31,-1
 412.780273438 148.708984375 l 1,32,-1
 412.780273438 171.208984375 l 1,33,-1
 435.280273438 171.208984375 l 1,34,-1
 472.080078125 171.208984375 l 1,35,-1
 508.879882812 171.208984375 l 1,36,-1
 531.379882812 171.208984375 l 1,37,-1
 531.379882812 148.708984375 l 1,38,-1
 531.379882812 41.0693359375 l 1,39,-1
 531.379882812 35.548828125 l 1,40,-1
 531.379882812 30.94921875 l 2,41,42
 531.379882812 27.56640625 531.379882812 27.56640625 530.682617188 24.27734375 c 2,43,-1
 530.483398438 23.3154296875 l 2,44,45
 528.458007812 10.521484375 528.458007812 10.521484375 517.102539062 4.84375 c 0,46,47
 513.487304688 3.037109375 513.487304688 3.037109375 508.231445312 1.9853515625 c 0,48,49
 505.318359375 1.4033203125 505.318359375 1.4033203125 501.481445312 0.85546875 c 0,50,51
 496.678710938 0.1689453125 496.678710938 0.1689453125 490.48046875 0.1689453125 c 2,52,-1
 128.919921875 0.1689453125 l 2,53,54
 107.516601562 0.1689453125 107.516601562 0.1689453125 89.171875 16.396484375 c 0,55,56
 69.6201171875 33.6923828125 69.6201171875 33.6923828125 69.6201171875 59.46875 c 0,57,58
 69.6201171875 82.8515625 69.6201171875 82.8515625 74.017578125 104.451171875 c 128,-1,59
 78.4150390625 126.05078125 78.4150390625 126.05078125 87.267578125 145.579101562 c 0,60,61
 104.734375 184.109375 104.734375 184.109375 132.791015625 210.606445312 c 0,62,63
 145.96484375 223.048828125 145.96484375 223.048828125 160.5625 234.483398438 c 128,-1,64
 175.159179688 245.91796875 175.159179688 245.91796875 191.158203125 256.340820312 c 0,65,66
 206.893554688 266.592773438 206.893554688 266.592773438 223.004882812 275.782226562 c 128,-1,67
 239.115234375 284.970703125 239.115234375 284.970703125 255.594726562 293.091796875 c 0,68,69
 271.181640625 300.772460938 271.181640625 300.772460938 285.495117188 308.323242188 c 128,-1,70
 299.80859375 315.874023438 299.80859375 315.874023438 312.833007812 323.284179688 c 0,71,72
 336.755859375 336.896484375 336.755859375 336.896484375 353.399414062 353.9453125 c 0,73,74
 367.672851562 368.56640625 367.672851562 368.56640625 370.974609375 384.416992188 c 0,75,76
 375.059570312 402.393554688 375.059570312 402.393554688 375.059570312 415.508789062 c 0,77,78
 375.059570312 421.755859375 375.059570312 421.755859375 374.3671875 426.860351562 c 128,-1,79
 373.674804688 431.96484375 373.674804688 431.96484375 372.450195312 435.791992188 c 0,80,81
 370.086914062 443.178710938 370.086914062 443.178710938 366.390625 447.666015625 c 128,-1,82
 362.858398438 451.956054688 362.858398438 451.956054688 356.33203125 455.360351562 c 0,83,84
 351.747070312 457.752929688 351.747070312 457.752929688 347.212890625 459.724609375 c 128,-1,85
 342.677734375 461.696289062 342.677734375 461.696289062 338.189453125 463.2578125 c 0,86,87
 335.405273438 464.225585938 335.405273438 464.225585938 332.008789062 465.159179688 c 128,-1,88
 328.611328125 466.09375 328.611328125 466.09375 324.381835938 467.02734375 c 128,-1,89
 320.153320312 467.9609375 320.153320312 467.9609375 315.44921875 468.791992188 c 0,90,-1
 313.904296875 469.12109375 l 2,91,92
 302.946289062 471.860351562 302.946289062 471.860351562 292.546875 470.853515625 c 0,93,94
 281.0625 469.7421875 281.0625 469.7421875 270.807617188 466.079101562 c 0,95,96
 266.467773438 464.529296875 266.467773438 464.529296875 262.227539062 461.969726562 c 128,-1,97
 257.987304688 459.409179688 257.987304688 459.409179688 253.724609375 455.658203125 c 0,98,99
 245.291015625 448.236328125 245.291015625 448.236328125 239.852539062 438.040039062 c 2,100,-1
 228.989257812 417.673828125 l 1,101,-1
 208.907226562 429.053710938 l 1,102,-1
 181.063476562 444.831054688 l 1,103,-1
 176.428710938 447.61328125 l 1,0,-1
EndSplineSet
EndChar

StartChar: three
Encoding: 51 51 22
Width: 540
VWidth: 943
Flags: W
LayerCount: 2
Fore
SplineSet
248.788450523 308.094094961 m 1,0,-1
 236.772136563 342.294524102 l 1,1,-1
 229.114643633 364.089023249 l 1,2,-1
 251.10325728 371.169860837 l 2,3,4
 291.078436344 384.042784754 291.078436344 384.042784754 302.347466462 388.267626634 c 0,5,6
 308.136366678 393.632553471 308.136366678 393.632553471 310.379126035 398.05240537 c 128,-1,7
 312.621885391 402.472257269 312.621885391 402.472257269 312.019000374 407.480755924 c 128,-1,8
 311.416115358 412.48925458 311.416115358 412.48925458 307.795197647 419.730887716 c 0,9,10
 293.382189978 448.557708296 293.382189978 448.557708296 271.905612833 460.72723676 c 0,11,12
 251.00333599 472.129089909 251.00333599 472.129089909 228.718190857 463.215167028 c 0,13,14
 211.729472688 456.265087835 211.729472688 456.265087835 193.209880877 440.965997314 c 2,15,-1
 175.657433465 426.46586769 l 1,16,-1
 161.365466534 444.188222233 l 1,17,-1
 138.61579116 472.398321982 l 1,18,-1
 114.957035976 499.696588458 l 1,19,-1
 100.322070839 516.58290285 l 1,20,-1
 117.10727072 531.333729379 l 2,21,22
 150.669355211 560.82807498 150.669355211 560.82807498 187.684524665 574.194572999 c 0,23,24
 267.157796323 603.864324466 267.157796323 603.864324466 328.433393767 564.278725172 c 0,25,26
 363.253026484 542.79411478 363.253026484 542.79411478 386.306524007 517.656683249 c 128,-1,27
 409.36002153 492.519251719 409.36002153 492.519251719 419.101548751 463.835259612 c 0,28,29
 425.786361275 444.897125421 425.786361275 444.897125421 426.315398043 417.38496704 c 0,30,31
 426.835095142 394.516087946 426.835095142 394.516087946 420.289679995 364.309274934 c 0,32,33
 412.610999053 328.865446836 412.610999053 328.865446836 383.792244687 305.928809874 c 0,34,35
 358.736055856 285.985685877 358.736055856 285.985685877 335.518534788 276.487405401 c 0,36,37
 314.705159727 267.973664507 314.705159727 267.973664507 290.200069951 259.490825599 c 2,38,-1
 269.353430105 252.274419164 l 1,39,-1
 261.727103484 272.974613775 l 1,40,-1
 248.788450523 308.094094961 l 1,0,-1
247.459960938 315.712890625 m 1,41,-1
 247.459960938 352.512695312 l 1,42,-1
 247.459960938 375.012695312 l 1,43,-1
 269.959960938 375.012695312 l 2,44,45
 343.24023037 375.012695312 343.24023037 375.012695312 406.307057823 316.048509869 c 0,46,47
 470.01953125 256.47855137 470.01953125 256.47855137 470.01953125 186.913085938 c 0,48,49
 470.01953125 107.908576375 470.01953125 107.908576375 439.071014826 70.880174739 c 0,50,51
 398.033474648 21.1217625026 398.033474648 21.1217625026 329.007529932 -0.195564580327 c 0,52,53
 310.033606797 -5.99319882602 310.033606797 -5.99319882602 289.981458084 -7.44478627488 c 128,-1,54
 269.92930937 -8.89637372373 269.92930937 -8.89637372373 249.415875381 -6.03738810935 c 0,55,56
 209.07263769 -0.490781738558 209.07263769 -0.490781738558 174.577166866 16.2507759877 c 0,57,58
 138.706172659 33.6582479353 138.706172659 33.6582479353 110.226075215 69.3883643946 c 0,59,60
 81.9520302197 104.858605649 81.9520302197 104.858605649 69.7089840903 151.793531695 c 2,61,-1
 64.0062027698 173.655706901 l 1,62,-1
 85.8918949211 179.2675603 l 1,63,-1
 122.035528353 188.535385633 l 1,64,-1
 158.180721154 196.876886675 l 1,65,-1
 179.979188808 201.907484841 l 1,66,-1
 185.134638293 180.138207165 l 2,67,68
 191.885640988 151.631584675 191.885640988 151.631584675 210.101526076 134.144273117 c 0,69,70
 228.058496898 116.905520133 228.058496898 116.905520133 249.219769501 113.436084786 c 0,71,72
 272.696104803 109.587773114 272.696104803 109.587773114 299.011827289 115.014983711 c 0,73,74
 315.394037874 119.122041329 315.394037874 119.122041329 325.183109908 124.527372994 c 128,-1,75
 334.972181942 129.932704659 334.972181942 129.932704659 340.211544198 136.519168062 c 0,76,77
 351.419921875 150.610205047 351.419921875 150.610205047 351.419921875 186.913085938 c 0,78,79
 351.419921875 198.980907288 351.419921875 198.980907288 336.793830072 219.314908474 c 0,80,81
 328.864514087 230.338842033 328.864514087 230.338842033 320.742565365 237.467371615 c 128,-1,82
 312.620616643 244.595901198 312.620616643 244.595901198 304.444296664 248.266938152 c 0,83,84
 295.147908439 252.440867843 295.147908439 252.440867843 286.571765711 254.42697689 c 128,-1,85
 277.995622983 256.413085938 277.995622983 256.413085938 269.959960938 256.413085938 c 2,86,-1
 247.459960938 256.413085938 l 1,87,-1
 247.459960938 278.913085938 l 1,88,-1
 247.459960938 315.712890625 l 1,41,-1
EndSplineSet
EndChar

StartChar: four
Encoding: 52 52 23
Width: 583
VWidth: 943
Flags: W
LayerCount: 2
Fore
SplineSet
397.999023438 279.591796875 m 1,0,-1
 482.499023438 279.591796875 l 5,1,-1
 504.999023438 279.591796875 l 5,2,-1
 504.999023438 257.091796875 l 5,3,-1
 504.999023438 220.291015625 l 5,4,-1
 504.999023438 183.491210938 l 5,5,-1
 504.999023438 160.991210938 l 5,6,-1
 482.499023438 160.991210938 l 5,7,-1
 397.999023438 160.991210938 l 1,8,-1
 397.999023438 91.4912109375 l 1,9,-1
 397.999023438 68.9912109375 l 1,10,-1
 375.499023438 68.9912109375 l 1,11,-1
 338.69921875 68.9912109375 l 1,12,-1
 301.899414062 68.9912109375 l 1,13,-1
 279.399414062 68.9912109375 l 1,14,-1
 279.399414062 91.4912109375 l 1,15,-1
 279.399414062 160.991210938 l 1,16,-1
 124.338867188 160.991210938 l 2,17,18
 113 161 113 161 101.842773438 165.618164062 c 0,19,20
 91 170 91 170 82.6689453125 178.62109375 c 0,21,22
 65 197 65 197 65.5078125 222.756835938 c 0,23,24
 66 250 66 250 87.1513671875 266.278320312 c 0,25,26
 159 326 159 326 208.750488281 405.58203125 c 0,27,28
 261 490 261 490 280.97265625 562.11328125 c 0,29,30
 286 580 286 580 300.208007812 592.736328125 c 0,31,32
 307 599 307 599 315.959960938 602.232421875 c 0,33,34
 325 606 325 606 333.7109375 606.734375 c 0,35,36
 347 608 347 608 358.376953125 604.118164062 c 0,37,38
 369 600 369 600 378.80078125 591.665039062 c 0,39,40
 397.999023438 574.000898527 397.999023438 574.000898527 397.999023438 548.451171875 c 2,41,-1
 397.999023438 279.591796875 l 1,0,-1
279.399414062 279.591796875 m 1,42,-1
 279.399414062 299.192382812 l 2,43,44
 277.837890625 297.055664062 277.837890625 297.055664062 276.240234375 294.90234375 c 128,-1,45
 274.642578125 292.749023438 274.642578125 292.749023438 273.151367188 290.768554688 c 128,-1,46
 271.661132812 288.788085938 271.661132812 288.788085938 270.161132812 286.822265625 c 128,-1,47
 268.662109375 284.856445312 268.662109375 284.856445312 267.294921875 283.086914062 c 128,-1,48
 265.926757812 281.31640625 265.926757812 281.31640625 264.578125 279.591796875 c 2,49,-1
 279.399414062 279.591796875 l 1,42,-1
193.838867188 61.4912109375 m 1,50,-1
 193.838867188 98.291015625 l 1,51,-1
 193.838867188 120.791015625 l 1,52,-1
 216.338867188 120.791015625 l 1,53,-1
 461.059570312 120.791015625 l 1,54,-1
 483.559570312 120.791015625 l 1,55,-1
 483.559570312 98.291015625 l 1,56,-1
 483.559570312 61.4912109375 l 1,57,-1
 483.559570312 24.69140625 l 1,58,-1
 483.559570312 2.19140625 l 1,59,-1
 461.059570312 2.19140625 l 1,60,-1
 216.338867188 2.19140625 l 1,61,-1
 193.838867188 2.19140625 l 1,62,-1
 193.838867188 24.69140625 l 1,63,-1
 193.838867188 61.4912109375 l 1,50,-1
EndSplineSet
EndChar

StartChar: five
Encoding: 53 53 24
Width: 576
VWidth: 942
Flags: W
LayerCount: 2
Fore
SplineSet
392.129882812 403.999023438 m 1,0,-1
 355.330078125 403.999023438 l 1,1,-1
 332.830078125 403.999023438 l 1,2,-1
 332.830078125 426.499023438 l 1,3,-1
 332.830078125 455.51953125 l 1,4,-1
 220.509765625 455.51953125 l 1,5,-1
 220.509765625 390.760646804 l 1,6,7
 271.721162585 402.415661461 271.721162585 402.415661461 315.823277552 395.328358962 c 0,8,9
 408.144547282 379.095219418 408.144547282 379.095219418 460.379812988 313.034410515 c 0,10,11
 513.538573472 245.804278515 513.538573472 245.804278515 496.166527158 145.66336918 c 0,12,13
 486.625713793 92.6543490413 486.625713793 92.6543490413 456.339849892 62.3696541177 c 0,14,15
 448.147465342 54.1770019909 448.147465342 54.1770019909 439.192921664 46.7465772787 c 128,-1,16
 430.238377987 39.3161525664 430.238377987 39.3161525664 420.602143169 32.7059130536 c 128,-1,17
 410.96590835 26.0956735409 410.96590835 26.0956735409 400.658951086 20.2939476252 c 128,-1,18
 390.351993822 14.4922217096 390.351993822 14.4922217096 379.401986959 9.5151619943 c 0,19,20
 366.654623756 3.65803805808 366.654623756 3.65803805808 353.113219262 -0.325839875939 c 128,-1,21
 339.571814768 -4.30971780995 339.571814768 -4.30971780995 325.461243373 -6.37954192525 c 128,-1,22
 311.350671977 -8.44936604055 311.350671977 -8.44936604055 296.711779705 -8.61957311206 c 0,23,24
 253.365873549 -9.12354550901 253.365873549 -9.12354550901 213.89464089 4.03353204383 c 0,25,26
 200.416667891 8.52618970996 200.416667891 8.52618970996 187.457053078 15.0425020885 c 128,-1,27
 174.497438264 21.558814467 174.497438264 21.558814467 162.293306084 29.9220161587 c 128,-1,28
 150.089173903 38.2852178504 150.089173903 38.2852178504 138.486940634 48.5423888178 c 0,29,30
 103.395899849 79.5651534971 103.395899849 79.5651534971 82.1123181688 123.145718291 c 2,31,-1
 72.1079676191 143.630768876 l 1,32,-1
 92.7226406366 153.365222315 l 1,33,-1
 125.613961207 168.896830717 l 1,34,-1
 158.50776925 185.344219682 l 1,35,-1
 178.9470665 195.564169637 l 1,36,-1
 188.848557331 174.968715565 l 2,37,38
 193.774106249 164.723398142 193.774106249 164.723398142 200.098242878 155.862537775 c 128,-1,39
 206.422379506 147.001677408 206.422379506 147.001677408 214.404300036 139.245285106 c 128,-1,40
 222.386220566 131.488892803 222.386220566 131.488892803 232.097907225 124.898350921 c 128,-1,41
 241.809593883 118.30780904 241.809593883 118.30780904 253.390452728 112.773574054 c 0,42,43
 286.731018405 96.2753749553 286.731018405 96.2753749553 326.869517574 116.345406205 c 0,44,45
 330.788669967 118.304462482 330.788669967 118.304462482 338.85023367 122.098139518 c 0,46,47
 342.238874061 123.692594687 342.238874061 123.692594687 344.818942938 124.984116123 c 128,-1,48
 347.399011816 126.275637559 347.399011816 126.275637559 348.304686887 126.793166171 c 2,49,-1
 357.96803278 132.315496707 l 1,50,-1
 362.546684292 135.256142845 l 1,51,-1
 369.778838428 142.487315276 l 2,52,53
 371.494610573 144.203451705 371.494610573 144.203451705 372.106598008 145.54982406 c 0,54,55
 374.305557168 150.387534212 374.305557168 150.387534212 376.969140876 156.601306605 c 0,56,57
 377.401293008 157.6098145 377.401293008 157.6098145 377.761850269 158.785188729 c 128,-1,58
 378.12240753 159.960562957 378.12240753 159.960562957 378.445897816 161.559751363 c 128,-1,59
 378.769388101 163.15893977 378.769388101 163.15893977 378.967694095 164.943693712 c 2,60,-1
 379.060530879 165.779224768 l 1,61,-1
 379.215458071 166.605498559 l 2,62,63
 388.313144798 215.126226183 388.313144798 215.126226183 366.507791499 241.503200033 c 0,64,65
 343.23419839 269.65720282 343.23419839 269.65720282 295.235546351 278.312779604 c 0,66,67
 291.244250778 279.025608228 291.244250778 279.025608228 286.944206492 279.344273096 c 128,-1,68
 282.644162205 279.662937964 282.644162205 279.662937964 277.852208618 279.570791052 c 128,-1,69
 273.06025503 279.478644141 273.06025503 279.478644141 267.971768331 278.955799844 c 128,-1,70
 262.883281632 278.432955548 262.883281632 278.432955548 257.279382252 277.428088935 c 128,-1,71
 251.675482873 276.423222323 251.675482873 276.423222323 245.787265985 274.951124696 c 0,72,73
 213.629076809 266.911364055 213.629076809 266.911364055 196.210449252 253.279849034 c 0,74,75
 192.888709584 250.696186679 192.888709584 250.696186679 189.221849949 248.618479039 c 128,-1,76
 185.554990313 246.5407714 185.554990313 246.5407714 181.67707162 245.029048969 c 128,-1,77
 177.799152926 243.517326538 177.799152926 243.517326538 173.716445913 242.562043085 c 128,-1,78
 169.6337389 241.606759632 169.6337389 241.606759632 165.458753433 241.243750927 c 0,79,80
 148.072603827 239.732051375 148.072603827 239.732051375 132.886573913 248.084367829 c 0,81,82
 118.197483902 256.164068969 118.197483902 256.164068969 109.997635138 270.326293289 c 0,83,84
 106.034841858 277.171118047 106.034841858 277.171118047 103.972499054 284.85840501 c 128,-1,85
 101.91015625 292.545691972 101.91015625 292.545691972 101.91015625 300.458984375 c 2,86,-1
 101.91015625 528.619140625 l 2,87,88
 101.91015625 529.978475803 101.91015625 529.978475803 101.623943086 532.268788787 c 0,89,90
 100.990234375 537.338458477 100.990234375 537.338458477 100.990234375 540.119140625 c 0,91,92
 100.990234375 543.361180143 100.990234375 543.361180143 101.75611988 547.956493179 c 0,93,94
 103.818170575 560.333175364 103.818170575 560.333175364 113.30928465 566.66058475 c 0,95,96
 115.854702962 568.35753029 115.854702962 568.35753029 118.947459726 569.903908672 c 0,97,98
 124.053516729 572.456937174 124.053516729 572.456937174 130.888331988 573.433043296 c 0,99,100
 133.629194752 573.824595119 133.629194752 573.824595119 136.44726904 573.971867872 c 128,-1,101
 139.265343328 574.119140625 139.265343328 574.119140625 142.809570312 574.119140625 c 2,102,-1
 410.530273438 574.119140625 l 2,103,104
 422.881705005 574.119140625 422.881705005 574.119140625 429.131420689 572.333507572 c 0,105,106
 437.239512104 570.016910025 437.239512104 570.016910025 442.203645366 564.052824869 c 128,-1,107
 447.167778628 558.088739713 447.167778628 558.088739713 449.101273798 551.643755816 c 0,108,109
 450.193631991 548.001788762 450.193631991 548.001788762 450.725293389 543.986789174 c 128,-1,110
 451.256954786 539.971789586 451.256954786 539.971789586 451.343321143 537.093637802 c 128,-1,111
 451.4296875 534.215486018 451.4296875 534.215486018 451.4296875 528.619140625 c 2,112,-1
 451.4296875 426.499023438 l 1,113,-1
 451.4296875 403.999023438 l 1,114,-1
 428.9296875 403.999023438 l 1,115,-1
 392.129882812 403.999023438 l 1,0,-1
EndSplineSet
EndChar

StartChar: six
Encoding: 54 54 25
Width: 539
VWidth: 942
Flags: W
LayerCount: 2
Fore
SplineSet
94.5283203125 208.758789062 m 1,0,-1
 73.11328125 226.028320312 l 1,1,-1
 55.068359375 240.58203125 l 1,2,-1
 70.154296875 258.184570312 l 1,3,-1
 81.1953125 271.06640625 l 1,4,-1
 81.7578125 271.72265625 l 1,5,-1
 85.134765625 275.197265625 l 1,6,7
 85.4091796875 282.104492188 85.4091796875 282.104492188 86.0029296875 288.037109375 c 0,8,9
 89.978515625 330.274414062 89.978515625 330.274414062 106.408203125 370.3515625 c 128,-1,10
 122.837890625 410.427734375 122.837890625 410.427734375 151.231445312 447.633789062 c 0,11,12
 207.912109375 521.905273438 207.912109375 521.905273438 314.061523438 572.084960938 c 2,13,-1
 334.51953125 581.755859375 l 1,14,-1
 344.07421875 561.243164062 l 1,15,-1
 375.354492188 494.083007812 l 1,16,-1
 384.891601562 473.606445312 l 1,17,-1
 364.377929688 464.149414062 l 2,18,19
 318.862304688 443.16796875 318.862304688 443.16796875 286.540039062 417.489257812 c 128,-1,20
 254.217773438 391.810546875 254.217773438 391.810546875 234.60546875 361.956054688 c 1,21,22
 266.629882812 367.467773438 266.629882812 367.467773438 296.659179688 362.3203125 c 0,23,24
 350.02734375 353.170898438 350.02734375 353.170898438 391.013671875 323.967773438 c 0,25,26
 411.39453125 309.447265625 411.39453125 309.447265625 427.754882812 291.421875 c 128,-1,27
 444.116210938 273.396484375 444.116210938 273.396484375 456.440429688 251.828125 c 0,28,29
 464.213867188 237.8359375 464.213867188 237.8359375 469.72265625 223.36328125 c 128,-1,30
 475.231445312 208.891601562 475.231445312 208.891601562 478.590820312 193.64453125 c 0,31,32
 485.34375 162.997070312 485.34375 162.997070312 482.2265625 131.825195312 c 0,33,34
 480.572265625 115.280273438 480.572265625 115.280273438 474.78515625 99.4365234375 c 128,-1,35
 468.999023438 83.591796875 468.999023438 83.591796875 459.34375 68.8408203125 c 0,36,37
 439.775390625 38.9453125 439.775390625 38.9453125 405.73828125 19.7998046875 c 0,38,39
 397.110351562 14.724609375 397.110351562 14.724609375 387.54296875 10.4736328125 c 128,-1,40
 377.974609375 6.22265625 377.974609375 6.22265625 368.172851562 3.126953125 c 0,41,42
 308.352539062 -15.7626953125 308.352539062 -15.7626953125 250.499023438 5.80078125 c 0,43,44
 194.383789062 26.7158203125 194.383789062 26.7158203125 155.162109375 73.0693359375 c 0,45,46
 116.78515625 118.422851562 116.78515625 118.422851562 98.8681640625 176.154296875 c 2,47,-1
 98.2685546875 178.088867188 l 1,48,-1
 98.0224609375 180.099609375 l 1,49,-1
 94.5283203125 208.758789062 l 1,0,-1
208.135742188 225.5546875 m 0,50,51
 218.26171875 175.393554688 218.26171875 175.393554688 252.961914062 143.197265625 c 0,52,53
 260.896484375 135.834960938 260.896484375 135.834960938 268.590820312 130.321289062 c 128,-1,54
 276.284179688 124.807617188 276.284179688 124.807617188 283.30859375 121.345703125 c 128,-1,55
 290.33203125 117.883789062 290.33203125 117.883789062 297.213867188 115.885742188 c 128,-1,56
 304.094726562 113.887695312 304.094726562 113.887695312 310.405273438 113.557617188 c 128,-1,57
 316.716796875 113.2265625 316.716796875 113.2265625 322.983398438 113.9765625 c 0,58,59
 329.975585938 115.215820312 329.975585938 115.215820312 335.413085938 117.163085938 c 128,-1,60
 340.850585938 119.110351562 340.850585938 119.110351562 346.767578125 122.438476562 c 0,61,62
 363.622070312 131.73828125 363.622070312 131.73828125 365.782226562 147.666992188 c 0,63,64
 368.436523438 167.245117188 368.436523438 167.245117188 353.940429688 192.612304688 c 0,65,66
 347.012695312 204.159179688 347.012695312 204.159179688 338.272460938 213.575195312 c 128,-1,67
 329.53125 222.991210938 329.53125 222.991210938 319.240234375 230.041992188 c 0,68,69
 316.770507812 231.734375 316.770507812 231.734375 314.215820312 233.244140625 c 128,-1,70
 311.661132812 234.752929688 311.661132812 234.752929688 308.978515625 236.102539062 c 128,-1,71
 306.294921875 237.451171875 306.294921875 237.451171875 303.502929688 238.619140625 c 128,-1,72
 300.711914062 239.786132812 300.711914062 239.786132812 297.786132812 240.787109375 c 128,-1,73
 294.860351562 241.788085938 294.860351562 241.788085938 291.801757812 242.609375 c 128,-1,74
 288.743164062 243.430664062 288.743164062 243.430664062 285.543945312 244.079101562 c 128,-1,75
 282.344726562 244.727539062 282.344726562 244.727539062 278.989257812 245.198242188 c 128,-1,76
 275.6328125 245.669921875 275.6328125 245.669921875 272.129882812 245.961914062 c 0,77,78
 246.142578125 248.126953125 246.142578125 248.126953125 216.427734375 230.602539062 c 2,79,-1
 215.756835938 230.20703125 l 1,80,-1
 215.059570312 229.858398438 l 2,81,82
 213.337890625 228.998046875 213.337890625 228.998046875 211.580078125 227.895507812 c 128,-1,83
 209.821289062 226.793945312 209.821289062 226.793945312 208.135742188 225.5546875 c 0,50,51
EndSplineSet
EndChar

StartChar: seven
Encoding: 55 55 26
Width: 579
VWidth: 942
Flags: W
LayerCount: 2
Fore
SplineSet
90.6435546875 575.590820312 m 2,0,1
 95.287109375 576.365234375 95.287109375 576.365234375 100.100585938 575.802734375 c 0,2,3
 101.068359375 575.690429688 101.068359375 575.690429688 101.5859375 575.638671875 c 2,4,-1
 105.85546875 575.290039062 l 1,5,-1
 471.946289062 575.290039062 l 2,6,7
 485.119140625 575.290039062 485.119140625 575.290039062 496.344726562 567.045898438 c 128,-1,8
 507.571289062 558.80078125 507.571289062 558.80078125 509.8046875 544.844726562 c 0,9,10
 510.165039062 542.588867188 510.165039062 542.588867188 510.354492188 540.00390625 c 128,-1,11
 510.543945312 537.418945312 510.543945312 537.418945312 510.561523438 534.833007812 c 128,-1,12
 510.579101562 532.247070312 510.579101562 532.247070312 510.465820312 529.517578125 c 128,-1,13
 510.352539062 526.7890625 510.352539062 526.7890625 510.124023438 524.203125 c 128,-1,14
 509.896484375 521.616210938 509.896484375 521.616210938 509.576171875 519.077148438 c 128,-1,15
 509.255859375 516.538085938 509.255859375 516.538085938 508.87890625 514.28515625 c 128,-1,16
 508.500976562 512.03125 508.500976562 512.03125 508.071289062 510.012695312 c 0,17,18
 507.060546875 502.7109375 507.060546875 502.7109375 505.354492188 497.341796875 c 128,-1,19
 503.647460938 491.97265625 503.647460938 491.97265625 501.260742188 487.8515625 c 128,-1,20
 498.873046875 483.73046875 498.873046875 483.73046875 494.870117188 478.7265625 c 0,21,22
 414.809570312 383.373046875 414.809570312 383.373046875 359.045898438 260.153320312 c 128,-1,23
 303.2734375 136.916015625 303.2734375 136.916015625 284.422851562 14.8359375 c 2,24,-1
 281.00390625 -7.3046875 l 1,25,-1
 222.006835938 1.544921875 l 1,26,-1
 163.741210938 10.5087890625 l 1,27,-1
 167.28515625 32.8369140625 l 2,28,29
 176.697265625 92.1298828125 176.697265625 92.1298828125 194.0859375 153.229492188 c 0,30,31
 199.872070312 173.55859375 199.872070312 173.55859375 206.388671875 193.629882812 c 128,-1,32
 212.905273438 213.700195312 212.905273438 213.700195312 220.15234375 233.510742188 c 128,-1,33
 227.3984375 253.321289062 227.3984375 253.321289062 235.374023438 272.870117188 c 0,34,35
 259.297851562 331.506835938 259.297851562 331.506835938 289.782226562 387.787109375 c 0,36,37
 299.475585938 405.682617188 299.475585938 405.682617188 309.995117188 423.202148438 c 128,-1,38
 320.514648438 440.720703125 320.514648438 440.720703125 331.107421875 456.690429688 c 1,39,-1
 182.56640625 456.690429688 l 1,40,-1
 182.56640625 405.169921875 l 1,41,-1
 63.966796875 405.169921875 l 1,42,-1
 63.966796875 534.389648438 l 2,43,44
 63.966796875 538.491210938 63.966796875 538.491210938 64.1044921875 541.421875 c 128,-1,45
 64.2412109375 544.352539062 64.2412109375 544.352539062 64.6533203125 547.231445312 c 0,46,47
 64.923828125 549.12890625 64.923828125 549.12890625 65.201171875 550.791015625 c 128,-1,48
 65.4775390625 552.453125 65.4775390625 552.453125 65.783203125 553.983398438 c 0,49,50
 68.287109375 566.498046875 68.287109375 566.498046875 79.5087890625 572.109375 c 2,51,-1
 90.6435546875 575.590820312 l 2,0,1
163.327148438 264.830078125 m 1,52,-1
 163.327148438 301.629882812 l 1,53,-1
 163.327148438 324.129882812 l 1,54,-1
 185.827148438 324.129882812 l 1,55,-1
 400.186523438 324.129882812 l 1,56,-1
 422.686523438 324.129882812 l 1,57,-1
 422.686523438 301.629882812 l 1,58,-1
 422.686523438 264.830078125 l 1,59,-1
 422.686523438 228.030273438 l 1,60,-1
 422.686523438 205.530273438 l 1,61,-1
 400.186523438 205.530273438 l 1,62,-1
 185.827148438 205.530273438 l 1,63,-1
 163.327148438 205.530273438 l 1,64,-1
 163.327148438 228.030273438 l 1,65,-1
 163.327148438 264.830078125 l 1,52,-1
EndSplineSet
EndChar

StartChar: eight
Encoding: 56 56 27
Width: 538
VWidth: 943
Flags: W
LayerCount: 2
Fore
SplineSet
213.372070312 279.610351562 m 5,0,-1
 204.540039062 305.5546875 l 5,1,-1
 247.139648438 320.056640625 l 5,2,-1
 258.915039062 285.463867188 l 5,3,-1
 213.372070312 279.610351562 l 5,0,-1
240.615234375 243.484375 m 5,4,5
 232.534179688 238.61328125 232.534179688 238.61328125 225.135742188 233.647460938 c 132,-1,6
 217.737304688 228.680664062 217.737304688 228.680664062 212.376953125 224.6328125 c 132,-1,7
 207.015625 220.584960938 207.015625 220.584960938 202.579101562 216.947265625 c 132,-1,8
 198.142578125 213.309570312 198.142578125 213.309570312 195.333007812 210.634765625 c 132,-1,9
 192.5234375 207.958984375 192.5234375 207.958984375 190.923828125 206.231445312 c 132,-1,10
 189.325195312 204.50390625 189.325195312 204.50390625 188.985351562 203.813476562 c 4,11,12
 181.875976562 183.37109375 181.875976562 183.37109375 198.1484375 156.588867188 c 4,13,14
 216.170898438 126.927734375 216.170898438 126.927734375 248.768554688 114.797851562 c 4,15,16
 260.920898438 109.793945312 260.920898438 109.793945312 275.162109375 109.438476562 c 4,17,18
 282.606445312 109.251953125 282.606445312 109.251953125 290.48046875 110.295898438 c 132,-1,19
 298.353515625 111.33984375 298.353515625 111.33984375 306.732421875 113.677734375 c 4,20,21
 321.145507812 117.700195312 321.145507812 117.700195312 334.118164062 129.971679688 c 132,-1,22
 347.22265625 142.368164062 347.22265625 142.368164062 354.6484375 163.159179688 c 6,23,-1
 354.826171875 163.534179688 l 6,24,25
 354.971679688 164.279296875 354.971679688 164.279296875 355.176757812 165.009765625 c 132,-1,26
 355.381835938 165.740234375 355.381835938 165.740234375 353.749023438 167.959960938 c 132,-1,27
 352.1171875 170.1796875 352.1171875 170.1796875 348.561523438 173.467773438 c 4,28,29
 331.80078125 188.971679688 331.80078125 188.971679688 284.223632812 218.045898438 c 6,30,-1
 240.615234375 243.484375 l 5,4,5
311.280273438 313.342773438 m 5,31,-1
 302.443359375 293.30078125 l 5,32,-1
 243.434570312 312.973632812 l 5,33,-1
 254.6484375 319.328125 l 1029,34,-1
299.84765625 345.901367188 m 5,35,36
 313.069335938 355.798828125 313.069335938 355.798828125 319.780273438 366.82421875 c 4,37,38
 329.239257812 382.364257812 329.239257812 382.364257812 328.92578125 396.485351562 c 4,39,40
 328.760742188 403.90234375 328.760742188 403.90234375 326.602539062 411.51953125 c 132,-1,41
 324.443359375 419.137695312 324.443359375 419.137695312 320.27734375 426.954101562 c 4,42,43
 314.96484375 436.073242188 314.96484375 436.073242188 309.090820312 442.657226562 c 132,-1,44
 303.215820312 449.2421875 303.215820312 449.2421875 296.729492188 453.619140625 c 132,-1,45
 290.244140625 457.99609375 290.244140625 457.99609375 282.205078125 461.069335938 c 4,46,47
 260.48046875 469.375976562 260.48046875 469.375976562 240.091796875 458.543945312 c 4,48,49
 237.953125 457.403320312 237.953125 457.403320312 235.572265625 455.715820312 c 132,-1,50
 233.192382812 454.02734375 233.192382812 454.02734375 230.817382812 451.990234375 c 132,-1,51
 228.443359375 449.952148438 228.443359375 449.952148438 226.091796875 447.568359375 c 132,-1,52
 223.740234375 445.18359375 223.740234375 445.18359375 221.682617188 442.700195312 c 4,53,54
 215.555664062 433.907226562 215.555664062 433.907226562 212.901367188 427.56640625 c 132,-1,55
 210.247070312 421.225585938 210.247070312 421.225585938 210.150390625 417.944335938 c 4,56,57
 210.09375 416.029296875 210.09375 416.029296875 210.305664062 414.418945312 c 132,-1,58
 210.518554688 412.809570312 210.518554688 412.809570312 211.08984375 411.158203125 c 132,-1,59
 211.662109375 409.5078125 211.662109375 409.5078125 212.66015625 407.85546875 c 132,-1,60
 213.659179688 406.203125 213.659179688 406.203125 215.166015625 404.368164062 c 4,61,62
 218.845703125 399.888671875 218.845703125 399.888671875 227.37109375 392.717773438 c 132,-1,63
 235.895507812 385.547851562 235.895507812 385.547851562 247.66796875 377.428710938 c 6,64,-1
 258.432617188 370.251953125 l 6,65,66
 269.528320312 363.072265625 269.528320312 363.072265625 299.84765625 345.901367188 c 5,35,36
138.463867188 314.538085938 m 5,67,68
 121.657226562 331.717773438 121.657226562 331.717773438 110.666015625 350.791015625 c 4,69,70
 91.716796875 383.672851562 91.716796875 383.672851562 93.888671875 427.088867188 c 132,-1,71
 96.0546875 470.419921875 96.0546875 470.419921875 126.510742188 513.478515625 c 6,72,-1
 127.616210938 515.041015625 l 5,73,-1
 128.969726562 516.395507812 l 5,74,-1
 130.0078125 517.43359375 l 6,75,76
 133.21875 521.340820312 133.21875 521.340820312 136.600585938 525.063476562 c 132,-1,77
 139.982421875 528.786132812 139.982421875 528.786132812 143.440429688 532.223632812 c 132,-1,78
 146.897460938 535.661132812 146.897460938 535.661132812 150.428710938 538.806640625 c 132,-1,79
 153.9609375 541.953125 153.9609375 541.953125 157.448242188 544.692382812 c 4,80,81
 199.653320312 579.510742188 199.653320312 579.510742188 249.69140625 582.739257812 c 4,82,83
 298.60546875 585.89453125 298.60546875 585.89453125 338.588867188 565.63671875 c 4,84,85
 377.573242188 545.293945312 377.573242188 545.293945312 405.173828125 511.973632812 c 4,86,87
 412.149414062 503.447265625 412.149414062 503.447265625 418.064453125 494.334960938 c 132,-1,88
 423.978515625 485.223632812 423.978515625 485.223632812 428.799804688 475.583007812 c 132,-1,89
 433.62109375 465.942382812 433.62109375 465.942382812 437.34375 455.772460938 c 132,-1,90
 441.067382812 445.602539062 441.067382812 445.602539062 443.659179688 434.977539062 c 4,91,92
 454.307617188 391.317382812 454.307617188 391.317382812 440.130859375 344.059570312 c 4,93,94
 429.587890625 308.9140625 429.587890625 308.9140625 402.807617188 279.998046875 c 5,95,96
 411.696289062 272.845703125 411.696289062 272.845703125 421.696289062 263.30078125 c 4,97,98
 432.6640625 252.831054688 432.6640625 252.831054688 441.243164062 242.73828125 c 4,99,100
 442.828125 240.874023438 442.828125 240.874023438 444.359375 238.924804688 c 132,-1,101
 445.891601562 236.975585938 445.891601562 236.975585938 447.357421875 234.958984375 c 132,-1,102
 448.823242188 232.942382812 448.823242188 232.942382812 450.232421875 230.852539062 c 132,-1,103
 451.641601562 228.762695312 451.641601562 228.762695312 452.994140625 226.596679688 c 132,-1,104
 454.346679688 224.431640625 454.346679688 224.431640625 455.637695312 222.206054688 c 132,-1,105
 456.928710938 219.98046875 456.928710938 219.98046875 458.170898438 217.672851562 c 4,106,107
 465.793945312 203.515625 465.793945312 203.515625 469.685546875 189.614257812 c 4,108,109
 471.8046875 182.048828125 471.8046875 182.048828125 472.676757812 173.907226562 c 132,-1,110
 473.549804688 165.766601562 473.549804688 165.766601562 473.268554688 157.060546875 c 4,111,112
 472.701171875 139.466796875 472.701171875 139.466796875 465.821289062 121.6875 c 4,113,114
 449.985351562 78.0908203125 449.985351562 78.0908203125 418.443359375 48.099609375 c 132,-1,115
 386.713867188 17.9306640625 386.713867188 17.9306640625 349.703125 5.76953125 c 4,116,117
 314.663085938 -5.7431640625 314.663085938 -5.7431640625 277.177734375 -7.7421875 c 4,118,119
 237.891601562 -9.837890625 237.891601562 -9.837890625 206.231445312 4.03125 c 4,120,121
 136.017578125 30.8603515625 136.017578125 30.8603515625 93.65625 97.9306640625 c 4,122,123
 49.0478515625 168.561523438 49.0478515625 168.561523438 77.8330078125 245.3203125 c 4,124,125
 80.2255859375 251.600585938 80.2255859375 251.600585938 83.4892578125 257.625976562 c 132,-1,126
 86.751953125 263.65234375 86.751953125 263.65234375 90.8017578125 269.305664062 c 132,-1,127
 94.8505859375 274.959960938 94.8505859375 274.959960938 99.5712890625 280.259765625 c 132,-1,128
 104.29296875 285.559570312 104.29296875 285.559570312 109.805664062 290.668945312 c 4,129,130
 121.840820312 301.822265625 121.840820312 301.822265625 138.463867188 314.538085938 c 5,67,68
EndSplineSet
EndChar

StartChar: nine
Encoding: 57 57 28
Width: 534
VWidth: 943
Flags: W
LayerCount: 2
Fore
SplineSet
440.266211996 334.418381071 m 1,0,-1
 459.118855504 313.470422923 l 1,1,-1
 474.538675081 296.336818554 l 1,2,-1
 457.037337153 281.335671759 l 1,3,-1
 443.868100189 270.047608583 l 1,4,-1
 440.026805494 266.948257531 l 1,5,6
 438.866432882 260.809881227 438.866432882 260.809881227 437.716984147 255.062027444 c 0,7,8
 418.703351408 171.999678443 418.703351408 171.999678443 351.007344035 105.292891082 c 0,9,10
 284.023312263 39.2866526193 284.023312263 39.2866526193 171.973998434 5.47868767647 c 2,11,-1
 150.450837388 -1.01536614 l 1,12,-1
 143.939110497 20.5024545975 l 1,13,-1
 122.77993081 90.4223764725 l 1,14,-1
 116.311485989 111.797172813 l 1,15,-1
 137.637233726 118.425534636 l 2,16,17
 231.930085615 147.733165364 231.930085615 147.733165364 280.073019663 202.144925451 c 1,18,19
 223.057492782 200.334721218 223.057492782 200.334721218 174.723622839 228.911270794 c 0,20,21
 105.241913372 269.991744714 105.241913372 269.991744714 75.5576555408 341.642052789 c 0,22,23
 69.7659038598 356.912334194 69.7659038598 356.912334194 66.3460744398 371.971747343 c 128,-1,24
 62.9262450198 387.031160492 62.9262450198 387.031160492 61.6298828555 402.841716702 c 0,25,26
 59.0194282539 434.691479787 59.0194282539 434.691479787 66.8718179791 465.051978979 c 0,27,28
 70.9936975141 480.991663448 70.9936975141 480.991663448 78.9552579925 495.68005568 c 128,-1,29
 86.916818471 510.368447911 86.916818471 510.368447911 98.4234718928 523.480522343 c 0,30,31
 104.267658229 530.14009602 104.267658229 530.14009602 111.001173073 536.111061759 c 128,-1,32
 117.734687916 542.082027497 117.734687916 542.082027497 125.194972065 547.246300597 c 128,-1,33
 132.655256214 552.410573697 132.655256214 552.410573697 140.795395298 556.806944242 c 128,-1,34
 148.935534381 561.203314786 148.935534381 561.203314786 157.745686078 564.831072848 c 0,35,36
 177.745600879 573.251148711 177.745600879 573.251148711 198.705037679 576.395842897 c 0,37,38
 235.339133563 582.675592682 235.339133563 582.675592682 271.211453333 573.707232758 c 0,39,40
 306.695890252 564.83695439 306.695890252 564.83695439 335.048328 544.35957454 c 0,41,42
 348.774520566 534.446453081 348.774520566 534.446453081 361.186216603 522.41470343 c 128,-1,43
 373.59791264 510.382953779 373.59791264 510.382953779 384.647101104 496.320107958 c 0,44,45
 406.73838227 468.204513315 406.73838227 468.204513315 420.788249109 435.086285232 c 0,46,47
 427.730117765 418.723497094 427.730117765 418.723497094 432.701146197 401.821572782 c 128,-1,48
 437.672174629 384.919648471 437.672174629 384.919648471 440.651167709 367.540607635 c 2,49,-1
 441.021340826 365.381067969 l 1,50,-1
 440.967920953 363.190683067 l 1,51,-1
 440.266211996 334.418381071 l 1,0,-1
325.507915042 333.780845028 m 0,52,53
 324.680877832 344.507245848 324.680877832 344.507245848 322.873000743 354.332791274 c 128,-1,54
 321.065123653 364.1583367 321.065123653 364.1583367 318.28349441 373.170185502 c 128,-1,55
 315.501865166 382.182034305 315.501865166 382.182034305 311.667211811 390.58433028 c 128,-1,56
 307.832558456 398.986626255 307.832558456 398.986626255 303.034162107 406.745537456 c 128,-1,57
 298.235765759 414.504448657 298.235765759 414.504448657 292.312161066 421.945109598 c 0,58,59
 275.966740538 442.476650511 275.966740538 442.476650511 260.103437283 451.37018452 c 128,-1,60
 244.240134027 460.263718529 244.240134027 460.263718529 227.344782423 459.918945312 c 0,61,62
 214.775480942 459.918945312 214.775480942 459.918945312 202.250701493 455.04848499 c 0,63,64
 184.848144527 448.087585351 184.848144527 448.087585351 180.136646778 432.2890337 c 0,65,66
 174.539887977 413.523677333 174.539887977 413.523677333 185.393673644 386.027061872 c 0,67,68
 190.79739196 373.161273984 190.79739196 373.161273984 198.350791552 362.62721248 c 128,-1,69
 205.904191144 352.093150976 205.904191144 352.093150976 215.754305265 343.712650013 c 128,-1,70
 225.604419386 335.33214905 225.604419386 335.33214905 237.889276594 328.995766356 c 0,71,72
 246.486739773 324.561297481 246.486739773 324.561297481 255.245752805 322.367825723 c 128,-1,73
 264.004765837 320.174353965 264.004765837 320.174353965 273.752030581 320.165502135 c 128,-1,74
 283.499295325 320.156650306 283.499295325 320.156650306 294.305045537 322.694729792 c 128,-1,75
 305.110795748 325.232809279 305.110795748 325.232809279 317.21088702 330.360033013 c 0,76,77
 319.469227795 331.207098075 319.469227795 331.207098075 321.775533976 332.170883851 c 128,-1,78
 324.081840157 333.134669628 324.081840157 333.134669628 325.507915042 333.780845028 c 0,52,53
EndSplineSet
EndChar

StartChar: colon
Encoding: 58 58 29
Width: 330
VWidth: 940
Flags: W
LayerCount: 2
Fore
SplineSet
164 166.259765625 m 1,0,-1
 200.799804688 166.259765625 l 1,1,-1
 223.299804688 166.259765625 l 1,2,-1
 223.299804688 143.759765625 l 1,3,-1
 223.299804688 54.51953125 l 1,4,-1
 223.299804688 32.01953125 l 1,5,-1
 200.799804688 32.01953125 l 1,6,-1
 164 32.01953125 l 1,7,-1
 127.200195312 32.01953125 l 1,8,-1
 104.700195312 32.01953125 l 1,9,-1
 104.700195312 54.51953125 l 1,10,-1
 104.700195312 143.759765625 l 1,11,-1
 104.700195312 166.259765625 l 1,12,-1
 127.200195312 166.259765625 l 1,13,-1
 164 166.259765625 l 1,0,-1
164 344.8203125 m 1,14,-1
 127.200195312 344.8203125 l 1,15,-1
 104.700195312 344.8203125 l 1,16,-1
 104.700195312 367.3203125 l 1,17,-1
 104.700195312 457.48046875 l 1,18,-1
 104.700195312 479.98046875 l 1,19,-1
 127.200195312 479.98046875 l 1,20,-1
 164 479.98046875 l 1,21,-1
 200.799804688 479.98046875 l 1,22,-1
 223.299804688 479.98046875 l 1,23,-1
 223.299804688 457.48046875 l 1,24,-1
 223.299804688 367.3203125 l 1,25,-1
 223.299804688 344.8203125 l 1,26,-1
 200.799804688 344.8203125 l 1,27,-1
 164 344.8203125 l 1,14,-1
EndSplineSet
EndChar

StartChar: semicolon
Encoding: 59 59 30
Width: 326
VWidth: 932
Flags: W
LayerCount: 2
Fore
SplineSet
110.38671875 -147.875 m 5,0,-1
 76.5869140625 -134.171875 l 5,1,-1
 55.4375 -125.59765625 l 5,2,-1
 64.310546875 -104.572265625 l 6,3,4
 104.860351562 -8.486328125 104.860351562 -8.486328125 104.860351562 96.4404296875 c 6,5,-1
 104.860351562 118.940429688 l 5,6,-1
 127.360351562 118.940429688 l 5,7,-1
 164.16015625 118.940429688 l 5,8,-1
 200.959960938 118.940429688 l 5,9,-1
 223.459960938 118.940429688 l 5,10,-1
 223.459960938 96.4404296875 l 6,11,12
 223.459960938 -31.3330078125 223.459960938 -31.3330078125 173.89453125 -150.481445312 c 6,13,-1
 165.130859375 -171.546875 l 5,14,-1
 144.189453125 -162.491210938 l 5,15,-1
 110.38671875 -147.875 l 5,0,-1
164.16015625 348.099609375 m 5,16,-1
 127.360351562 348.099609375 l 5,17,-1
 104.860351562 348.099609375 l 5,18,-1
 104.860351562 370.599609375 l 5,19,-1
 104.860351562 459.83984375 l 5,20,-1
 104.860351562 482.33984375 l 5,21,-1
 127.360351562 482.33984375 l 5,22,-1
 164.16015625 482.33984375 l 5,23,-1
 200.959960938 482.33984375 l 5,24,-1
 223.459960938 482.33984375 l 5,25,-1
 223.459960938 459.83984375 l 5,26,-1
 223.459960938 370.599609375 l 5,27,-1
 223.459960938 348.099609375 l 5,28,-1
 200.959960938 348.099609375 l 5,29,-1
 164.16015625 348.099609375 l 5,16,-1
EndSplineSet
EndChar

StartChar: less
Encoding: 60 60 31
Width: 430
VWidth: 942
Flags: W
LayerCount: 2
Fore
SplineSet
288.212820136 126.873036103 m 1,0,-1
 257.980337513 106.719020137 l 1,1,-1
 239.229765032 94.219241609 l 1,2,-1
 226.759187254 112.98924751 l 1,3,-1
 137.593555656 247.196295581 l 2,4,5
 115.227969092 280 115.227969092 280 137.593555656 312.803704419 c 2,6,-1
 226.759187254 447.01075249 l 1,7,-1
 239.229765032 465.780758391 l 1,8,-1
 257.980337513 453.280979863 l 1,9,-1
 288.212820136 433.126963897 l 1,10,-1
 319.363095638 412.970216784 l 1,11,-1
 338.549031821 400.555364667 l 1,12,-1
 325.837600647 381.56462435 l 1,13,-1
 257.855430886 280 l 1,14,-1
 325.837600647 178.43537565 l 1,15,-1
 338.549031821 159.444635333 l 1,16,-1
 319.363095638 147.029783216 l 1,17,-1
 288.212820136 126.873036103 l 1,0,-1
EndSplineSet
EndChar

StartChar: equal
Encoding: 61 61 32
Width: 636
VWidth: 943
Flags: W
LayerCount: 2
Fore
SplineSet
502.5 186.83984375 m 1,0,-1
 502.5 150.040039062 l 1,1,-1
 502.5 127.540039062 l 1,2,-1
 480 127.540039062 l 1,3,-1
 158 127.540039062 l 1,4,-1
 135.5 127.540039062 l 1,5,-1
 135.5 150.040039062 l 1,6,-1
 135.5 186.83984375 l 1,7,-1
 135.5 223.639648438 l 1,8,-1
 135.5 246.139648438 l 1,9,-1
 158 246.139648438 l 1,10,-1
 480 246.139648438 l 1,11,-1
 502.5 246.139648438 l 1,12,-1
 502.5 223.639648438 l 1,13,-1
 502.5 186.83984375 l 1,0,-1
502.5 391.16015625 m 1,14,-1
 502.5 354.360351562 l 1,15,-1
 502.5 331.860351562 l 1,16,-1
 480 331.860351562 l 1,17,-1
 158 331.860351562 l 1,18,-1
 135.5 331.860351562 l 1,19,-1
 135.5 354.360351562 l 1,20,-1
 135.5 391.16015625 l 1,21,-1
 135.5 427.959960938 l 1,22,-1
 135.5 450.459960938 l 1,23,-1
 158 450.459960938 l 1,24,-1
 480 450.459960938 l 1,25,-1
 502.5 450.459960938 l 1,26,-1
 502.5 427.959960938 l 1,27,-1
 502.5 391.16015625 l 1,14,-1
EndSplineSet
EndChar

StartChar: greater
Encoding: 62 62 33
Width: 420
VWidth: 942
Flags: W
LayerCount: 2
Fore
SplineSet
161.71951038 433.041490445 m 1,0,-1
 192.078954867 453.280794581 l 1,1,-1
 210.741018603 465.721970305 l 1,2,-1
 223.241198772 447.099377252 l 1,3,-1
 313.554601632 312.551736664 l 2,4,5
 334.268914808 280 334.268914808 280 313.554601632 247.448263336 c 2,6,-1
 223.241198772 112.900622748 l 1,7,-1
 210.741018603 94.2780296953 l 1,8,-1
 192.078954867 106.719205419 l 1,9,-1
 161.719440897 126.958555877 l 1,10,-1
 131.359089335 147.198790252 l 1,11,-1
 112.707639354 159.63309024 l 1,12,-1
 125.07230141 178.330778192 l 1,13,-1
 192.305510795 280 l 1,14,-1
 125.07230141 381.669221808 l 1,15,-1
 112.707639354 400.36690976 l 1,16,-1
 131.359089335 412.801209748 l 1,17,-1
 161.71951038 433.041490445 l 1,0,-1
EndSplineSet
EndChar

StartChar: question
Encoding: 63 63 34
Width: 546
VWidth: 951
Flags: W
LayerCount: 2
Fore
SplineSet
60.0615234375 656.365234375 m 1,0,-1
 36.0244140625 685.024414062 l 1,1,-1
 21.576171875 702.250976562 l 1,2,-1
 38.7919921875 716.711914062 l 2,3,4
 112.96875 779.020507812 112.96875 779.020507812 191.33984375 788.063476562 c 0,5,6
 247.782226562 795.118164062 247.782226562 795.118164062 298.594726562 778.349609375 c 0,7,8
 315.349609375 772.821289062 315.349609375 772.821289062 330.556640625 765.385742188 c 128,-1,9
 345.762695312 757.94921875 345.762695312 757.94921875 359.485351562 748.526367188 c 128,-1,10
 373.20703125 739.102539062 373.20703125 739.102539062 385.1796875 727.814453125 c 0,11,12
 420.24609375 694.750976562 420.24609375 694.750976562 442.72265625 650.295898438 c 128,-1,13
 465.198242188 605.84375 465.198242188 605.84375 471.197265625 556.858398438 c 2,14,-1
 471.262695312 556.323242188 l 2,15,16
 472.26171875 542.844726562 472.26171875 542.844726562 472.620117188 529.791015625 c 128,-1,17
 472.979492188 516.737304688 472.979492188 516.737304688 472.740234375 503.57421875 c 0,18,19
 472.568359375 494.131835938 472.568359375 494.131835938 471.536132812 484.677734375 c 128,-1,20
 470.502929688 475.224609375 470.502929688 475.224609375 468.625976562 465.836914062 c 128,-1,21
 466.748046875 456.44921875 466.748046875 456.44921875 464.028320312 447.099609375 c 0,22,23
 456.30078125 420.53125 456.30078125 420.53125 445.666015625 395.396484375 c 0,24,25
 439.958984375 381.90625 439.958984375 381.90625 432.194335938 369.224609375 c 128,-1,26
 424.4296875 356.54296875 424.4296875 356.54296875 414.690429688 344.752929688 c 0,27,28
 405.146484375 333.19921875 405.146484375 333.19921875 394.546875 322.978515625 c 128,-1,29
 383.947265625 312.7578125 383.947265625 312.7578125 372.328125 303.916992188 c 0,30,31
 360.459960938 294.88671875 360.459960938 294.88671875 346.727539062 287.2578125 c 128,-1,32
 332.995117188 279.62890625 332.995117188 279.62890625 317.438476562 273.356445312 c 0,33,34
 306.444335938 268.922851562 306.444335938 268.922851562 294.630859375 265.486328125 c 128,-1,35
 282.81640625 262.049804688 282.81640625 262.049804688 270.803710938 259.716796875 c 1,36,-1
 270.803710938 223.84375 l 1,37,-1
 270.803710938 201.34375 l 1,38,-1
 248.303710938 201.34375 l 1,39,-1
 211.50390625 201.34375 l 1,40,-1
 174.704101562 201.34375 l 1,41,-1
 152.204101562 201.34375 l 1,42,-1
 152.204101562 223.84375 l 1,43,-1
 152.204101562 313.083007812 l 1,44,-1
 152.204101562 348.963867188 l 1,45,-1
 152.204101562 370.89453125 l 1,46,-1
 174.126953125 371.456054688 l 1,47,-1
 210.0703125 372.377929688 l 2,48,49
 251.318359375 373.203125 251.318359375 373.203125 281.00390625 387.243164062 c 0,50,51
 309.665039062 400.798828125 309.665039062 400.798828125 324.646484375 422.1484375 c 0,52,53
 340.870117188 445.266601562 340.870117188 445.266601562 348.110351562 470.60546875 c 0,54,55
 355.431640625 496.229492188 355.431640625 496.229492188 354.607421875 524.209960938 c 0,56,57
 353.798828125 588.11328125 353.798828125 588.11328125 312.666992188 630.443359375 c 0,58,59
 272.044921875 672.249023438 272.044921875 672.249023438 216.446289062 671.466796875 c 0,60,61
 168.368164062 670.677734375 168.368164062 670.677734375 115.61328125 626.166992188 c 2,62,-1
 98.642578125 611.84765625 l 1,63,-1
 84.1005859375 628.627929688 l 1,64,-1
 60.0615234375 656.365234375 l 1,0,-1
211.50390625 134.18359375 m 1,65,-1
 248.303710938 134.18359375 l 1,66,-1
 270.803710938 134.18359375 l 1,67,-1
 270.803710938 111.68359375 l 1,68,-1
 270.803710938 22.443359375 l 1,69,-1
 270.803710938 -0.056640625 l 1,70,-1
 248.303710938 -0.056640625 l 1,71,-1
 211.50390625 -0.056640625 l 1,72,-1
 174.704101562 -0.056640625 l 1,73,-1
 152.204101562 -0.056640625 l 1,74,-1
 152.204101562 22.443359375 l 1,75,-1
 152.204101562 111.68359375 l 1,76,-1
 152.204101562 134.18359375 l 1,77,-1
 174.704101562 134.18359375 l 1,78,-1
 211.50390625 134.18359375 l 1,65,-1
EndSplineSet
EndChar

StartChar: at
Encoding: 64 64 35
Width: 844
VWidth: 940
Flags: W
LayerCount: 2
Fore
SplineSet
534.648965084 322.850102857 m 1,0,-1
 508.889199459 301.689946607 l 1,1,-1
 491.86340053 287.704238396 l 1,2,-1
 477.524148322 304.433365972 l 2,3,4
 473.233196049 309.439476957 473.233196049 309.439476957 468.974599663 312.988432835 c 0,5,6
 457.725552338 322.786089585 457.725552338 322.786089585 445.718402823 326.681497736 c 128,-1,7
 433.711253309 330.576905887 433.711253309 330.576905887 418.75849042 329.315958519 c 0,8,9
 390.256201806 326.911606467 390.256201806 326.911606467 371.5334851 305.141371404 c 0,10,11
 359.87329088 289.002013922 359.87329088 289.002013922 355.307228422 275.623548664 c 128,-1,12
 350.741165963 262.245083406 350.741165963 262.245083406 351.859230277 250.903699455 c 0,13,14
 354.273703624 226.411844237 354.273703624 226.411844237 375.220073181 204.410101558 c 0,15,16
 391.04000741 189.566160599 391.04000741 189.566160599 408.601854462 183.473041964 c 0,17,18
 416.723234611 180.655664431 416.723234611 180.655664431 425.110387887 180.414016648 c 128,-1,19
 433.497541164 180.172368864 433.497541164 180.172368864 443.516710967 182.640525138 c 0,20,21
 462.827338735 187.556323576 462.827338735 187.556323576 480.537363049 205.266347889 c 2,22,-1
 496.170623409 220.899608249 l 1,23,-1
 512.075673902 205.542947551 l 1,24,-1
 538.898298043 179.645139924 l 1,25,-1
 564.797597889 153.745840076 l 1,26,-1
 580.512309582 138.031128383 l 1,27,-1
 564.9927739 122.123635197 l 2,28,29
 544.501204845 101.119817699 544.501204845 101.119817699 520.71575116 87.453367501 c 128,-1,30
 496.930297476 73.7869173032 496.930297476 73.7869173032 470.416689838 68.0116043034 c 0,31,32
 444.857819477 62.353549065 444.857819477 62.353549065 419.936414502 63.2816455003 c 128,-1,33
 395.015009527 64.2097419357 395.015009527 64.2097419357 372.032336203 71.8704461063 c 0,34,35
 327.313956303 86.7765727391 327.313956303 86.7765727391 292.178874532 119.845078566 c 0,36,37
 259.903955695 152.118892288 259.903955695 152.118892288 244.397062356 194.505790743 c 0,38,39
 228.599715742 237.685502934 228.599715742 237.685502934 236.397612067 287.589390814 c 0,40,41
 239.020734671 304.378860621 239.020734671 304.378860621 244.944942137 320.534088335 c 128,-1,42
 250.869149602 336.689316049 250.869149602 336.689316049 259.777519042 351.660043696 c 128,-1,43
 268.685888481 366.630771342 268.685888481 366.630771342 280.503283521 380.473821214 c 0,44,45
 330.615811741 441.026644178 330.615811741 441.026644178 409.093263797 447.304307207 c 128,-1,46
 487.423764258 453.571323726 487.423764258 453.571323726 546.299463215 403.105801191 c 0,47,48
 557.815059529 392.636976249 557.815059529 392.636976249 568.012392528 380.400393131 c 2,49,-1
 582.416716972 363.11550959 l 1,50,-1
 565.131808368 348.711215221 l 1,51,-1
 538.314666422 326.36328064 l 1,52,-1
 536.274275409 324.323611378 l 1,53,-1
 535.497580977 323.547191689 l 1,54,-1
 534.648965084 322.850102857 l 1,0,-1
523.127929688 409.65625 m 1,55,-1
 559.927734375 409.65625 l 1,56,-1
 582.427734375 409.65625 l 1,57,-1
 582.427734375 387.15625 l 1,58,-1
 582.427734375 164.304414027 l 1,59,60
 590.050788729 161.591599725 590.050788729 161.591599725 599.354647338 160.691287973 c 0,61,62
 606.231585271 160.025823427 606.231585271 160.025823427 618.271652338 167.249735867 c 0,63,64
 631.540539144 175.210927106 631.540539144 175.210927106 641.564072648 193.110256931 c 0,65,66
 670.103741777 242.636339644 670.103741777 242.636339644 671.760128976 293.133741837 c 0,67,68
 672.040591916 301.688456982 672.040591916 301.688456982 671.720569695 309.95597451 c 128,-1,69
 671.400547475 318.223492038 671.400547475 318.223492038 670.479804417 326.200214203 c 128,-1,70
 669.559061359 334.176936367 669.559061359 334.176936367 668.048261052 341.878176938 c 128,-1,71
 666.537460745 349.579417508 666.537460745 349.579417508 664.426887713 357.034918196 c 128,-1,72
 662.316314681 364.490418884 662.316314681 364.490418884 659.626744299 371.679931369 c 128,-1,73
 656.937173916 378.869443854 656.937173916 378.869443854 653.649410906 385.856049308 c 0,74,75
 633.532928288 428.603352441 633.532928288 428.603352441 595.485246224 462.423015678 c 0,76,77
 581.307886111 475.311607787 581.307886111 475.311607787 566.162855755 485.620377629 c 128,-1,78
 551.017825399 495.92914747 551.017825399 495.92914747 534.433002707 504.008956032 c 128,-1,79
 518.04382333 511.993222156 518.04382333 511.993222156 500.629916621 517.343289418 c 128,-1,80
 483.216009913 522.69335668 483.216009913 522.69335668 464.639867139 525.437809126 c 0,81,82
 427.699778266 530.89434112 427.699778266 530.89434112 390.748635806 524.596306779 c 0,83,84
 381.721273598 523.057482564 381.721273598 523.057482564 372.605746965 520.55930356 c 128,-1,85
 363.490220331 518.061124557 363.490220331 518.061124557 354.193386608 514.568959206 c 128,-1,86
 344.896552885 511.076793855 344.896552885 511.076793855 335.416025688 506.546310251 c 128,-1,87
 325.935498492 502.015826647 325.935498492 502.015826647 316.344029389 496.47402861 c 0,88,89
 277.989989587 474.314198187 277.989989587 474.314198187 244.535066843 437.428281487 c 0,90,91
 194.892201055 381.793675068 194.892201055 381.793675068 178.769878655 318.575327806 c 0,92,93
 170.640439461 286.70020547 170.640439461 286.70020547 169.900351606 256.99486474 c 128,-1,94
 169.16026375 227.289524011 169.16026375 227.289524011 175.652121132 200.02005383 c 0,95,96
 182.231772843 172.003138035 182.231772843 172.003138035 194.753359441 145.241013152 c 128,-1,97
 207.274946039 118.478888269 207.274946039 118.478888269 225.627920634 93.2964994932 c 0,98,99
 247.043679753 65.0273701089 247.043679753 65.0273701089 274.190752282 41.7589735311 c 0,100,101
 283.201825 34.0351101559 283.201825 34.0351101559 292.621554973 27.1365475225 c 128,-1,102
 302.041284947 20.2379848891 302.041284947 20.2379848891 311.859373517 14.1679366502 c 128,-1,103
 321.677462088 8.09788841128 321.677462088 8.09788841128 331.931724381 2.82850072885 c 0,104,105
 338.006555231 -0.293369443175 338.006555231 -0.293369443175 344.242610394 -3.07527577375 c 128,-1,106
 350.478665557 -5.85718210433 350.478665557 -5.85718210433 356.899632136 -8.30798507948 c 128,-1,107
 363.320598716 -10.7587880546 363.320598716 -10.7587880546 369.914945972 -12.8718804817 c 128,-1,108
 376.509293227 -14.9849729087 376.509293227 -14.9849729087 383.29598587 -16.7657801457 c 128,-1,109
 390.082678513 -18.5465873828 390.082678513 -18.5465873828 397.054908196 -19.991937365 c 0,110,111
 431.843840256 -27.2044307101 431.843840256 -27.2044307101 467.03482979 -25.0846542533 c 0,112,113
 501.7654419 -22.9926092483 501.7654419 -22.9926092483 539.478343775 -8.58500873237 c 0,114,115
 577.429402496 5.91301630014 577.429402496 5.91301630014 612.598335416 32.5032279972 c 2,116,-1
 629.611639686 45.3664946544 l 1,117,118
 614.359835388 41.9932722435 614.359835388 41.9932722435 599.183304554 42.1983428469 c 0,119,120
 559.849612259 42.7298334821 559.849612259 42.7298334821 524.576600736 60.9007444298 c 0,121,122
 496.912819562 75.8851906056 496.912819562 75.8851906056 480.410167509 103.200341625 c 0,123,124
 474.925810905 112.277371331 474.925810905 112.277371331 471.224878715 122.146240099 c 128,-1,125
 467.523946525 132.015108868 467.523946525 132.015108868 465.675547482 142.404637776 c 128,-1,126
 463.827148438 152.794166684 463.827148438 152.794166684 463.827148438 163.595703125 c 2,127,-1
 463.827148438 387.15625 l 1,128,-1
 463.827148438 409.65625 l 1,129,-1
 486.327148438 409.65625 l 1,130,-1
 523.127929688 409.65625 l 1,55,-1
631.301227585 45.7511356477 m 1,131,-1
 644.364378779 27.789736076 l 1,132,-1
 666.347404357 -2.4361948911 l 1,133,-1
 688.327506683 -31.7446182985 l 1,134,-1
 701.941607085 -49.8977557575 l 1,135,-1
 683.674057754 -63.3579478366 l 2,136,137
 609.856174118 -117.749638514 609.856174118 -117.749638514 527.84220128 -135.324801546 c 0,138,139
 445.621394809 -152.943026292 445.621394809 -152.943026292 372.162251606 -135.68795135 c 0,140,141
 299.789352812 -118.68699698 299.789352812 -118.68699698 237.150143761 -77.8989385161 c 128,-1,142
 174.323074138 -36.9885530285 174.323074138 -36.9885530285 130.566842287 23.2972833204 c 0,143,144
 79.0370402384 92.3284349218 79.0370402384 92.3284349218 60.5016339251 174.272534284 c 0,145,146
 41.8371568091 256.790816428 41.8371568091 256.790816428 64.7665799437 348.020692972 c 128,-1,147
 87.7254332666 439.366627122 87.7254332666 439.366627122 155.806473789 516.202345385 c 0,148,149
 184.892642797 548.681600611 184.892642797 548.681600611 217.337224867 573.198899714 c 128,-1,150
 249.781806937 597.716198818 249.781806937 597.716198818 285.583582738 614.145909227 c 0,151,152
 357.364010743 647.085456244 357.364010743 647.085456244 427.3063927 646.093440408 c 0,153,154
 496.179264912 645.116608488 496.179264912 645.116608488 559.724513203 620.676048551 c 0,155,156
 591.497937901 608.455460676 591.497937901 608.455460676 620.135265196 591.076560612 c 128,-1,157
 648.772592491 573.697660547 648.772592491 573.697660547 674.242534078 551.166838332 c 0,158,159
 730.116513612 501.174823199 730.116513612 501.174823199 761.04215545 435.887704465 c 0,160,161
 792.343183462 369.806936045 792.343183462 369.806936045 789.877118784 289.405897419 c 0,162,163
 787.403329658 208.754069273 787.403329658 208.754069273 744.111358523 133.977977664 c 0,164,165
 735.942398769 119.682117446 735.942398769 119.682117446 726.079070292 107.349151997 c 128,-1,166
 716.215741815 95.016186549 716.215741815 95.016186549 704.574266683 84.6464069502 c 128,-1,167
 692.932791551 74.2766273513 692.932791551 74.2766273513 679.791049326 66.2166712599 c 0,168,169
 655.76097508 51.4781168907 655.76097508 51.4781168907 631.301227585 45.7511356477 c 1,131,-1
EndSplineSet
EndChar

StartChar: A
Encoding: 65 65 36
Width: 817
VWidth: 949
Flags: W
LayerCount: 2
Fore
SplineSet
142.70703125 40.3251953125 m 5,0,-1
 108.907226562 54.0283203125 l 5,1,-1
 87.6357421875 62.6513671875 l 5,2,-1
 96.681640625 83.7470703125 l 5,3,-1
 354.171875 689.251953125 l 6,4,5
 361 705 361 705 374.67578125 714.390625 c 4,6,7
 389 724 389 724 405.21875 724.736328125 c 4,8,9
 421 725 421 725 435.307617188 718.401367188 c 4,10,11
 454.111328125 709.950195312 454.111328125 709.950195312 463.495117188 687.8828125 c 6,12,-1
 720.3984375 83.7470703125 l 5,13,-1
 729.444335938 62.6513671875 l 5,14,-1
 708.172851562 54.0283203125 l 5,15,-1
 674.373046875 40.3251953125 l 5,16,-1
 640.5703125 25.708984375 l 5,17,-1
 619.833007812 16.7412109375 l 5,18,-1
 610.951171875 37.5146484375 l 5,19,-1
 408.95703125 514.947265625 l 5,20,-1
 206.115234375 37.484375 l 5,21,-1
 197.215820312 16.7548828125 l 5,22,-1
 176.509765625 25.708984375 l 5,23,-1
 142.70703125 40.3251953125 l 5,0,-1
214.459960938 245.200195312 m 5,24,-1
 214.459960938 282 l 5,25,-1
 214.459960938 304.5 l 5,26,-1
 236.959960938 304.5 l 5,27,-1
 580.120117188 304.5 l 5,28,-1
 602.620117188 304.5 l 5,29,-1
 602.620117188 282 l 5,30,-1
 602.620117188 245.200195312 l 5,31,-1
 602.620117188 208.400390625 l 5,32,-1
 602.620117188 185.900390625 l 5,33,-1
 580.120117188 185.900390625 l 5,34,-1
 236.959960938 185.900390625 l 5,35,-1
 214.459960938 185.900390625 l 5,36,-1
 214.459960938 208.400390625 l 5,37,-1
 214.459960938 245.200195312 l 5,24,-1
50.580078125 61.080078125 m 5,38,-1
 50.580078125 97.8798828125 l 5,39,-1
 50.580078125 125.379882812 l 5,40,-1
 73.080078125 120.379882812 l 5,41,-1
 250.639648438 120.379882812 l 5,42,-1
 273.139648438 120.379882812 l 5,43,-1
 273.139648438 97.8798828125 l 5,44,-1
 273.139648438 61.080078125 l 5,45,-1
 273.139648438 24.2802734375 l 5,46,-1
 273.139648438 1.7802734375 l 5,47,-1
 250.639648438 1.7802734375 l 5,48,-1
 73.080078125 1.7802734375 l 5,49,-1
 50.580078125 1.7802734375 l 5,50,-1
 50.580078125 24.2802734375 l 5,51,-1
 50.580078125 61.080078125 l 5,38,-1
544.860351562 61.080078125 m 5,52,-1
 544.860351562 97.8798828125 l 5,53,-1
 544.860351562 120.379882812 l 5,54,-1
 567.360351562 120.379882812 l 5,55,-1
 744.919921875 120.379882812 l 5,56,-1
 767.419921875 120.379882812 l 5,57,-1
 767.419921875 97.8798828125 l 5,58,-1
 767.419921875 61.080078125 l 5,59,-1
 767.419921875 24.2802734375 l 5,60,-1
 767.419921875 1.7802734375 l 5,61,-1
 744.919921875 1.7802734375 l 5,62,-1
 567.360351562 1.7802734375 l 5,63,-1
 544.860351562 1.7802734375 l 5,64,-1
 544.860351562 24.2802734375 l 5,65,-1
 544.860351562 61.080078125 l 5,52,-1
254.940429688 665.919921875 m 5,66,-1
 254.940429688 702.719726562 l 5,67,-1
 254.940429688 725.219726562 l 5,68,-1
 277.440429688 725.219726562 l 5,69,-1
 409 725.219726562 l 5,70,-1
 431.5 725.219726562 l 5,71,-1
 431.5 702.719726562 l 5,72,-1
 431.5 665.919921875 l 5,73,-1
 431.5 629.120117188 l 5,74,-1
 431.5 606.620117188 l 5,75,-1
 409 606.620117188 l 5,76,-1
 277.440429688 606.620117188 l 5,77,-1
 254.940429688 606.620117188 l 5,78,-1
 254.940429688 629.120117188 l 5,79,-1
 254.940429688 665.919921875 l 5,66,-1
EndSplineSet
EndChar

StartChar: B
Encoding: 66 66 37
Width: 615
VWidth: 949
Flags: W
LayerCount: 2
Fore
SplineSet
57.9111328125 62.068359375 m 5,0,-1
 57.9111328125 98.869140625 l 5,1,-1
 57.9111328125 121.369140625 l 5,2,-1
 80.4111328125 121.369140625 l 5,3,-1
 110.3515625 121.369140625 l 5,4,-1
 110.3515625 669.909179688 l 6,5,6
 110 677 110 677 110.880859375 677.361328125 c 4,7,8
 111 681 111 681 112.369140625 684.618164062 c 4,9,10
 113 688 113 688 114.720703125 691.60546875 c 4,11,12
 119 702 119 702 125.788085938 709.80078125 c 4,13,14
 127 711 127 711 128.322265625 712.42578125 c 4,15,16
 130 714 130 714 131.022460938 714.859375 c 4,17,18
 132 716 132 716 133.8515625 717.092773438 c 4,19,20
 135 718 135 718 136.814453125 719.145507812 c 4,21,22
 138 720 138 720 139.872070312 721.005859375 c 4,23,24
 141 722 141 722 143.02734375 722.69140625 c 4,25,26
 153 728 153 728 162.790039062 728.983398438 c 4,27,-1
 164.118164062 729.1328125 l 6,28,29
 282 742 282 742 371.826171875 666.87890625 c 4,30,31
 393 649 393 649 409.36328125 627.463867188 c 4,32,33
 426 606 426 606 437.044921875 581.938476562 c 4,34,35
 460 532 460 532 455.17578125 476.474609375 c 4,36,37
 453 448 453 448 441.74609375 422.7109375 c 4,38,39
 431.1640625 397.392578125 431.1640625 397.392578125 412.303710938 374.865234375 c 6,40,-1
 398.123046875 357.926757812 l 5,41,-1
 380.927734375 371.793945312 l 5,42,-1
 352.23828125 394.9296875 l 5,43,-1
 323.552734375 418.989257812 l 5,44,-1
 306.368164062 433.40234375 l 5,45,-1
 320.7265625 450.6328125 l 6,46,47
 335 468 335 468 337.278320312 488.934570312 c 4,48,49
 340 511 340 511 329.5234375 533.102539062 c 4,50,51
 324 545 324 545 315.903320312 555.25390625 c 4,52,53
 308 566 308 566 295.946289062 575.393554688 c 4,54,55
 267 600 267 600 228.951171875 607.620117188 c 5,56,-1
 228.951171875 62.068359375 l 6,57,58
 229 48 229 48 221.520507812 34.5830078125 c 4,59,60
 218 28 218 28 212.737304688 22.5498046875 c 4,61,62
 205 13 205 13 201.217773438 12.6796875 c 4,63,64
 170.049804688 1.763671875 170.049804688 1.763671875 169.651367188 1.7685546875 c 6,65,-1
 80.4111328125 2.7685546875 l 5,66,-1
 57.9111328125 2.7685546875 l 5,67,-1
 57.9111328125 25.2685546875 l 5,68,-1
 57.9111328125 62.068359375 l 5,0,-1
147.151367188 402.30859375 m 5,69,-1
 147.151367188 439.108398438 l 5,70,-1
 147.151367188 461.608398438 l 5,71,-1
 169.651367188 461.608398438 l 5,72,-1
 366.53125 461.608398438 l 6,73,74
 395 462 395 462 412.814453125 456.514648438 c 4,75,76
 435 451 435 451 455.778320312 441.259765625 c 4,77,78
 476 431 476 431 494.932617188 415.983398438 c 4,79,80
 564 358 564 358 571.572265625 267.118164062 c 4,81,82
 579 174 579 174 514.630859375 95.5556640625 c 4,83,84
 495 72 495 72 472.155273438 54.5830078125 c 4,85,86
 448 36 448 36 418.83984375 26.3408203125 c 4,87,88
 393 17 393 17 371.986328125 11.3505859375 c 4,89,90
 347.984375 4.5615234375 347.984375 4.5615234375 314.455078125 2.6455078125 c 6,91,-1
 266.154296875 -0.1142578125 l 6,92,93
 218 -3 218 -3 213.219726562 -0.1435546875 c 4,94,95
 211.44921875 0.7685546875 211.44921875 0.7685546875 169.651367188 0.7685546875 c 6,96,-1
 147.151367188 0.7685546875 l 5,97,-1
 147.151367188 23.2685546875 l 5,98,-1
 147.151367188 60.068359375 l 5,99,-1
 147.151367188 96.869140625 l 5,100,-1
 147.151367188 119.369140625 l 5,101,-1
 169.651367188 119.369140625 l 5,102,-1
 189.891601562 119.369140625 l 5,103,-1
 253.37109375 119.369140625 l 6,104,105
 276 122 276 122 306.452148438 122.489257812 c 4,106,107
 323 123 323 123 356.4765625 130.8671875 c 4,108,109
 365 133 365 133 374.663085938 137.484375 c 4,110,111
 384 141 384 141 393.8203125 146.916992188 c 4,112,113
 403 152 403 152 410.21484375 157.971679688 c 4,114,115
 418 164 418 164 423.444335938 170.693359375 c 4,116,117
 457 215 457 215 453.125 257.430664062 c 4,118,119
 451 279 451 279 442.881835938 295.306640625 c 4,120,121
 434 312 434 312 418.505859375 325.108398438 c 4,122,123
 395.989257812 343.008789062 395.989257812 343.008789062 366.53125 343.008789062 c 6,124,-1
 169.651367188 343.008789062 l 5,125,-1
 147.151367188 343.008789062 l 5,126,-1
 147.151367188 365.508789062 l 5,127,-1
 147.151367188 402.30859375 l 5,69,-1
192.151367188 669.909179688 m 5,128,-1
 192.151367188 633.108398438 l 5,129,-1
 192.151367188 610.608398438 l 5,130,-1
 169.651367188 610.608398438 l 5,131,-1
 80.4111328125 610.608398438 l 5,132,-1
 57.9111328125 610.608398438 l 5,133,-1
 57.9111328125 633.108398438 l 5,134,-1
 57.9111328125 669.909179688 l 5,135,-1
 57.9111328125 706.708984375 l 5,136,-1
 57.9111328125 729.208984375 l 5,137,-1
 80.4111328125 729.208984375 l 5,138,-1
 169.651367188 729.208984375 l 5,139,-1
 192.151367188 729.208984375 l 5,140,-1
 192.151367188 706.708984375 l 5,141,-1
 192.151367188 669.909179688 l 5,128,-1
EndSplineSet
EndChar

StartChar: C
Encoding: 67 67 38
Width: 723
VWidth: 949
Flags: W
LayerCount: 2
Fore
SplineSet
596.241210938 740.280273438 m 5,0,-1
 633.041015625 740.280273438 l 5,1,-1
 655.541015625 740.280273438 l 5,2,-1
 655.541015625 717.780273438 l 5,3,-1
 655.541015625 585.299804688 l 6,4,5
 655.541015625 577.146484375 655.541015625 577.146484375 653.228515625 569.247070312 c 132,-1,6
 650.916992188 561.34765625 650.916992188 561.34765625 646.543945312 554.424804688 c 132,-1,7
 642.209960938 547.5625 642.209960938 547.5625 636.162109375 542.08203125 c 132,-1,8
 630.115234375 536.6015625 630.115234375 536.6015625 622.862304688 532.974609375 c 4,9,10
 607.9375 525.512695312 607.9375 525.512695312 591.80078125 526.979492188 c 4,11,12
 580.111328125 527.666992188 580.111328125 527.666992188 569.208984375 533.129882812 c 132,-1,13
 558.307617188 538.591796875 558.307617188 538.591796875 550.490234375 547.830078125 c 4,14,15
 544.040039062 555.5703125 544.040039062 555.5703125 537.577148438 562.032226562 c 132,-1,16
 531.11328125 568.495117188 531.11328125 568.495117188 523.767578125 574.544921875 c 4,17,18
 513.059570312 583.806640625 513.059570312 583.806640625 502.85546875 591.030273438 c 132,-1,19
 492.65234375 598.254882812 492.65234375 598.254882812 483.418945312 603.255859375 c 132,-1,20
 474.185546875 608.256835938 474.185546875 608.256835938 465.294921875 611.525390625 c 4,21,22
 411.930664062 630.532226562 411.930664062 630.532226562 397.606445312 632.325195312 c 4,23,24
 378.5546875 633.4375 378.5546875 633.4375 361.580078125 633.319335938 c 132,-1,25
 344.606445312 633.201171875 344.606445312 633.201171875 327.004882812 631.864257812 c 4,26,27
 319.611328125 631.302734375 319.611328125 631.302734375 312.392578125 629.63671875 c 132,-1,28
 305.172851562 627.969726562 305.172851562 627.969726562 297.911132812 625.119140625 c 132,-1,29
 290.649414062 622.26953125 290.649414062 622.26953125 283.358398438 618.141601562 c 132,-1,30
 276.06640625 614.014648438 276.06640625 614.014648438 268.76171875 608.611328125 c 4,31,32
 253.071289062 597.004882812 253.071289062 597.004882812 239.120117188 584.02734375 c 132,-1,33
 225.16796875 571.05078125 225.16796875 571.05078125 213.30859375 557.07421875 c 4,34,35
 170.22265625 504.694335938 170.22265625 504.694335938 160.248046875 449.420898438 c 4,36,37
 149.1171875 383.065429688 149.1171875 383.065429688 162.564453125 332.638671875 c 4,38,39
 164.135742188 326.87890625 164.135742188 326.87890625 166.05078125 321.01171875 c 132,-1,40
 167.965820312 315.14453125 167.965820312 315.14453125 170.231445312 309.151367188 c 132,-1,41
 172.498046875 303.157226562 172.498046875 303.157226562 175.1171875 297.0546875 c 132,-1,42
 177.736328125 290.951171875 177.736328125 290.951171875 180.701171875 284.74609375 c 132,-1,43
 183.666015625 278.541015625 183.666015625 278.541015625 186.994140625 272.22265625 c 132,-1,44
 190.322265625 265.904296875 190.322265625 265.904296875 193.9921875 259.5078125 c 132,-1,45
 197.661132812 253.110351562 197.661132812 253.110351562 201.704101562 246.596679688 c 132,-1,46
 205.74609375 240.083007812 205.74609375 240.083007812 210.125976562 233.514648438 c 4,47,48
 233.276367188 199.21875 233.276367188 199.21875 262.784179688 173.55859375 c 4,49,50
 291.951171875 148.196289062 291.951171875 148.196289062 327.470703125 132.55078125 c 4,51,52
 336.325195312 128.650390625 336.325195312 128.650390625 345.2734375 125.525390625 c 132,-1,53
 354.221679688 122.400390625 354.221679688 122.400390625 363.280273438 120.044921875 c 132,-1,54
 372.338867188 117.689453125 372.338867188 117.689453125 381.505859375 116.098632812 c 132,-1,55
 390.673828125 114.506835938 390.673828125 114.506835938 399.994140625 113.668945312 c 4,56,57
 436.719726562 110.368164062 436.719726562 110.368164062 478.654296875 122.529296875 c 4,58,59
 521.166015625 134.858398438 521.166015625 134.858398438 562.333984375 163.161132812 c 6,60,-1
 580.756835938 175.827148438 l 5,61,-1
 593.540039062 157.485351562 l 5,62,-1
 614.700195312 127.125 l 5,63,-1
 635.859375 96.7646484375 l 5,64,-1
 648.873046875 78.091796875 l 5,65,-1
 630.052734375 65.2939453125 l 6,66,67
 593.791015625 40.6357421875 593.791015625 40.6357421875 556.211914062 24.5302734375 c 132,-1,68
 518.633789062 8.42578125 518.633789062 8.42578125 479.91796875 1.07421875 c 4,69,70
 441.567382812 -6.275390625 441.567382812 -6.275390625 404.842773438 -5.279296875 c 132,-1,71
 368.118164062 -4.283203125 368.118164062 -4.283203125 334.006835938 5.177734375 c 4,72,73
 267.067382812 23.74609375 267.067382812 23.74609375 209.956054688 65.236328125 c 4,74,75
 181.498046875 85.9111328125 181.498046875 85.9111328125 157.032226562 111.108398438 c 132,-1,76
 132.565429688 136.3046875 132.565429688 136.3046875 112.178710938 165.9140625 c 4,77,78
 78.2451171875 215.360351562 78.2451171875 215.360351562 59.3125 270.21875 c 132,-1,79
 40.33984375 325.189453125 40.33984375 325.189453125 36.9521484375 389.068359375 c 4,80,81
 35.8037109375 410.739257812 35.8037109375 410.739257812 37.455078125 432.155273438 c 132,-1,82
 39.1064453125 453.572265625 39.1064453125 453.572265625 43.5458984375 474.63671875 c 132,-1,83
 47.9853515625 495.702148438 47.9853515625 495.702148438 55.1982421875 516.357421875 c 4,84,85
 76.796875 578.208007812 76.796875 578.208007812 122.677734375 632.874023438 c 4,86,87
 179.00390625 700.0703125 179.00390625 700.0703125 258.397460938 728.8515625 c 4,88,89
 331.853515625 754.66015625 331.853515625 754.66015625 420.15625 741.415039062 c 4,90,91
 488.142578125 731.35546875 488.142578125 731.35546875 536.940429688 707.5546875 c 5,92,-1
 536.940429688 717.780273438 l 5,93,-1
 536.940429688 740.280273438 l 5,94,-1
 559.440429688 740.280273438 l 5,95,-1
 596.241210938 740.280273438 l 5,0,-1
EndSplineSet
EndChar

StartChar: D
Encoding: 68 68 39
Width: 630
VWidth: 949
Flags: W
LayerCount: 2
Fore
SplineSet
195.638671875 1.7021484375 m 1,0,-1
 173.328125 1.580078125 l 1,1,-1
 85.0087890625 1.580078125 l 1,2,-1
 62.5087890625 1.580078125 l 1,3,-1
 62.5087890625 24.080078125 l 1,4,-1
 62.5087890625 97.6796875 l 1,5,-1
 62.5087890625 120.1796875 l 1,6,-1
 85.0087890625 120.1796875 l 1,7,-1
 114.028320312 120.1796875 l 1,8,-1
 114.028320312 679.120117188 l 2,9,10
 114.028320312 697.12109375 114.028320312 697.12109375 123.939453125 711.60546875 c 0,11,12
 133.35546875 725.368164062 133.35546875 725.368164062 147.59765625 732.115234375 c 0,13,14
 151.7578125 734.084960938 151.7578125 734.084960938 155.791992188 735.444335938 c 128,-1,15
 159.825195312 736.8046875 159.825195312 736.8046875 164.353515625 737.612304688 c 128,-1,16
 168.880859375 738.419921875 168.880859375 738.419921875 173.328125 738.419921875 c 0,17,18
 354.6875 738.419921875 354.6875 738.419921875 480.87890625 612.23046875 c 0,19,20
 496.583007812 596.525390625 496.583007812 596.525390625 510.1953125 578.96875 c 128,-1,21
 523.806640625 561.412109375 523.806640625 561.412109375 535.249023438 542.125976562 c 128,-1,22
 546.690429688 522.83984375 546.690429688 522.83984375 555.991210938 501.850585938 c 128,-1,23
 565.29296875 480.861328125 565.29296875 480.861328125 572.4453125 458.190429688 c 0,24,25
 601.240234375 366.9296875 601.240234375 366.9296875 584.650390625 272.276367188 c 0,26,27
 582.793945312 261.684570312 582.793945312 261.684570312 580.333007812 251.43359375 c 128,-1,28
 577.87109375 241.181640625 577.87109375 241.181640625 574.803710938 231.276367188 c 128,-1,29
 571.736328125 221.37109375 571.736328125 221.37109375 568.0703125 211.82421875 c 128,-1,30
 564.403320312 202.278320312 564.403320312 202.278320312 560.130859375 193.08984375 c 128,-1,31
 555.858398438 183.900390625 555.858398438 183.900390625 550.993164062 175.090820312 c 128,-1,32
 546.127929688 166.280273438 546.127929688 166.280273438 540.657226562 157.840820312 c 128,-1,33
 535.185546875 149.400390625 535.185546875 149.400390625 529.127929688 141.357421875 c 128,-1,34
 523.0703125 133.315429688 523.0703125 133.315429688 516.40625 125.654296875 c 128,-1,35
 509.7421875 117.994140625 509.7421875 117.994140625 502.499023438 110.75 c 0,36,37
 438.07421875 46.3271484375 438.07421875 46.3271484375 356.96484375 23.576171875 c 0,38,39
 285.673828125 3.8681640625 285.673828125 3.8681640625 195.638671875 1.7021484375 c 1,0,-1
232.62890625 123.86328125 m 1,40,41
 268.224609375 127.038085938 268.224609375 127.038085938 292.71484375 131.33984375 c 0,42,43
 323.8046875 136.802734375 323.8046875 136.802734375 358.3515625 153.009765625 c 0,44,45
 392.044921875 168.81640625 392.044921875 168.81640625 418.782226562 195.552734375 c 0,46,47
 431.868164062 208.3671875 431.868164062 208.3671875 441.66015625 223.3515625 c 128,-1,48
 451.452148438 238.3359375 451.452148438 238.3359375 458.194335938 256.057617188 c 128,-1,49
 464.935546875 273.778320312 464.935546875 273.778320312 468.572265625 294.338867188 c 0,50,51
 474.103515625 325.442382812 474.103515625 325.442382812 472.087890625 356.951171875 c 128,-1,52
 470.072265625 388.459960938 470.072265625 388.459960938 460.4375 420.575195312 c 0,53,54
 441.400390625 484.032226562 441.400390625 484.032226562 396.651367188 527.936523438 c 0,55,56
 325.881835938 599.467773438 325.881835938 599.467773438 232.62890625 614.9921875 c 1,57,-1
 232.62890625 123.86328125 l 1,40,41
62.5087890625 679.120117188 m 1,58,-1
 62.5087890625 715.919921875 l 1,59,-1
 62.5087890625 738.419921875 l 1,60,-1
 85.0087890625 738.419921875 l 1,61,-1
 173.328125 738.419921875 l 1,62,-1
 195.828125 738.419921875 l 1,63,-1
 195.828125 715.919921875 l 1,64,-1
 195.828125 679.120117188 l 1,65,-1
 195.828125 642.3203125 l 1,66,-1
 195.828125 619.8203125 l 1,67,-1
 173.328125 619.8203125 l 1,68,-1
 85.0087890625 619.8203125 l 1,69,-1
 62.5087890625 619.8203125 l 1,70,-1
 62.5087890625 642.3203125 l 1,71,-1
 62.5087890625 679.120117188 l 1,58,-1
EndSplineSet
EndChar

StartChar: E
Encoding: 69 69 40
Width: 669
VWidth: 949
Flags: W
LayerCount: 2
Fore
SplineSet
170.48046875 38.580078125 m 5,0,-1
 133.6796875 38.580078125 l 5,1,-1
 111.1796875 38.580078125 l 5,2,-1
 111.1796875 61.080078125 l 5,3,-1
 111.1796875 665.919921875 l 6,4,5
 111 674 111 674 112.500976562 678.09375 c 4,6,7
 114 684 114 684 116.32421875 689.575195312 c 4,8,9
 119 695 119 695 122.471679688 699.978515625 c 132,-1,10
 126 705 126 705 130.731445312 708.9921875 c 4,11,12
 149.250976562 725.219726562 149.250976562 725.219726562 170.48046875 725.219726562 c 6,13,-1
 512.719726562 725.219726562 l 5,14,-1
 535.219726562 725.219726562 l 5,15,-1
 535.219726562 702.719726562 l 5,16,-1
 535.219726562 629.120117188 l 5,17,-1
 535.219726562 606.620117188 l 5,18,-1
 512.719726562 606.620117188 l 5,19,-1
 229.780273438 606.620117188 l 5,20,-1
 229.780273438 61.080078125 l 5,21,-1
 229.780273438 38.580078125 l 5,22,-1
 207.280273438 38.580078125 l 5,23,-1
 170.48046875 38.580078125 l 5,0,-1
147.98046875 373.48046875 m 5,24,-1
 147.98046875 410.280273438 l 5,25,-1
 147.98046875 432.780273438 l 5,26,-1
 170.48046875 432.780273438 l 5,27,-1
 470.400390625 432.780273438 l 5,28,-1
 492.900390625 432.780273438 l 5,29,-1
 492.900390625 410.280273438 l 5,30,-1
 492.900390625 373.48046875 l 5,31,-1
 492.900390625 336.6796875 l 5,32,-1
 492.900390625 314.1796875 l 5,33,-1
 470.400390625 314.1796875 l 5,34,-1
 170.48046875 314.1796875 l 5,35,-1
 147.98046875 314.1796875 l 5,36,-1
 147.98046875 336.6796875 l 5,37,-1
 147.98046875 373.48046875 l 5,24,-1
147.98046875 61.080078125 m 5,38,-1
 147.98046875 92.8798828125 l 5,39,-1
 147.98046875 120.379882812 l 5,40,-1
 170.48046875 120.379882812 l 5,41,-1
 555.959960938 119.379882812 l 5,42,-1
 578.459960938 119.379882812 l 5,43,-1
 578.459960938 96.8798828125 l 5,44,-1
 578.459960938 24.2802734375 l 5,45,-1
 578.459960938 1.7802734375 l 5,46,-1
 555.959960938 1.7802734375 l 5,47,-1
 170.48046875 1.7802734375 l 5,48,-1
 147.98046875 1.7802734375 l 5,49,-1
 147.98046875 24.2802734375 l 5,50,-1
 147.98046875 61.080078125 l 5,38,-1
58.740234375 61.080078125 m 5,51,-1
 58.740234375 97.8798828125 l 5,52,-1
 58.740234375 120.379882812 l 5,53,-1
 81.240234375 120.379882812 l 5,54,-1
 170.48046875 120.379882812 l 5,55,-1
 192.98046875 120.379882812 l 5,56,-1
 192.98046875 97.8798828125 l 5,57,-1
 192.98046875 61.080078125 l 5,58,-1
 192.98046875 24.2802734375 l 5,59,-1
 192.98046875 1.7802734375 l 5,60,-1
 170.48046875 1.7802734375 l 5,61,-1
 81.240234375 1.7802734375 l 5,62,-1
 58.740234375 1.7802734375 l 5,63,-1
 58.740234375 24.2802734375 l 5,64,-1
 58.740234375 61.080078125 l 5,51,-1
58.740234375 665.919921875 m 5,65,-1
 58.740234375 702.719726562 l 5,66,-1
 58.740234375 725.219726562 l 5,67,-1
 81.240234375 725.219726562 l 5,68,-1
 170.48046875 725.219726562 l 5,69,-1
 192.98046875 725.219726562 l 5,70,-1
 192.98046875 702.719726562 l 5,71,-1
 192.98046875 665.919921875 l 5,72,-1
 192.98046875 629.120117188 l 5,73,-1
 192.98046875 606.620117188 l 5,74,-1
 170.48046875 606.620117188 l 5,75,-1
 81.240234375 606.620117188 l 5,76,-1
 58.740234375 606.620117188 l 5,77,-1
 58.740234375 629.120117188 l 5,78,-1
 58.740234375 665.919921875 l 5,65,-1
512.719726562 554.1796875 m 5,79,-1
 475.919921875 554.1796875 l 5,80,-1
 453.419921875 554.1796875 l 5,81,-1
 453.419921875 576.6796875 l 5,82,-1
 453.419921875 702.719726562 l 5,83,-1
 453.419921875 725.219726562 l 5,84,-1
 475.919921875 725.219726562 l 5,85,-1
 512.719726562 725.219726562 l 5,86,-1
 549.51953125 725.219726562 l 5,87,-1
 572.01953125 725.219726562 l 5,88,-1
 572.01953125 702.719726562 l 5,89,-1
 572.01953125 576.6796875 l 5,90,-1
 572.01953125 554.1796875 l 5,91,-1
 549.51953125 554.1796875 l 5,92,-1
 512.719726562 554.1796875 l 5,79,-1
555.959960938 172.8203125 m 5,93,-1
 592.759765625 172.8203125 l 5,94,-1
 615.259765625 172.8203125 l 5,95,-1
 615.259765625 150.3203125 l 5,96,-1
 615.259765625 24.2802734375 l 5,97,-1
 615.259765625 1.7802734375 l 5,98,-1
 592.759765625 1.7802734375 l 5,99,-1
 555.959960938 1.7802734375 l 5,100,-1
 519.16015625 1.7802734375 l 5,101,-1
 496.66015625 1.7802734375 l 5,102,-1
 496.66015625 24.2802734375 l 5,103,-1
 496.66015625 150.3203125 l 5,104,-1
 496.66015625 172.8203125 l 5,105,-1
 519.16015625 172.8203125 l 5,106,-1
 555.959960938 172.8203125 l 5,93,-1
470.400390625 484.299804688 m 5,107,-1
 507.200195312 484.299804688 l 5,108,-1
 529.700195312 484.299804688 l 5,109,-1
 529.700195312 461.799804688 l 5,110,-1
 529.700195312 284.240234375 l 5,111,-1
 529.700195312 261.740234375 l 5,112,-1
 507.200195312 261.740234375 l 5,113,-1
 470.400390625 261.740234375 l 5,114,-1
 433.599609375 261.740234375 l 5,115,-1
 411.099609375 261.740234375 l 5,116,-1
 411.099609375 284.240234375 l 5,117,-1
 411.099609375 461.799804688 l 5,118,-1
 411.099609375 484.299804688 l 5,119,-1
 433.599609375 484.299804688 l 5,120,-1
 470.400390625 484.299804688 l 5,107,-1
EndSplineSet
EndChar

StartChar: F
Encoding: 70 70 41
Width: 601
VWidth: 949
Flags: W
LayerCount: 2
Fore
SplineSet
169.719726562 45.580078125 m 5,0,-1
 132.919921875 45.580078125 l 5,1,-1
 110.419921875 45.580078125 l 5,2,-1
 110.419921875 68.080078125 l 5,3,-1
 110.419921875 667.919921875 l 6,4,5
 110.419921875 693.696289062 110.419921875 693.696289062 129.971679688 710.9921875 c 4,6,7
 138.557617188 718.586914062 138.557617188 718.586914062 148.692382812 722.903320312 c 132,-1,8
 158.826171875 727.219726562 158.826171875 727.219726562 169.719726562 727.219726562 c 6,9,-1
 512.879882812 727.219726562 l 5,10,-1
 544.096679688 727.219726562 l 5,11,-1
 534.5078125 698.451171875 l 5,12,-1
 535.377929688 631.412109375 l 5,13,-1
 535.673828125 608.620117188 l 5,14,-1
 512.879882812 608.620117188 l 5,15,-1
 229.01953125 608.620117188 l 5,16,-1
 229.01953125 68.080078125 l 5,17,-1
 229.01953125 45.580078125 l 5,18,-1
 206.51953125 45.580078125 l 5,19,-1
 169.719726562 45.580078125 l 5,0,-1
147.219726562 385.48046875 m 5,20,-1
 147.219726562 422.280273438 l 5,21,-1
 147.219726562 444.780273438 l 5,22,-1
 169.719726562 444.780273438 l 5,23,-1
 427.3203125 444.780273438 l 5,24,-1
 449.8203125 444.780273438 l 5,25,-1
 449.8203125 422.280273438 l 5,26,-1
 449.8203125 385.48046875 l 5,27,-1
 449.8203125 348.6796875 l 5,28,-1
 449.8203125 326.1796875 l 5,29,-1
 427.3203125 326.1796875 l 5,30,-1
 169.719726562 326.1796875 l 5,31,-1
 147.219726562 326.1796875 l 5,32,-1
 147.219726562 348.6796875 l 5,33,-1
 147.219726562 385.48046875 l 5,20,-1
59.8203125 667.919921875 m 5,34,-1
 59.8203125 704.719726562 l 5,35,-1
 59.8203125 727.219726562 l 5,36,-1
 82.3203125 727.219726562 l 5,37,-1
 169.719726562 727.219726562 l 5,38,-1
 192.219726562 727.219726562 l 5,39,-1
 192.219726562 704.719726562 l 5,40,-1
 192.219726562 667.919921875 l 5,41,-1
 192.219726562 631.120117188 l 5,42,-1
 192.219726562 608.620117188 l 5,43,-1
 169.719726562 608.620117188 l 5,44,-1
 82.3203125 608.620117188 l 5,45,-1
 59.8203125 608.620117188 l 5,46,-1
 59.8203125 631.120117188 l 5,47,-1
 59.8203125 667.919921875 l 5,34,-1
512.879882812 556.1796875 m 5,48,-1
 476.080078125 556.1796875 l 5,49,-1
 453.747070312 556.1796875 l 5,50,-1
 453.581054688 578.51171875 l 5,51,-1
 452.661132812 701.791992188 l 5,52,-1
 452.491210938 724.459960938 l 5,53,-1
 475.16015625 724.459960938 l 5,54,-1
 511.959960938 724.459960938 l 5,55,-1
 548.759765625 724.459960938 l 5,56,-1
 571.092773438 724.459960938 l 5,57,-1
 571.258789062 702.127929688 l 5,58,-1
 572.178710938 578.84765625 l 5,59,-1
 572.348632812 556.1796875 l 5,60,-1
 549.6796875 556.1796875 l 5,61,-1
 512.879882812 556.1796875 l 5,48,-1
59.8203125 60.080078125 m 5,62,-1
 59.8203125 96.8798828125 l 5,63,-1
 59.8203125 119.379882812 l 5,64,-1
 82.3203125 119.379882812 l 5,65,-1
 278.280273438 119.379882812 l 5,66,-1
 300.780273438 119.379882812 l 5,67,-1
 300.780273438 96.8798828125 l 5,68,-1
 300.780273438 60.080078125 l 5,69,-1
 300.780273438 23.2802734375 l 5,70,-1
 300.780273438 0.7802734375 l 5,71,-1
 278.280273438 0.7802734375 l 5,72,-1
 82.3203125 0.7802734375 l 5,73,-1
 59.8203125 0.7802734375 l 5,74,-1
 59.8203125 23.2802734375 l 5,75,-1
 59.8203125 60.080078125 l 5,62,-1
427.3203125 496.299804688 m 5,76,-1
 464.120117188 496.299804688 l 5,77,-1
 486.620117188 496.299804688 l 5,78,-1
 486.620117188 473.799804688 l 5,79,-1
 486.620117188 296.240234375 l 5,80,-1
 486.620117188 273.740234375 l 5,81,-1
 464.120117188 273.740234375 l 5,82,-1
 427.3203125 273.740234375 l 5,83,-1
 390.51953125 273.740234375 l 5,84,-1
 368.01953125 273.740234375 l 5,85,-1
 368.01953125 296.240234375 l 5,86,-1
 368.01953125 473.799804688 l 5,87,-1
 368.01953125 496.299804688 l 5,88,-1
 390.51953125 496.299804688 l 5,89,-1
 427.3203125 496.299804688 l 5,76,-1
EndSplineSet
EndChar

StartChar: G
Encoding: 71 71 42
Width: 777
VWidth: 949
Flags: W
LayerCount: 2
Fore
SplineSet
470.680664062 382.959960938 m 5,0,-1
 687.80078125 382.959960938 l 5,1,-1
 710.30078125 382.959960938 l 5,2,-1
 710.30078125 360.459960938 l 5,3,-1
 710.30078125 286.860351562 l 5,4,-1
 710.30078125 264.360351562 l 5,5,-1
 687.80078125 264.360351562 l 5,6,-1
 658.78125 264.360351562 l 5,7,-1
 658.78125 109.299804688 l 6,8,9
 658.78125 77.9384765625 658.78125 77.9384765625 632.345703125 60.3154296875 c 4,10,11
 560.500976562 10.80078125 560.500976562 10.80078125 483.158203125 -3.8857421875 c 4,12,13
 405.323242188 -18.6640625 405.323242188 -18.6640625 337.247070312 0.21875 c 4,14,15
 303.831054688 9.4873046875 303.831054688 9.4873046875 272.673828125 24.515625 c 132,-1,16
 241.517578125 39.544921875 241.517578125 39.544921875 212.810546875 60.2236328125 c 4,17,18
 155.362304688 101.60546875 155.362304688 101.60546875 114.413085938 161.079101562 c 4,19,20
 81.435546875 210.545898438 81.435546875 210.545898438 62.5517578125 265.259765625 c 4,21,22
 43.580078125 320.229492188 43.580078125 320.229492188 40.1923828125 384.108398438 c 4,23,24
 36.7373046875 449.25390625 36.7373046875 449.25390625 58.4384765625 511.3984375 c 4,25,26
 79.9970703125 573.1328125 79.9970703125 573.1328125 124.91796875 627.818359375 c 4,27,28
 147.609375 654.950195312 147.609375 654.950195312 174.401367188 676.188476562 c 132,-1,29
 201.193359375 697.42578125 201.193359375 697.42578125 232.0625 712.736328125 c 4,30,31
 294.615234375 743.763671875 294.615234375 743.763671875 360.052734375 741.749023438 c 4,32,33
 422.857421875 739.81640625 422.857421875 739.81640625 485.866210938 720.578125 c 4,34,35
 547.09765625 702.65625 547.09765625 702.65625 603.180664062 653.458984375 c 4,36,37
 608.056640625 649.280273438 608.056640625 649.280273438 614.250976562 643.198242188 c 132,-1,38
 620.444335938 637.116210938 620.444335938 637.116210938 627.669921875 629.466796875 c 132,-1,39
 634.89453125 621.81640625 634.89453125 621.81640625 643.75390625 612.008789062 c 4,40,41
 650.989257812 604.049804688 650.989257812 604.049804688 654.884765625 593.918945312 c 132,-1,42
 658.78125 583.787109375 658.78125 583.787109375 658.78125 572.98046875 c 6,43,-1
 658.78125 493.860351562 l 5,44,-1
 658.78125 471.360351562 l 5,45,-1
 636.28125 471.360351562 l 5,46,-1
 562.680664062 471.360351562 l 5,47,-1
 540.180664062 471.360351562 l 5,48,-1
 540.180664062 493.860351562 l 5,49,-1
 540.180664062 549.774414062 l 5,50,51
 533.099609375 556.645507812 533.099609375 556.645507812 526.650390625 562.530273438 c 4,52,53
 503.184570312 582.38671875 503.184570312 582.38671875 477.59765625 595.754882812 c 132,-1,54
 452.010742188 609.124023438 452.010742188 609.124023438 422.533203125 617.02734375 c 4,55,56
 365.209960938 632.397460938 365.209960938 632.397460938 309.767578125 615.846679688 c 4,57,58
 292.030273438 610.389648438 292.030273438 610.389648438 275.87890625 601.60546875 c 132,-1,59
 259.728515625 592.822265625 259.728515625 592.822265625 244.83984375 580.426757812 c 132,-1,60
 229.951171875 568.030273438 229.951171875 568.030273438 216.491210938 552.046875 c 4,61,62
 175.950195312 503.904296875 175.950195312 503.904296875 164.244140625 449.13671875 c 4,63,64
 152.381835938 393.643554688 152.381835938 393.643554688 163.7578125 341.82421875 c 4,65,66
 165.2109375 335.20703125 165.2109375 335.20703125 166.926757812 328.672851562 c 132,-1,67
 168.643554688 322.138671875 168.643554688 322.138671875 170.622070312 315.69140625 c 132,-1,68
 172.6015625 309.244140625 172.6015625 309.244140625 174.842773438 302.881835938 c 132,-1,69
 177.084960938 296.51953125 177.084960938 296.51953125 179.588867188 290.247070312 c 132,-1,70
 182.091796875 283.973632812 182.091796875 283.973632812 184.857421875 277.788085938 c 132,-1,71
 187.623046875 271.602539062 187.623046875 271.602539062 190.6484375 265.508789062 c 132,-1,72
 193.673828125 259.415039062 193.673828125 259.415039062 196.9609375 253.411132812 c 132,-1,73
 200.248046875 247.407226562 200.248046875 247.407226562 203.793945312 241.497070312 c 4,74,75
 240.65234375 181.495117188 240.65234375 181.495117188 294.849609375 146.07421875 c 4,76,77
 305.53125 139.09375 305.53125 139.09375 316.666992188 133.4140625 c 132,-1,78
 327.801757812 127.735351562 327.801757812 127.735351562 339.483398438 123.318359375 c 132,-1,79
 351.165039062 118.90234375 351.165039062 118.90234375 363.380859375 115.771484375 c 132,-1,80
 375.596679688 112.640625 375.596679688 112.640625 388.405273438 110.776367188 c 132,-1,81
 401.212890625 108.913085938 401.212890625 108.913085938 414.63671875 108.317382812 c 4,82,83
 475.013671875 105.642578125 475.013671875 105.642578125 540.180664062 142.373046875 c 5,84,-1
 540.180664062 264.360351562 l 5,85,-1
 470.680664062 264.360351562 l 5,86,-1
 448.180664062 264.360351562 l 5,87,-1
 448.180664062 286.860351562 l 5,88,-1
 448.180664062 360.459960938 l 5,89,-1
 448.180664062 382.959960938 l 5,90,-1
 470.680664062 382.959960938 l 5,0,-1
EndSplineSet
EndChar

StartChar: H
Encoding: 72 72 43
Width: 691
VWidth: 949
Flags: W
LayerCount: 2
Fore
SplineSet
173.959960938 38.580078125 m 5,0,-1
 137.16015625 38.580078125 l 5,1,-1
 114.66015625 38.580078125 l 5,2,-1
 114.66015625 61.080078125 l 5,3,-1
 114.66015625 666.919921875 l 5,4,-1
 114.66015625 689.419921875 l 5,5,-1
 137.16015625 689.419921875 l 5,6,-1
 173.959960938 689.419921875 l 5,7,-1
 210.759765625 689.419921875 l 5,8,-1
 233.259765625 689.419921875 l 5,9,-1
 233.259765625 666.919921875 l 5,10,-1
 233.259765625 61.080078125 l 5,11,-1
 233.259765625 38.580078125 l 5,12,-1
 210.759765625 38.580078125 l 5,13,-1
 173.959960938 38.580078125 l 5,0,-1
151.459960938 384.48046875 m 5,14,-1
 151.459960938 421.280273438 l 5,15,-1
 151.459960938 443.780273438 l 5,16,-1
 173.959960938 443.780273438 l 5,17,-1
 517.120117188 443.780273438 l 5,18,-1
 539.620117188 443.780273438 l 5,19,-1
 539.620117188 421.280273438 l 5,20,-1
 539.620117188 384.48046875 l 5,21,-1
 539.620117188 347.6796875 l 5,22,-1
 539.620117188 325.1796875 l 5,23,-1
 517.120117188 325.1796875 l 5,24,-1
 173.959960938 325.1796875 l 5,25,-1
 151.459960938 325.1796875 l 5,26,-1
 151.459960938 347.6796875 l 5,27,-1
 151.459960938 384.48046875 l 5,14,-1
517.120117188 689.419921875 m 5,28,-1
 553.919921875 689.419921875 l 5,29,-1
 576.419921875 689.419921875 l 5,30,-1
 576.419921875 666.919921875 l 5,31,-1
 576.419921875 61.080078125 l 5,32,-1
 576.419921875 38.580078125 l 5,33,-1
 553.919921875 38.580078125 l 5,34,-1
 517.120117188 38.580078125 l 5,35,-1
 480.3203125 38.580078125 l 5,36,-1
 457.8203125 38.580078125 l 5,37,-1
 457.8203125 61.080078125 l 5,38,-1
 457.8203125 666.919921875 l 5,39,-1
 457.8203125 689.419921875 l 5,40,-1
 480.3203125 689.419921875 l 5,41,-1
 517.120117188 689.419921875 l 5,28,-1
63.1396484375 61.080078125 m 5,42,-1
 63.1396484375 97.8798828125 l 5,43,-1
 63.1396484375 120.379882812 l 5,44,-1
 85.6396484375 120.379882812 l 5,45,-1
 263.200195312 120.379882812 l 5,46,-1
 285.700195312 126.379882812 l 5,47,-1
 285.700195312 103.879882812 l 5,48,-1
 285.700195312 67.080078125 l 5,49,-1
 285.700195312 24.2802734375 l 5,50,-1
 285.700195312 1.7802734375 l 5,51,-1
 263.200195312 1.7802734375 l 5,52,-1
 85.6396484375 1.7802734375 l 5,53,-1
 63.1396484375 1.7802734375 l 5,54,-1
 63.1396484375 24.2802734375 l 5,55,-1
 63.1396484375 61.080078125 l 5,42,-1
405.379882812 61.080078125 m 5,56,-1
 405.379882812 97.8798828125 l 5,57,-1
 405.379882812 120.379882812 l 5,58,-1
 427.879882812 120.379882812 l 5,59,-1
 606.360351562 120.379882812 l 5,60,-1
 628.860351562 120.379882812 l 5,61,-1
 628.860351562 97.8798828125 l 5,62,-1
 628.860351562 61.080078125 l 5,63,-1
 628.860351562 24.2802734375 l 5,64,-1
 628.860351562 1.7802734375 l 5,65,-1
 606.360351562 1.7802734375 l 5,66,-1
 427.879882812 1.7802734375 l 5,67,-1
 405.379882812 1.7802734375 l 5,68,-1
 405.379882812 24.2802734375 l 5,69,-1
 405.379882812 61.080078125 l 5,56,-1
63.1396484375 666.919921875 m 5,70,-1
 63.1396484375 703.719726562 l 5,71,-1
 63.1396484375 726.219726562 l 5,72,-1
 85.6396484375 726.219726562 l 5,73,-1
 263.200195312 726.219726562 l 5,74,-1
 285.700195312 726.219726562 l 5,75,-1
 285.700195312 703.719726562 l 5,76,-1
 285.700195312 666.919921875 l 5,77,-1
 285.700195312 630.120117188 l 5,78,-1
 285.700195312 607.620117188 l 5,79,-1
 263.200195312 607.620117188 l 5,80,-1
 85.6396484375 607.620117188 l 5,81,-1
 63.1396484375 607.620117188 l 5,82,-1
 63.1396484375 630.120117188 l 5,83,-1
 63.1396484375 666.919921875 l 5,70,-1
405.379882812 666.919921875 m 5,84,-1
 405.379882812 703.719726562 l 5,85,-1
 405.379882812 726.219726562 l 5,86,-1
 427.879882812 726.219726562 l 5,87,-1
 606.360351562 726.219726562 l 5,88,-1
 628.860351562 726.219726562 l 5,89,-1
 628.860351562 703.719726562 l 5,90,-1
 628.860351562 666.919921875 l 5,91,-1
 628.860351562 630.120117188 l 5,92,-1
 628.860351562 607.620117188 l 5,93,-1
 606.360351562 607.620117188 l 5,94,-1
 427.879882812 607.620117188 l 5,95,-1
 405.379882812 607.620117188 l 5,96,-1
 405.379882812 630.120117188 l 5,97,-1
 405.379882812 666.919921875 l 5,84,-1
EndSplineSet
EndChar

StartChar: I
Encoding: 73 73 44
Width: 357
VWidth: 949
Flags: W
LayerCount: 2
Fore
SplineSet
176.040039062 45.580078125 m 5,0,-1
 139.240234375 45.580078125 l 5,1,-1
 116.740234375 45.580078125 l 5,2,-1
 116.740234375 68.080078125 l 5,3,-1
 116.740234375 667.919921875 l 5,4,-1
 116.740234375 690.419921875 l 5,5,-1
 139.240234375 690.419921875 l 5,6,-1
 176.040039062 690.419921875 l 5,7,-1
 212.83984375 690.419921875 l 5,8,-1
 235.33984375 690.419921875 l 5,9,-1
 235.33984375 667.919921875 l 5,10,-1
 235.33984375 68.080078125 l 5,11,-1
 235.33984375 45.580078125 l 5,12,-1
 212.83984375 45.580078125 l 5,13,-1
 176.040039062 45.580078125 l 5,0,-1
65.2197265625 60.080078125 m 5,14,-1
 65.2197265625 96.8798828125 l 5,15,-1
 65.2197265625 119.379882812 l 5,16,-1
 87.7197265625 119.379882812 l 5,17,-1
 265.280273438 119.379882812 l 5,18,-1
 287.780273438 119.379882812 l 5,19,-1
 287.780273438 96.8798828125 l 5,20,-1
 287.780273438 60.080078125 l 5,21,-1
 287.780273438 23.2802734375 l 5,22,-1
 287.780273438 0.7802734375 l 5,23,-1
 265.280273438 0.7802734375 l 5,24,-1
 87.7197265625 0.7802734375 l 5,25,-1
 65.2197265625 0.7802734375 l 5,26,-1
 65.2197265625 23.2802734375 l 5,27,-1
 65.2197265625 60.080078125 l 5,14,-1
65.2197265625 667.919921875 m 5,28,-1
 65.2197265625 704.719726562 l 5,29,-1
 65.2197265625 727.219726562 l 5,30,-1
 87.7197265625 727.219726562 l 5,31,-1
 265.280273438 727.219726562 l 5,32,-1
 287.780273438 727.219726562 l 5,33,-1
 287.780273438 704.719726562 l 5,34,-1
 287.780273438 667.919921875 l 5,35,-1
 287.780273438 631.120117188 l 5,36,-1
 287.780273438 608.620117188 l 5,37,-1
 265.280273438 608.620117188 l 5,38,-1
 87.7197265625 608.620117188 l 5,39,-1
 65.2197265625 608.620117188 l 5,40,-1
 65.2197265625 631.120117188 l 5,41,-1
 65.2197265625 667.919921875 l 5,28,-1
EndSplineSet
EndChar

StartChar: J
Encoding: 74 74 45
Width: 405
VWidth: 949
Flags: W
LayerCount: 2
Fore
SplineSet
78.3505859375 77.2763671875 m 6,0,-1
 81.029296875 95.130859375 l 5,1,-1
 84.4921875 118.20703125 l 5,2,-1
 107.426757812 113.90625 l 6,3,4
 124 111 124 111 139.610351562 114.837890625 c 4,5,6
 155.615234375 118.881835938 155.615234375 118.881835938 169.2265625 131.491210938 c 4,7,8
 203 162 203 162 207.217773438 203.671875 c 4,9,10
 209.25390625 218.006835938 209.25390625 218.006835938 209.580078125 227.032226562 c 6,11,-1
 209.580078125 605.532226562 l 5,12,-1
 117.080078125 605.532226562 l 5,13,-1
 94.580078125 605.532226562 l 5,14,-1
 94.580078125 628.032226562 l 5,15,-1
 94.580078125 664.83203125 l 5,16,-1
 94.580078125 701.6328125 l 5,17,-1
 94.580078125 724.1328125 l 5,18,-1
 117.080078125 724.1328125 l 5,19,-1
 287.280273438 724.1328125 l 6,20,21
 294.309570312 723.934570312 294.309570312 723.934570312 299.200195312 723.446289062 c 6,22,-1
 301.540039062 723.211914062 l 6,23,24
 311 722 311 722 316.122070312 718.287109375 c 4,25,26
 324 712 324 712 325.650390625 706.768554688 c 4,27,28
 328 696 328 696 328.1796875 695.65234375 c 6,29,-1
 328.1796875 690.592773438 l 5,30,-1
 328.1796875 683.232421875 l 5,31,-1
 328.1796875 227.032226562 l 6,32,33
 328 221 328 221 327.923828125 215.900390625 c 4,34,35
 328 210 328 210 327.162109375 204.744140625 c 4,36,37
 327 199 327 199 325.901367188 193.631835938 c 4,38,39
 325 188 325 188 324.151367188 182.607421875 c 4,40,41
 309 96 309 96 243.010742188 39.2607421875 c 4,42,43
 175.301757812 -18.7412109375 175.301757812 -18.7412109375 87.365234375 -3.037109375 c 6,44,-1
 65.1962890625 0.921875 l 5,45,-1
 69.173828125 23.0869140625 l 5,46,-1
 75.259765625 56.9951171875 l 5,47,-1
 75.259765625 59.3505859375 l 5,48,-1
 75.4853515625 60.93359375 l 6,49,50
 76 62 76 62 78.3505859375 77.2763671875 c 6,0,-1
EndSplineSet
EndChar

StartChar: K
Encoding: 75 75 46
Width: 701
VWidth: 949
Flags: W
LayerCount: 2
Fore
SplineSet
173.799804688 38.580078125 m 5,0,-1
 137 38.580078125 l 5,1,-1
 114.5 38.580078125 l 5,2,-1
 114.5 61.080078125 l 5,3,-1
 114.5 665.919921875 l 5,4,-1
 114.5 688.419921875 l 5,5,-1
 137 688.419921875 l 5,6,-1
 173.799804688 688.419921875 l 5,7,-1
 210.599609375 688.419921875 l 5,8,-1
 233.099609375 688.419921875 l 5,9,-1
 233.099609375 665.919921875 l 5,10,-1
 233.099609375 61.080078125 l 5,11,-1
 233.099609375 38.580078125 l 5,12,-1
 210.599609375 38.580078125 l 5,13,-1
 173.799804688 38.580078125 l 5,0,-1
158.607421875 323.643554688 m 5,14,-1
 131.788085938 348.612304688 l 5,15,-1
 115.41015625 363.861328125 l 5,16,-1
 130.569335938 380.322265625 l 5,17,-1
 430.489257812 706.001953125 l 5,18,-1
 445.814453125 722.643554688 l 5,19,-1
 462.372070312 707.227539062 l 5,20,-1
 488.912109375 682.516601562 l 5,21,-1
 516.372070312 657.8046875 l 5,22,-1
 533.2890625 642.580078125 l 5,23,-1
 517.87109375 625.837890625 l 5,24,-1
 217.951171875 300.158203125 l 5,25,-1
 202.8828125 283.795898438 l 5,26,-1
 186.348632812 298.67578125 l 5,27,-1
 158.607421875 323.643554688 l 5,14,-1
253.950195312 425.953125 m 5,28,-1
 270.045898438 446.877929688 l 5,29,-1
 286.76953125 468.62109375 l 5,30,-1
 304.821289062 447.966796875 l 5,31,-1
 604.741210938 99.806640625 l 5,32,-1
 619.609375 82.794921875 l 5,33,-1
 602.536132812 67.9970703125 l 5,34,-1
 574.798828125 43.9580078125 l 5,35,-1
 546.138671875 19.9208984375 l 5,36,-1
 529.268554688 5.7724609375 l 5,37,-1
 514.7578125 22.3310546875 l 5,38,-1
 214.837890625 369.571289062 l 5,39,-1
 197.8203125 388.990234375 l 5,40,-1
 219.384765625 403.19140625 l 5,41,-1
 253.950195312 425.953125 l 5,28,-1
62.98046875 61.080078125 m 5,42,-1
 62.98046875 97.8798828125 l 5,43,-1
 62.98046875 120.379882812 l 5,44,-1
 85.48046875 120.379882812 l 5,45,-1
 263.040039062 120.379882812 l 5,46,-1
 285.540039062 120.379882812 l 5,47,-1
 285.540039062 97.8798828125 l 5,48,-1
 285.540039062 61.080078125 l 5,49,-1
 285.540039062 24.2802734375 l 5,50,-1
 285.540039062 1.7802734375 l 5,51,-1
 263.040039062 1.7802734375 l 5,52,-1
 85.48046875 1.7802734375 l 5,53,-1
 62.98046875 1.7802734375 l 5,54,-1
 62.98046875 24.2802734375 l 5,55,-1
 62.98046875 61.080078125 l 5,42,-1
62.98046875 665.919921875 m 5,56,-1
 62.98046875 702.719726562 l 5,57,-1
 62.98046875 725.219726562 l 5,58,-1
 85.48046875 725.219726562 l 5,59,-1
 263.040039062 725.219726562 l 5,60,-1
 285.540039062 725.219726562 l 5,61,-1
 285.540039062 702.719726562 l 5,62,-1
 285.540039062 665.919921875 l 5,63,-1
 285.540039062 629.120117188 l 5,64,-1
 285.540039062 606.620117188 l 5,65,-1
 263.040039062 606.620117188 l 5,66,-1
 85.48046875 606.620117188 l 5,67,-1
 62.98046875 606.620117188 l 5,68,-1
 62.98046875 629.120117188 l 5,69,-1
 62.98046875 665.919921875 l 5,56,-1
362.900390625 665.919921875 m 5,70,-1
 362.900390625 702.719726562 l 5,71,-1
 362.900390625 725.219726562 l 5,72,-1
 385.400390625 725.219726562 l 5,73,-1
 562.959960938 725.219726562 l 5,74,-1
 585.459960938 725.219726562 l 5,75,-1
 585.459960938 702.719726562 l 5,76,-1
 585.459960938 665.919921875 l 5,77,-1
 585.459960938 629.120117188 l 5,78,-1
 585.459960938 606.620117188 l 5,79,-1
 562.959960938 606.620117188 l 5,80,-1
 385.400390625 606.620117188 l 5,81,-1
 362.900390625 606.620117188 l 5,82,-1
 362.900390625 629.120117188 l 5,83,-1
 362.900390625 665.919921875 l 5,70,-1
448.459960938 61.080078125 m 5,84,-1
 448.459960938 97.8798828125 l 5,85,-1
 448.459960938 120.379882812 l 5,86,-1
 470.959960938 120.379882812 l 5,87,-1
 648.51953125 120.379882812 l 5,88,-1
 671.01953125 120.379882812 l 5,89,-1
 671.01953125 97.8798828125 l 5,90,-1
 671.01953125 61.080078125 l 5,91,-1
 671.01953125 24.2802734375 l 5,92,-1
 671.01953125 1.7802734375 l 5,93,-1
 648.51953125 1.7802734375 l 5,94,-1
 470.959960938 1.7802734375 l 5,95,-1
 448.459960938 1.7802734375 l 5,96,-1
 448.459960938 24.2802734375 l 5,97,-1
 448.459960938 61.080078125 l 5,84,-1
EndSplineSet
EndChar

StartChar: L
Encoding: 76 76 47
Width: 644
VWidth: 949
Flags: W
LayerCount: 2
Fore
SplineSet
177.6796875 44.580078125 m 5,0,-1
 140.879882812 44.580078125 l 5,1,-1
 118.379882812 44.580078125 l 5,2,-1
 118.379882812 67.080078125 l 5,3,-1
 118.379882812 666.919921875 l 5,4,-1
 118.379882812 689.419921875 l 5,5,-1
 140.879882812 689.419921875 l 5,6,-1
 177.6796875 689.419921875 l 5,7,-1
 214.48046875 689.419921875 l 5,8,-1
 236.98046875 689.419921875 l 5,9,-1
 236.98046875 666.919921875 l 5,10,-1
 236.98046875 67.080078125 l 5,11,-1
 236.98046875 44.580078125 l 5,12,-1
 214.48046875 44.580078125 l 5,13,-1
 177.6796875 44.580078125 l 5,0,-1
66.8603515625 61.080078125 m 5,14,-1
 66.8603515625 97.8798828125 l 5,15,-1
 66.8603515625 120.379882812 l 5,16,-1
 89.3603515625 120.379882812 l 5,17,-1
 461.540039062 120.379882812 l 5,18,-1
 461.540039062 159.51953125 l 5,19,-1
 461.540039062 182.01953125 l 5,20,-1
 484.040039062 182.01953125 l 5,21,-1
 520.83984375 182.01953125 l 5,22,-1
 557.639648438 182.01953125 l 5,23,-1
 580.139648438 182.01953125 l 5,24,-1
 580.139648438 159.51953125 l 5,25,-1
 580.139648438 42.6796875 l 5,26,-1
 580.139648438 37.16015625 l 5,27,-1
 580.139648438 32.5595703125 l 6,28,29
 580 32 580 32 579.243164062 24.9267578125 c 4,30,31
 577 11 577 11 565.862304688 6.455078125 c 4,32,33
 562.190429688 4.6005859375 562.190429688 4.6005859375 557.887695312 3.76953125 c 6,34,-1
 556.993164062 3.5966796875 l 6,35,36
 554 3 554 3 553.80078125 3.0146484375 c 4,37,38
 553 3 553 3 550.241210938 2.466796875 c 6,39,-1
 539.240234375 1.7802734375 l 5,40,-1
 89.3603515625 1.7802734375 l 5,41,-1
 66.8603515625 1.7802734375 l 5,42,-1
 66.8603515625 24.2802734375 l 5,43,-1
 66.8603515625 61.080078125 l 5,14,-1
66.8603515625 666.919921875 m 5,44,-1
 66.8603515625 703.719726562 l 5,45,-1
 66.8603515625 726.219726562 l 5,46,-1
 89.3603515625 726.219726562 l 5,47,-1
 266.919921875 726.219726562 l 5,48,-1
 289.419921875 726.219726562 l 5,49,-1
 289.419921875 703.719726562 l 5,50,-1
 289.419921875 666.919921875 l 5,51,-1
 289.419921875 630.120117188 l 5,52,-1
 289.419921875 607.620117188 l 5,53,-1
 266.919921875 607.620117188 l 5,54,-1
 89.3603515625 607.620117188 l 5,55,-1
 66.8603515625 607.620117188 l 5,56,-1
 66.8603515625 630.120117188 l 5,57,-1
 66.8603515625 666.919921875 l 5,44,-1
EndSplineSet
EndChar

StartChar: M
Encoding: 77 77 48
Width: 883
VWidth: 949
Flags: W
LayerCount: 2
Fore
SplineSet
184.3203125 43.5859375 m 1,0,-1
 147.51953125 43.5859375 l 1,1,-1
 125.01953125 43.5859375 l 1,2,-1
 125.01953125 66.0859375 l 1,3,-1
 125.01953125 665.92578125 l 2,4,5
 125.01953125 691.416992188 125.01953125 691.416992188 144.21875 709.138671875 c 0,6,7
 153.391601562 717.60546875 153.391601562 717.60546875 164.743164062 721.7578125 c 128,-1,8
 176.094726562 725.91015625 176.094726562 725.91015625 188.807617188 725.163085938 c 0,9,10
 220.068359375 722.185546875 220.068359375 722.185546875 236.138671875 694.423828125 c 2,11,-1
 441 318.287109375 l 1,12,-1
 645.720703125 694.166992188 l 1,13,-1
 646.04296875 694.7578125 l 2,14,15
 653.1484375 706.127929688 653.1484375 706.127929688 662.340820312 713.19921875 c 0,16,17
 672.036132812 720.657226562 672.036132812 720.657226562 683.943359375 723.633789062 c 0,18,19
 687.903320312 724.624023438 687.903320312 724.624023438 691.974609375 725.04296875 c 128,-1,20
 696.045898438 725.461914062 696.045898438 725.461914062 700.151367188 725.296875 c 128,-1,21
 704.256835938 725.131835938 704.256835938 725.131835938 708.265625 724.379882812 c 0,22,23
 719.352539062 722.301757812 719.352539062 722.301757812 729.514648438 716.495117188 c 0,24,25
 743.173828125 707.868164062 743.173828125 707.868164062 750.537109375 694.717773438 c 128,-1,26
 757.900390625 681.568359375 757.900390625 681.568359375 757.900390625 665.92578125 c 2,27,-1
 757.900390625 66.0859375 l 1,28,-1
 757.900390625 43.5859375 l 1,29,-1
 735.400390625 43.5859375 l 1,30,-1
 698.599609375 43.5859375 l 1,31,-1
 661.799804688 43.5859375 l 1,32,-1
 639.299804688 43.5859375 l 1,33,-1
 639.299804688 66.0859375 l 1,34,-1
 639.299804688 433.625976562 l 1,35,-1
 492.899414062 166.533203125 l 2,36,37
 485.9375 154.004882812 485.9375 154.004882812 474.7421875 145.606445312 c 2,38,-1
 474.090820312 145.118164062 l 1,39,-1
 473.40625 144.678710938 l 2,40,41
 463.229492188 138.13671875 463.229492188 138.13671875 451.075195312 136.20703125 c 128,-1,42
 438.921875 134.27734375 438.921875 134.27734375 427.24609375 137.071289062 c 0,43,44
 401.618164062 142.928710938 401.618164062 142.928710938 388.447265625 167.73046875 c 2,45,-1
 243.620117188 433.248046875 l 1,46,-1
 243.620117188 66.0859375 l 1,47,-1
 243.620117188 43.5859375 l 1,48,-1
 221.120117188 43.5859375 l 1,49,-1
 184.3203125 43.5859375 l 1,0,-1
206.8203125 665.92578125 m 1,50,-1
 206.8203125 629.125976562 l 1,51,-1
 206.8203125 606.625976562 l 1,52,-1
 184.3203125 606.625976562 l 1,53,-1
 95.080078125 606.625976562 l 1,54,-1
 72.580078125 606.625976562 l 1,55,-1
 72.580078125 629.125976562 l 1,56,-1
 72.580078125 665.92578125 l 1,57,-1
 72.580078125 702.725585938 l 1,58,-1
 72.580078125 725.225585938 l 1,59,-1
 95.080078125 725.225585938 l 1,60,-1
 184.3203125 725.225585938 l 1,61,-1
 206.8203125 725.225585938 l 1,62,-1
 206.8203125 702.725585938 l 1,63,-1
 206.8203125 665.92578125 l 1,50,-1
809.419921875 665.92578125 m 1,64,-1
 809.419921875 629.125976562 l 1,65,-1
 809.419921875 606.625976562 l 1,66,-1
 786.919921875 606.625976562 l 1,67,-1
 698.599609375 606.625976562 l 1,68,-1
 676.099609375 606.625976562 l 1,69,-1
 676.099609375 629.125976562 l 1,70,-1
 676.099609375 665.92578125 l 1,71,-1
 676.099609375 702.725585938 l 1,72,-1
 676.099609375 725.225585938 l 1,73,-1
 698.599609375 725.225585938 l 1,74,-1
 786.919921875 725.225585938 l 1,75,-1
 809.419921875 725.225585938 l 1,76,-1
 809.419921875 702.725585938 l 1,77,-1
 809.419921875 665.92578125 l 1,64,-1
72.580078125 61.0859375 m 1,78,-1
 72.580078125 97.8857421875 l 1,79,-1
 72.580078125 120.385742188 l 1,80,-1
 95.080078125 120.385742188 l 1,81,-1
 272.639648438 120.385742188 l 1,82,-1
 295.139648438 120.385742188 l 1,83,-1
 295.139648438 97.8857421875 l 1,84,-1
 295.139648438 61.0859375 l 1,85,-1
 295.139648438 24.2861328125 l 1,86,-1
 295.139648438 1.7861328125 l 1,87,-1
 272.639648438 1.7861328125 l 1,88,-1
 95.080078125 1.7861328125 l 1,89,-1
 72.580078125 1.7861328125 l 1,90,-1
 72.580078125 24.2861328125 l 1,91,-1
 72.580078125 61.0859375 l 1,78,-1
586.860351562 61.0859375 m 1,92,-1
 586.860351562 97.8857421875 l 1,93,-1
 586.860351562 120.385742188 l 1,94,-1
 609.360351562 120.385742188 l 1,95,-1
 786.919921875 120.385742188 l 1,96,-1
 809.419921875 120.385742188 l 1,97,-1
 809.419921875 97.8857421875 l 1,98,-1
 809.419921875 61.0859375 l 1,99,-1
 809.419921875 24.2861328125 l 1,100,-1
 809.419921875 1.7861328125 l 1,101,-1
 786.919921875 1.7861328125 l 1,102,-1
 609.360351562 1.7861328125 l 1,103,-1
 586.860351562 1.7861328125 l 1,104,-1
 586.860351562 24.2861328125 l 1,105,-1
 586.860351562 61.0859375 l 1,92,-1
EndSplineSet
EndChar

StartChar: N
Encoding: 78 78 49
Width: 786
VWidth: 949
Flags: W
LayerCount: 2
Fore
SplineSet
179.48046875 44.5869140625 m 1,0,-1
 142.6796875 44.5869140625 l 1,1,-1
 120.1796875 44.5869140625 l 1,2,-1
 120.1796875 67.0869140625 l 1,3,-1
 120.1796875 666.926757812 l 2,4,5
 120 684 120 684 129.176757812 698.721679688 c 0,6,7
 138 713 138 713 152.858398438 720.171875 c 0,8,9
 167 727 167 727 183.724609375 726.19140625 c 0,10,11
 212.126953125 723.990234375 212.126953125 723.990234375 228.264648438 701.001953125 c 2,12,-1
 548.900390625 244.276367188 l 1,13,-1
 548.900390625 666.926757812 l 1,14,-1
 548.900390625 689.426757812 l 1,15,-1
 571.400390625 689.426757812 l 1,16,-1
 608.200195312 689.426757812 l 1,17,-1
 645 689.426757812 l 1,18,-1
 667.5 689.426757812 l 1,19,-1
 667.5 666.926757812 l 1,20,-1
 667.5 59.0869140625 l 2,21,22
 668 33 668 33 646.989257812 14.5830078125 c 0,23,24
 627 -3 627 -3 600.504882812 0.4609375 c 128,-1,25
 574.184570312 3.9755859375 574.184570312 3.9755859375 559.533203125 24.845703125 c 2,26,-1
 238.780273438 481.737304688 l 1,27,-1
 238.780273438 67.0869140625 l 1,28,-1
 238.780273438 44.5869140625 l 1,29,-1
 216.280273438 44.5869140625 l 1,30,-1
 179.48046875 44.5869140625 l 1,0,-1
68.66015625 61.0869140625 m 1,31,-1
 68.66015625 97.88671875 l 1,32,-1
 68.66015625 120.38671875 l 1,33,-1
 91.16015625 120.38671875 l 1,34,-1
 268.719726562 120.38671875 l 1,35,-1
 291.219726562 120.38671875 l 1,36,-1
 291.219726562 97.88671875 l 1,37,-1
 291.219726562 61.0869140625 l 1,38,-1
 291.219726562 24.287109375 l 1,39,-1
 291.219726562 1.787109375 l 1,40,-1
 268.719726562 1.787109375 l 1,41,-1
 91.16015625 1.787109375 l 1,42,-1
 68.66015625 1.787109375 l 1,43,-1
 68.66015625 24.287109375 l 1,44,-1
 68.66015625 61.0869140625 l 1,31,-1
496.459960938 666.926757812 m 1,45,-1
 496.459960938 703.7265625 l 1,46,-1
 496.459960938 726.2265625 l 1,47,-1
 518.959960938 726.2265625 l 1,48,-1
 697.440429688 726.2265625 l 1,49,-1
 719.940429688 726.2265625 l 1,50,-1
 719.940429688 703.7265625 l 1,51,-1
 719.940429688 666.926757812 l 1,52,-1
 719.940429688 630.126953125 l 1,53,-1
 719.940429688 607.626953125 l 1,54,-1
 697.440429688 607.626953125 l 1,55,-1
 518.959960938 607.626953125 l 1,56,-1
 496.459960938 607.626953125 l 1,57,-1
 496.459960938 630.126953125 l 1,58,-1
 496.459960938 666.926757812 l 1,45,-1
64.0595703125 666.926757812 m 1,59,-1
 64.0595703125 703.7265625 l 1,60,-1
 64.0595703125 726.2265625 l 1,61,-1
 86.5595703125 726.2265625 l 1,62,-1
 179.48046875 726.2265625 l 1,63,-1
 201.98046875 726.2265625 l 1,64,-1
 201.98046875 703.7265625 l 1,65,-1
 201.98046875 666.926757812 l 1,66,-1
 201.98046875 630.126953125 l 1,67,-1
 201.98046875 607.626953125 l 1,68,-1
 179.48046875 607.626953125 l 1,69,-1
 86.5595703125 607.626953125 l 1,70,-1
 64.0595703125 607.626953125 l 1,71,-1
 64.0595703125 630.126953125 l 1,72,-1
 64.0595703125 666.926757812 l 1,59,-1
EndSplineSet
EndChar

StartChar: O
Encoding: 79 79 50
Width: 868
VWidth: 950
Flags: W
LayerCount: 2
Fore
SplineSet
198.90234375 619.760742188 m 5,0,-1
 227.422851562 595.840820312 l 5,1,-1
 244.84765625 581.2265625 l 5,2,-1
 230.046875 563.958984375 l 6,3,4
 199.323242188 528.114257812 199.323242188 528.114257812 183.223632812 488.2890625 c 4,5,6
 175.1875 468.411132812 175.1875 468.411132812 170.778320312 448.145507812 c 132,-1,7
 166.368164062 427.879882812 166.368164062 427.879882812 165.525390625 407.033203125 c 4,8,9
 163.84375 365.405273438 163.84375 365.405273438 175.090820312 329.580078125 c 4,10,11
 186.779296875 292.352539062 186.779296875 292.352539062 205.342773438 259.97265625 c 132,-1,12
 223.809570312 227.762695312 223.809570312 227.762695312 250.547851562 199.299804688 c 4,13,14
 286.478515625 160.802734375 286.478515625 160.802734375 331.202148438 138.227539062 c 132,-1,15
 376.057617188 115.5859375 376.057617188 115.5859375 422.370117188 109.637695312 c 4,16,17
 467.840820312 103.796875 467.840820312 103.796875 519.903320312 119.03515625 c 4,18,19
 532.668945312 122.771484375 532.668945312 122.771484375 545.116210938 128.2265625 c 132,-1,20
 557.564453125 133.680664062 557.564453125 133.680664062 569.836914062 140.935546875 c 132,-1,21
 582.109375 148.190429688 582.109375 148.190429688 594.192382812 157.3203125 c 132,-1,22
 606.275390625 166.450195312 606.275390625 166.450195312 618.104492188 177.418945312 c 6,23,-1
 634.2734375 192.412109375 l 5,24,-1
 649.58984375 176.549804688 l 5,25,-1
 675.4921875 149.72265625 l 5,26,-1
 700.471679688 122.893554688 l 5,27,-1
 715.720703125 106.514648438 l 5,28,-1
 699.424804688 91.1767578125 l 6,29,30
 666.374023438 60.0712890625 666.374023438 60.0712890625 630.443359375 38.783203125 c 132,-1,31
 594.51171875 17.4951171875 594.51171875 17.4951171875 555.919921875 6.36328125 c 4,32,33
 479.837890625 -15.583984375 479.837890625 -15.583984375 410.96875 -7.712890625 c 4,34,35
 342.548828125 0.10546875 342.548828125 0.10546875 278.219726562 32.7578125 c 132,-1,36
 214.01171875 65.3486328125 214.01171875 65.3486328125 164.384765625 117.89453125 c 4,37,38
 149.314453125 133.938476562 149.314453125 133.938476562 135.978515625 151.395507812 c 132,-1,39
 122.642578125 168.853515625 122.642578125 168.853515625 111.001953125 187.76953125 c 4,40,41
 88.0048828125 225.138671875 88.0048828125 225.138671875 70.7685546875 266.313476562 c 4,42,43
 52.8486328125 309.123046875 52.8486328125 309.123046875 48.8671875 355.412109375 c 4,44,45
 44.974609375 400.650390625 44.974609375 400.650390625 51.7412109375 451.39453125 c 4,46,47
 58.6328125 503.086914062 58.6328125 503.086914062 80.7734375 550.809570312 c 4,48,49
 102.734375 598.1484375 102.734375 598.1484375 138.703125 640.921875 c 6,50,-1
 153.165039062 658.12109375 l 5,51,-1
 170.3828125 643.680664062 l 5,52,-1
 198.90234375 619.760742188 l 5,0,-1
643.115234375 118.470703125 m 5,53,-1
 617.216796875 145.291992188 l 5,54,-1
 601.860351562 161.197265625 l 5,55,-1
 617.493164062 176.831054688 l 6,56,57
 619 179 619 179 620.95703125 180.34375 c 4,58,59
 623 182 623 182 624.356445312 183.900390625 c 4,60,61
 626 186 626 186 627.834960938 187.655273438 c 4,62,63
 630 190 630 190 631.489257812 191.713867188 c 4,64,65
 667 230 667 230 687.350585938 295.45703125 c 4,66,67
 696 323 696 323 697.076171875 349.234375 c 4,68,69
 698 391 698 391 695.8984375 402.204101562 c 4,70,71
 681 466 681 466 662.455078125 497.67578125 c 4,72,73
 643 531 643 531 593.376953125 574.879882812 c 4,74,75
 574 592 574 592 553.204101562 605.875976562 c 4,76,77
 532 619 532 619 509.77734375 628.66015625 c 4,78,79
 465 647 465 647 418.430664062 648.5703125 c 4,80,81
 399 649 399 649 395.2734375 647.943359375 c 4,82,83
 379 642 379 642 371.477539062 644.796875 c 4,84,85
 371 645 371 645 346.920898438 639.059570312 c 4,86,87
 334 636 334 636 321.662109375 630.6953125 c 4,88,89
 297 621 297 621 273.943359375 604.537109375 c 4,90,91
 251.213867188 588.154296875 251.213867188 588.154296875 228.940429688 562.82421875 c 6,92,-1
 213.911132812 545.731445312 l 5,93,-1
 196.9921875 560.95703125 l 5,94,-1
 169.391601562 585.797851562 l 5,95,-1
 141.791992188 610.637695312 l 5,96,-1
 125.185546875 625.583007812 l 5,97,-1
 140.013671875 642.294921875 l 6,98,99
 161 666 161 666 182.206054688 683.771484375 c 4,100,101
 204 702 204 702 227.625976562 716.537109375 c 4,102,103
 251 731 251 731 276.196289062 740.365234375 c 4,104,105
 350 769 350 769 418.766601562 766.692382812 c 4,106,107
 487 765 487 765 553.11328125 737.8984375 c 4,108,109
 619 711 619 711 673.145507812 663.080078125 c 4,110,111
 700 639 700 639 722.370117188 612.145507812 c 4,112,113
 757 569 757 569 764.23828125 556.528320312 c 4,114,115
 775 536 775 536 784.479492188 514.044921875 c 132,-1,116
 794 492 794 492 800.442382812 468.43359375 c 132,-1,117
 807 445 807 445 812.14453125 419.763671875 c 4,118,119
 826 353 826 353 800.397460938 261.459960938 c 4,120,121
 788 217 788 217 767.62109375 179.5234375 c 4,122,123
 754 155 754 155 719.873046875 112.556640625 c 4,124,125
 717 109 717 109 713.625 105.791015625 c 4,126,127
 710 102 710 102 707.21484375 99.0615234375 c 4,128,129
 704 96 704 96 700.833984375 92.5712890625 c 6,130,-1
 684.923828125 76.662109375 l 5,131,-1
 669.013671875 92.5712890625 l 5,132,-1
 643.115234375 118.470703125 l 5,53,-1
EndSplineSet
EndChar

StartChar: P
Encoding: 80 80 51
Width: 600
VWidth: 949
Flags: W
LayerCount: 2
Fore
SplineSet
241.873046875 382.029296875 m 5,0,1
 321.08203125 382.662109375 321.08203125 382.662109375 366.654296875 393.001953125 c 4,2,3
 389.943359375 398.286132812 389.943359375 398.286132812 405.725585938 409.505859375 c 132,-1,4
 421.5078125 420.725585938 421.5078125 420.725585938 431.586914062 438.643554688 c 4,5,6
 438.639648438 451.263671875 438.639648438 451.263671875 440.99609375 463.395507812 c 132,-1,7
 443.3515625 475.52734375 443.3515625 475.52734375 441.3984375 488.135742188 c 4,8,9
 439.319335938 501.556640625 439.319335938 501.556640625 433.625 514.272460938 c 132,-1,10
 427.930664062 526.98828125 427.930664062 526.98828125 418.272460938 539.40625 c 4,11,12
 398.424804688 564.924804688 398.424804688 564.924804688 367.315429688 582.936523438 c 4,13,14
 361.778320312 586.099609375 361.778320312 586.099609375 356.685546875 588.450195312 c 4,15,16
 353.881835938 589.744140625 353.881835938 589.744140625 351.1953125 590.926757812 c 132,-1,17
 348.508789062 592.108398438 348.508789062 592.108398438 345.9609375 593.170898438 c 4,18,19
 341.998046875 594.821289062 341.998046875 594.821289062 336.27734375 596.251953125 c 6,20,-1
 325.2890625 598.702148438 l 6,21,22
 323.423828125 599.041992188 323.423828125 599.041992188 320.190429688 599.458984375 c 132,-1,23
 316.95703125 599.876953125 316.95703125 599.876953125 312.813476562 600.291015625 c 4,24,25
 302.881835938 601.284179688 302.881835938 601.284179688 296.629882812 602.326171875 c 4,26,27
 292.502929688 603.014648438 292.502929688 603.014648438 282.4140625 603.41796875 c 4,28,29
 270.615234375 603.890625 270.615234375 603.890625 263.416992188 604.370117188 c 4,30,31
 256.913085938 604.803710938 256.913085938 604.803710938 242.58984375 605.250976562 c 4,32,33
 242.380859375 605.2578125 242.380859375 605.2578125 242.126953125 507.358398438 c 132,-1,34
 241.873046875 409.459960938 241.873046875 409.459960938 241.873046875 382.029296875 c 5,0,1
241.873046875 263.005859375 m 5,35,-1
 241.873046875 66.080078125 l 5,36,-1
 241.873046875 43.580078125 l 5,37,-1
 219.373046875 43.580078125 l 5,38,-1
 182.573242188 43.580078125 l 5,39,-1
 145.7734375 43.580078125 l 5,40,-1
 123.2734375 43.580078125 l 5,41,-1
 123.2734375 66.080078125 l 5,42,-1
 123.2734375 322.759765625 l 5,43,-1
 123.2734375 665.919921875 l 6,44,45
 123.2734375 691.432617188 123.2734375 691.432617188 142.040039062 708.698242188 c 4,46,47
 150.51953125 716.499023438 150.51953125 716.499023438 160.947265625 720.859375 c 132,-1,48
 171.375 725.219726562 171.375 725.219726562 182.573242188 725.219726562 c 4,49,50
 207.059570312 725.219726562 207.059570312 725.219726562 228.172851562 724.849609375 c 132,-1,51
 249.286132812 724.48046875 249.286132812 724.48046875 267.540039062 723.723632812 c 132,-1,52
 285.79296875 722.965820312 285.79296875 722.965820312 301.01171875 721.80078125 c 132,-1,53
 316.23046875 720.635742188 316.23046875 720.635742188 328.505859375 719.055664062 c 4,54,55
 338.673828125 717.747070312 338.673828125 717.747070312 348.67578125 715.6484375 c 132,-1,56
 358.676757812 713.548828125 358.676757812 713.548828125 368.4765625 710.669921875 c 132,-1,57
 378.276367188 707.790039062 378.276367188 707.790039062 387.890625 704.130859375 c 132,-1,58
 397.504882812 700.470703125 397.504882812 700.470703125 406.91015625 696.040039062 c 132,-1,59
 416.315429688 691.609375 416.315429688 691.609375 425.517578125 686.408203125 c 4,60,61
 511.6796875 637.31640625 511.6796875 637.31640625 544.916015625 550.19921875 c 4,62,63
 561.70703125 506.400390625 561.70703125 506.400390625 559.079101562 463.192382812 c 132,-1,64
 556.452148438 419.984375 556.452148438 419.984375 534.393554688 379.970703125 c 4,65,66
 517.764648438 349.830078125 517.764648438 349.830078125 492.709960938 327.907226562 c 4,67,68
 468.112304688 306.383789062 468.112304688 306.383789062 441.603515625 294.4296875 c 4,69,70
 416.467773438 283.09375 416.467773438 283.09375 387.090820312 275.259765625 c 4,71,72
 383.370117188 274.267578125 383.370117188 274.267578125 379.653320312 273.375 c 132,-1,73
 375.935546875 272.483398438 375.935546875 272.483398438 372.217773438 271.689453125 c 132,-1,74
 368.5 270.896484375 368.5 270.896484375 364.784179688 270.203125 c 132,-1,75
 361.069335938 269.509765625 361.069335938 269.509765625 357.35546875 268.916992188 c 132,-1,76
 353.642578125 268.32421875 353.642578125 268.32421875 349.930664062 267.83203125 c 132,-1,77
 346.21875 267.33984375 346.21875 267.33984375 342.512695312 266.948242188 c 132,-1,78
 338.805664062 266.556640625 338.805664062 266.556640625 335.099609375 266.266601562 c 132,-1,79
 331.393554688 265.9765625 331.393554688 265.9765625 327.6953125 265.7890625 c 4,80,81
 300.356445312 264.3984375 300.356445312 264.3984375 272.5625 263.47265625 c 4,82,83
 257.295898438 262.963867188 257.295898438 262.963867188 241.873046875 263.005859375 c 5,35,-1
71.7529296875 61.080078125 m 5,84,-1
 71.7529296875 97.8798828125 l 5,85,-1
 71.7529296875 120.379882812 l 5,86,-1
 94.2529296875 120.379882812 l 5,87,-1
 274.573242188 120.379882812 l 5,88,-1
 297.073242188 120.379882812 l 5,89,-1
 297.073242188 97.8798828125 l 5,90,-1
 297.073242188 61.080078125 l 5,91,-1
 297.073242188 24.2802734375 l 5,92,-1
 297.073242188 1.7802734375 l 5,93,-1
 274.573242188 1.7802734375 l 5,94,-1
 94.2529296875 1.7802734375 l 5,95,-1
 71.7529296875 1.7802734375 l 5,96,-1
 71.7529296875 24.2802734375 l 5,97,-1
 71.7529296875 61.080078125 l 5,84,-1
71.7529296875 665.919921875 m 5,98,-1
 71.7529296875 702.719726562 l 5,99,-1
 71.7529296875 725.219726562 l 5,100,-1
 94.2529296875 725.219726562 l 5,101,-1
 182.573242188 725.219726562 l 5,102,-1
 205.073242188 725.219726562 l 5,103,-1
 205.073242188 702.719726562 l 5,104,-1
 205.073242188 665.919921875 l 5,105,-1
 205.073242188 629.120117188 l 5,106,-1
 205.073242188 606.620117188 l 5,107,-1
 182.573242188 606.620117188 l 5,108,-1
 94.2529296875 606.620117188 l 5,109,-1
 71.7529296875 606.620117188 l 5,110,-1
 71.7529296875 629.120117188 l 5,111,-1
 71.7529296875 665.919921875 l 5,98,-1
EndSplineSet
EndChar

StartChar: Q
Encoding: 81 81 52
Width: 859
VWidth: 950
Flags: W
LayerCount: 2
Fore
SplineSet
196.90234375 619.524414062 m 5,0,-1
 225.422851562 595.604492188 l 5,1,-1
 242.84765625 580.990234375 l 5,2,-1
 228.046875 563.72265625 l 6,3,4
 212.610351562 545.712890625 212.610351562 545.712890625 200.932617188 526.817382812 c 132,-1,5
 189.255859375 507.921875 189.255859375 507.921875 181.223632812 488.052734375 c 4,6,7
 165.208007812 448.43359375 165.208007812 448.43359375 163.525390625 406.796875 c 4,8,9
 162.959960938 392.806640625 162.959960938 392.806640625 163.850585938 379.510742188 c 132,-1,10
 164.741210938 366.21484375 164.741210938 366.21484375 167.048828125 353.725585938 c 132,-1,11
 169.357421875 341.236328125 169.357421875 341.236328125 173.090820312 329.344726562 c 4,12,13
 178.946289062 310.694335938 178.946289062 310.694335938 186.506835938 293.303710938 c 132,-1,14
 194.067382812 275.9140625 194.067382812 275.9140625 203.342773438 259.736328125 c 4,15,16
 221.809570312 227.526367188 221.809570312 227.526367188 248.547851562 199.064453125 c 4,17,18
 266.60546875 179.716796875 266.60546875 179.716796875 286.7109375 164.50390625 c 132,-1,19
 306.81640625 149.291015625 306.81640625 149.291015625 329.202148438 137.991210938 c 4,20,21
 344.236328125 130.403320312 344.236328125 130.403320312 359.390625 124.702148438 c 132,-1,22
 374.544921875 119.000976562 374.544921875 119.000976562 389.751953125 115.19140625 c 132,-1,23
 404.958984375 111.380859375 404.958984375 111.380859375 420.370117188 109.401367188 c 4,24,25
 465.840820312 103.561523438 465.840820312 103.561523438 517.903320312 118.798828125 c 4,26,27
 569.393554688 133.870117188 569.393554688 133.870117188 616.104492188 177.18359375 c 6,28,-1
 632.2734375 192.176757812 l 5,29,-1
 647.58984375 176.313476562 l 5,30,-1
 673.4921875 149.486328125 l 5,31,-1
 698.471679688 122.657226562 l 5,32,-1
 713.720703125 106.278320312 l 5,33,-1
 697.424804688 90.9404296875 l 6,34,35
 630.904296875 28.333984375 630.904296875 28.333984375 553.919921875 6.126953125 c 4,36,37
 516.080078125 -4.7890625 516.080078125 -4.7890625 479.955078125 -8.328125 c 132,-1,38
 443.829101562 -11.8671875 443.829101562 -11.8671875 408.96875 -7.94921875 c 4,39,40
 340.548828125 -0.12890625 340.548828125 -0.12890625 276.219726562 32.521484375 c 132,-1,41
 212.01171875 65.1123046875 212.01171875 65.1123046875 162.384765625 117.658203125 c 4,42,43
 132.280273438 149.706054688 132.280273438 149.706054688 109.001953125 187.533203125 c 4,44,45
 86.0048828125 224.903320312 86.0048828125 224.903320312 68.7685546875 266.077148438 c 4,46,47
 66.78125 270.826171875 66.78125 270.826171875 64.962890625 275.624023438 c 132,-1,48
 63.1455078125 280.420898438 63.1455078125 280.420898438 61.4990234375 285.263671875 c 132,-1,49
 59.853515625 290.107421875 59.853515625 290.107421875 58.3779296875 294.99609375 c 132,-1,50
 56.90234375 299.884765625 56.90234375 299.884765625 55.5986328125 304.817382812 c 132,-1,51
 54.2958984375 309.75 54.2958984375 309.75 53.1640625 314.725585938 c 132,-1,52
 52.0322265625 319.701171875 52.0322265625 319.701171875 51.072265625 324.717773438 c 132,-1,53
 50.1123046875 329.735351562 50.1123046875 329.735351562 49.3251953125 334.791992188 c 132,-1,54
 48.5380859375 339.849609375 48.5380859375 339.849609375 47.9228515625 344.946289062 c 132,-1,55
 47.30859375 350.04296875 47.30859375 350.04296875 46.8671875 355.176757812 c 4,56,57
 44.9189453125 378.028320312 44.9189453125 378.028320312 45.6435546875 401.946289062 c 132,-1,58
 46.3681640625 425.864257812 46.3681640625 425.864257812 49.7412109375 451.159179688 c 4,59,60
 56.6328125 502.850585938 56.6328125 502.850585938 78.7734375 550.57421875 c 4,61,62
 100.734375 597.913085938 100.734375 597.913085938 136.703125 640.686523438 c 6,63,-1
 151.166015625 657.884765625 l 5,64,-1
 168.3828125 643.444335938 l 5,65,-1
 196.90234375 619.524414062 l 5,0,-1
641.114257812 118.234375 m 5,66,-1
 615.216796875 145.057617188 l 5,67,-1
 599.859375 160.962890625 l 5,68,-1
 615.494140625 176.596679688 l 6,69,70
 623 184 623 184 629.489257812 191.477539062 c 4,71,72
 665 229 665 229 685.350585938 295.221679688 c 4,73,74
 702 350 702 350 690.8984375 400.96875 c 4,75,76
 676 465 676 465 657.455078125 496.440429688 c 4,77,78
 636 534 636 534 591.376953125 574.643554688 c 4,79,80
 553 610 553 610 507.77734375 628.423828125 c 4,81,82
 463 647 463 647 416.430664062 648.333984375 c 4,83,84
 363.46484375 650.234375 363.46484375 650.234375 319.662109375 630.458984375 c 4,85,86
 312 627 312 627 303.56640625 623.490234375 c 4,87,88
 296 620 296 620 287.7421875 614.841796875 c 4,89,90
 280 610 280 610 272.153320312 604.453125 c 4,91,92
 264 599 264 599 256.837890625 592.315429688 c 4,93,94
 249 586 249 586 241.755859375 578.365234375 c 4,95,96
 236.53515625 573.498046875 236.53515625 573.498046875 226.940429688 562.587890625 c 6,97,-1
 211.911132812 545.495117188 l 5,98,-1
 194.9921875 560.720703125 l 5,99,-1
 167.391601562 585.561523438 l 5,100,-1
 139.791992188 610.401367188 l 5,101,-1
 123.185546875 625.346679688 l 5,102,-1
 138.013671875 642.05859375 l 6,103,104
 159 666 159 666 180.206054688 683.53515625 c 4,105,106
 202 702 202 702 225.625976562 716.30078125 c 4,107,108
 249 731 249 731 274.196289062 740.12890625 c 4,109,110
 348 768 348 768 416.766601562 766.456054688 c 4,111,112
 485 764 485 764 551.11328125 737.662109375 c 4,113,114
 573 729 573 729 593.643554688 717.4453125 c 4,115,116
 614 706 614 706 633.682617188 692.484375 c 4,117,118
 653 679 653 679 671.145507812 662.84375 c 4,119,120
 698 639 698 639 720.370117188 611.909179688 c 4,121,122
 744 583 744 583 759.23828125 555.29296875 c 4,123,124
 770 535 770 535 779.479492188 512.80859375 c 4,125,126
 789 491 789 491 795.442382812 467.197265625 c 4,127,128
 802 444 802 444 807.14453125 418.52734375 c 4,129,130
 814 381 814 381 812.09765625 340.311523438 c 4,131,132
 810 301 810 301 798.397460938 261.223632812 c 4,133,134
 773 171 773 171 717.873046875 112.321289062 c 4,135,136
 708 102 708 102 698.833984375 92.3349609375 c 6,137,-1
 682.923828125 76.42578125 l 5,138,-1
 667.013671875 92.3349609375 l 5,139,-1
 641.114257812 118.234375 l 5,66,-1
420.934570312 359.547851562 m 5,140,-1
 450.510742188 382.655273438 l 5,141,-1
 468.229492188 396.498046875 l 5,142,-1
 482.083984375 378.7890625 l 5,143,-1
 726.8046875 65.9892578125 l 5,144,-1
 740.740234375 48.177734375 l 5,145,-1
 722.857421875 34.333984375 l 5,146,-1
 694.513671875 12.390625 l 5,147,-1
 666.168945312 -10.4697265625 l 5,148,-1
 648.451171875 -24.7578125 l 5,149,-1
 634.368164062 -6.876953125 l 5,150,-1
 388.727539062 305.002929688 l 5,151,-1
 374.96484375 322.4765625 l 5,152,-1
 392.279296875 336.439453125 l 5,153,-1
 420.934570312 359.547851562 l 5,140,-1
415.934570312 359.547851562 m 5,154,-1
 445.510742188 382.655273438 l 5,155,-1
 463.229492188 396.498046875 l 5,156,-1
 477.083984375 378.7890625 l 5,157,-1
 721.8046875 65.9892578125 l 5,158,-1
 735.740234375 48.177734375 l 5,159,-1
 717.857421875 34.333984375 l 5,160,-1
 689.513671875 12.390625 l 5,161,-1
 661.168945312 -10.4697265625 l 5,162,-1
 643.451171875 -24.7578125 l 5,163,-1
 629.368164062 -6.876953125 l 5,164,-1
 383.727539062 305.002929688 l 5,165,-1
 369.96484375 322.4765625 l 5,166,-1
 387.279296875 336.439453125 l 5,167,-1
 415.934570312 359.547851562 l 5,154,-1
EndSplineSet
EndChar

StartChar: R
Encoding: 82 82 53
Width: 669
VWidth: 949
Flags: W
LayerCount: 2
Fore
SplineSet
241.259765625 382.029296875 m 5,0,1
 320.46875 382.662109375 320.46875 382.662109375 366.041015625 393.001953125 c 4,2,3
 411.043945312 403.213867188 411.043945312 403.213867188 430.90625 438.5234375 c 4,4,5
 437.951171875 451.5 437.951171875 451.5 440.340820312 463.999023438 c 132,-1,6
 442.73046875 476.497070312 442.73046875 476.497070312 440.78515625 489.055664062 c 4,7,8
 438.698242188 502.524414062 438.698242188 502.524414062 432.94921875 515.555664062 c 132,-1,9
 427.200195312 528.5859375 427.200195312 528.5859375 417.453125 541.515625 c 4,10,11
 407.512695312 554.702148438 407.512695312 554.702148438 394.91796875 565.676757812 c 132,-1,12
 382.323242188 576.65234375 382.323242188 576.65234375 366.385742188 585.87890625 c 4,13,14
 362.662109375 588.169921875 362.662109375 588.169921875 359.319335938 589.978515625 c 132,-1,15
 355.9765625 591.788085938 355.9765625 591.788085938 353.015625 593.141601562 c 132,-1,16
 350.0546875 594.494140625 350.0546875 594.494140625 347.020507812 595.6328125 c 4,17,18
 338.607421875 598.787109375 338.607421875 598.787109375 324.8359375 600.317382812 c 4,19,20
 308.450195312 602.137695312 308.450195312 602.137695312 298.966796875 603.041992188 c 4,21,22
 296.9765625 603.231445312 296.9765625 603.231445312 293.620117188 603.442382812 c 132,-1,23
 290.263671875 603.65234375 290.263671875 603.65234375 285.682617188 603.875976562 c 132,-1,24
 281.100585938 604.099609375 281.100585938 604.099609375 275.096679688 604.333984375 c 132,-1,25
 269.092773438 604.569335938 269.092773438 604.569335938 262.194335938 604.791992188 c 4,26,27
 256.599609375 604.97265625 256.599609375 604.97265625 251.32421875 605.12109375 c 132,-1,28
 246.049804688 605.26953125 246.049804688 605.26953125 241.259765625 605.384765625 c 5,29,-1
 241.259765625 382.029296875 l 5,0,1
241.259765625 263.005859375 m 5,30,-1
 241.259765625 61.080078125 l 5,31,-1
 241.259765625 38.580078125 l 5,32,-1
 218.759765625 38.580078125 l 5,33,-1
 181.959960938 38.580078125 l 5,34,-1
 145.16015625 38.580078125 l 5,35,-1
 122.66015625 38.580078125 l 5,36,-1
 122.66015625 61.080078125 l 5,37,-1
 122.66015625 322.759765625 l 5,38,-1
 122.66015625 665.919921875 l 6,39,40
 123 693 123 693 141.426757812 708.698242188 c 4,41,42
 150 716 150 716 160.333984375 720.859375 c 4,43,44
 171 725 171 725 181.959960938 725.219726562 c 4,45,46
 212 725 212 725 231.087890625 725.104492188 c 4,47,48
 251 725 251 725 260.249023438 724.752929688 c 4,49,50
 280 724 280 724 315.728515625 721.471679688 c 4,51,52
 354 719 354 719 377.534179688 710.771484375 c 4,53,54
 401 703 401 703 425.086914062 689.063476562 c 4,55,56
 510 640 510 640 543.848632812 551.564453125 c 4,57,58
 555 522 555 522 557.848632812 492.657226562 c 4,59,60
 561 463 561 463 554.5234375 435.047851562 c 132,-1,61
 548 407 548 407 533.780273438 379.970703125 c 4,62,63
 517 350 517 350 492.096679688 327.907226562 c 132,-1,64
 467 306 467 306 440.990234375 294.4296875 c 4,65,66
 416 283 416 283 386.477539062 275.259765625 c 4,67,68
 372 271 372 271 356.713867188 268.912109375 c 4,69,70
 342 267 342 267 327.083007812 265.7890625 c 4,71,72
 300 264 300 264 271.94921875 263.47265625 c 4,73,74
 257 263 257 263 241.259765625 263.005859375 c 5,30,-1
494.232421875 42.2734375 m 5,75,-1
 464 22.119140625 l 5,76,-1
 445.279296875 9.6376953125 l 5,77,-1
 432.798828125 28.359375 l 5,78,-1
 261.6796875 290.0390625 l 5,79,-1
 249.198242188 308.759765625 l 5,80,-1
 267.918945312 321.240234375 l 5,81,-1
 298.084960938 341.3515625 l 5,82,-1
 328.254882812 362.37890625 l 5,83,-1
 347.083984375 375.501953125 l 5,84,-1
 359.831054688 356.416015625 l 5,85,-1
 531.87109375 93.81640625 l 5,86,-1
 544.549804688 74.83203125 l 5,87,-1
 525.383789062 62.4296875 l 5,88,-1
 494.232421875 42.2734375 l 5,75,-1
71.1396484375 61.080078125 m 5,89,-1
 71.1396484375 97.8798828125 l 5,90,-1
 71.1396484375 120.379882812 l 5,91,-1
 93.6396484375 120.379882812 l 5,92,-1
 268.440429688 120.379882812 l 5,93,-1
 290.940429688 120.379882812 l 5,94,-1
 290.940429688 97.8798828125 l 5,95,-1
 290.940429688 61.080078125 l 5,96,-1
 290.940429688 24.2802734375 l 5,97,-1
 290.940429688 1.7802734375 l 5,98,-1
 268.440429688 1.7802734375 l 5,99,-1
 93.6396484375 1.7802734375 l 5,100,-1
 71.1396484375 1.7802734375 l 5,101,-1
 71.1396484375 24.2802734375 l 5,102,-1
 71.1396484375 61.080078125 l 5,89,-1
371.059570312 61.080078125 m 5,103,-1
 371.059570312 97.8798828125 l 5,104,-1
 371.059570312 120.379882812 l 5,105,-1
 393.559570312 120.379882812 l 5,106,-1
 568.360351562 120.379882812 l 5,107,-1
 590.860351562 120.379882812 l 5,108,-1
 590.860351562 97.8798828125 l 5,109,-1
 590.860351562 61.080078125 l 5,110,-1
 590.860351562 24.2802734375 l 5,111,-1
 590.860351562 1.7802734375 l 5,112,-1
 568.360351562 1.7802734375 l 5,113,-1
 393.559570312 1.7802734375 l 5,114,-1
 371.059570312 1.7802734375 l 5,115,-1
 371.059570312 24.2802734375 l 5,116,-1
 371.059570312 61.080078125 l 5,103,-1
71.1396484375 665.919921875 m 5,117,-1
 71.1396484375 702.719726562 l 5,118,-1
 71.1396484375 725.219726562 l 5,119,-1
 93.6396484375 725.219726562 l 5,120,-1
 181.959960938 725.219726562 l 5,121,-1
 204.459960938 725.219726562 l 5,122,-1
 204.459960938 702.719726562 l 5,123,-1
 204.459960938 665.919921875 l 5,124,-1
 204.459960938 629.120117188 l 5,125,-1
 204.459960938 606.620117188 l 5,126,-1
 181.959960938 606.620117188 l 5,127,-1
 93.6396484375 606.620117188 l 5,128,-1
 71.1396484375 606.620117188 l 5,129,-1
 71.1396484375 629.120117188 l 5,130,-1
 71.1396484375 665.919921875 l 5,117,-1
EndSplineSet
EndChar

StartChar: S
Encoding: 83 83 54
Width: 659
VWidth: 949
Flags: W
LayerCount: 2
Fore
SplineSet
487.584960938 731.206054688 m 1,0,-1
 510.584960938 731.206054688 l 1,1,-1
 547.384765625 731.206054688 l 1,2,-1
 569.884765625 731.206054688 l 1,3,-1
 569.884765625 680.706054688 l 1,4,-1
 569.884765625 548.2265625 l 2,5,6
 570 523 570 523 550.686523438 505.013671875 c 0,7,8
 532 487 532 487 506.09765625 488.989257812 c 0,9,10
 496 490 496 490 487.260742188 493.624023438 c 0,11,12
 479 497 479 497 471.38671875 503.540039062 c 0,13,14
 464 510 464 510 459.00390625 518.391601562 c 0,15,16
 429 571 429 571 378.25 588.553710938 c 0,17,18
 314 610 314 610 283.090820312 598.046875 c 0,19,20
 262 590 262 590 247.46484375 574.98828125 c 128,-1,21
 233 560 233 560 223.301757812 536.254882812 c 0,22,23
 217 521 217 521 224.638671875 509.625976562 c 0,24,25
 229 502 229 502 238.884765625 494.116210938 c 0,26,27
 248 486 248 486 262.78125 478.310546875 c 0,28,29
 271 474 271 474 279.193359375 469.671875 c 0,30,31
 288 465 288 465 296.249023438 461.186523438 c 0,32,33
 305 457 305 457 313.961914062 452.848632812 c 0,34,35
 323 449 323 449 332.318359375 444.66796875 c 0,36,37
 342 440 342 440 352.64453125 435.619140625 c 0,38,39
 363 431 363 431 374.645507812 425.377929688 c 0,40,41
 386 420 386 420 398.301757812 413.956054688 c 0,42,43
 411 408 411 408 423.659179688 401.334960938 c 0,44,45
 477 374 477 374 517.954101562 345.869140625 c 0,46,47
 559 317 559 317 580.891601562 280.662109375 c 0,48,49
 607 237 607 237 600.170898438 189.436523438 c 0,50,51
 599 181 599 181 597.806640625 172.0078125 c 0,52,53
 596 163 596 163 593.587890625 154.571289062 c 128,-1,54
 591 146 591 146 587.599609375 137.213867188 c 0,55,56
 584 129 584 129 579.880859375 119.905273438 c 0,57,58
 576 111 576 111 570.51953125 102.7421875 c 0,59,60
 565 94 565 94 559.556640625 85.7021484375 c 0,61,62
 557 82 557 82 550.634765625 76.16015625 c 0,63,64
 528 53 528 53 499.504882812 35.103515625 c 0,65,66
 477 21 477 21 452.040039062 10.5283203125 c 0,67,68
 428 0 428 0 401.68359375 -5.3701171875 c 0,69,70
 376 -11 376 -11 348.840820312 -12.447265625 c 0,71,72
 267 -16 267 -16 193.958984375 21.2861328125 c 0,73,74
 121 58 121 58 74.5322265625 130.928710938 c 0,75,76
 70 138 70 138 68.0205078125 146.2109375 c 0,77,78
 66 162 66 162 65.8046875 162.74609375 c 2,79,-1
 65.8046875 240.946289062 l 1,80,-1
 65.8046875 263.446289062 l 1,81,-1
 88.3046875 263.446289062 l 1,82,-1
 125.10546875 263.446289062 l 1,83,-1
 161.905273438 263.446289062 l 1,84,-1
 184.405273438 263.446289062 l 1,85,-1
 184.405273438 240.946289062 l 1,86,-1
 184.405273438 181.006835938 l 1,87,88
 228 122 228 122 302.819335938 109.017578125 c 0,89,90
 340 103 340 103 374.931640625 110.459960938 c 128,-1,91
 410 118 410 118 443.82421875 140.98828125 c 0,92,93
 460 152 460 152 464.256835938 157.178710938 c 0,94,95
 470 165 470 165 474.547851562 172.73828125 c 0,96,97
 479 180 479 180 481.270507812 187.450195312 c 0,98,99
 484 194 484 194 484.58984375 201.044921875 c 0,100,101
 486 215 486 215 480.298828125 222.83203125 c 0,102,103
 469 239 469 239 449.494140625 250.07421875 c 0,104,105
 443 254 443 254 434.262695312 258.561523438 c 0,106,107
 426 263 426 263 414.369140625 268.501953125 c 0,108,109
 403 274 403 274 391.581054688 279.053710938 c 128,-1,110
 380 284 380 284 368.099609375 289.165039062 c 0,111,112
 343 299 343 299 313.619140625 312.912109375 c 0,113,114
 284 326 284 326 257.041992188 340.033203125 c 128,-1,115
 230 354 230 354 202.243164062 371.477539062 c 0,116,117
 173 390 173 390 153.815429688 409.49609375 c 0,118,119
 147 416 147 416 141.030273438 423.419921875 c 128,-1,120
 135 431 135 431 129.318359375 438.5234375 c 0,121,122
 124 446 124 446 118.69140625 454.770507812 c 0,123,124
 102 483 102 483 101.685546875 514.186523438 c 0,125,126
 102 547 102 547 112.124023438 577.669921875 c 0,127,128
 129 625 129 625 163.134765625 659.015625 c 0,129,130
 180 676 180 676 199.461914062 688.0859375 c 0,131,132
 223.266435367 702.601615009 223.266435367 702.601615009 239.83203125 707.852539062 c 0,133,134
 275 719 275 719 326.654296875 723.408203125 c 0,135,136
 330.736784752 723.69769384 330.736784752 723.69769384 416.771484375 704.177734375 c 4,137,138
 442.61139743 698.716214496 442.61139743 698.716214496 462.296875 683.541992188 c 0,139,140
 463 683 463 683 464.7421875 682.381835938 c 2,141,-1
 462.33984375 731.206054688 l 1,142,-1
 487.584960938 731.206054688 l 1,0,-1
EndSplineSet
EndChar

StartChar: T
Encoding: 84 84 55
Width: 594
VWidth: 949
Flags: W
LayerCount: 2
Fore
SplineSet
448.059570312 605.926757812 m 1,0,-1
 448.059570312 642.7265625 l 1,1,-1
 448.059570312 665.2265625 l 1,2,-1
 470.559570312 665.2265625 l 1,3,-1
 548.48046875 665.2265625 l 1,4,-1
 570.98046875 665.2265625 l 1,5,-1
 570.98046875 642.7265625 l 1,6,-1
 570.98046875 605.926757812 l 1,7,-1
 570.98046875 569.126953125 l 1,8,-1
 570.98046875 546.626953125 l 1,9,-1
 548.48046875 546.626953125 l 1,10,-1
 470.559570312 546.626953125 l 1,11,-1
 448.059570312 546.626953125 l 1,12,-1
 448.059570312 569.126953125 l 1,13,-1
 448.059570312 605.926757812 l 1,0,-1
19.0595703125 605.926757812 m 1,14,-1
 19.0595703125 642.7265625 l 1,15,-1
 19.0595703125 665.2265625 l 1,16,-1
 41.5595703125 665.2265625 l 1,17,-1
 119.48046875 665.2265625 l 1,18,-1
 141.98046875 665.2265625 l 1,19,-1
 141.98046875 642.7265625 l 1,20,-1
 141.98046875 605.926757812 l 1,21,-1
 141.98046875 569.126953125 l 1,22,-1
 141.98046875 546.626953125 l 1,23,-1
 119.48046875 546.626953125 l 1,24,-1
 41.5595703125 546.626953125 l 1,25,-1
 19.0595703125 546.626953125 l 1,26,-1
 19.0595703125 569.126953125 l 1,27,-1
 19.0595703125 605.926757812 l 1,14,-1
18.4599609375 666.926757812 m 1,28,-1
 18.4599609375 703.7265625 l 1,29,-1
 18.4599609375 726.2265625 l 1,30,-1
 40.9599609375 726.2265625 l 1,31,-1
 548.440429688 726.2265625 l 1,32,-1
 570.940429688 726.2265625 l 1,33,-1
 570.940429688 703.7265625 l 1,34,-1
 570.940429688 666.926757812 l 1,35,-1
 570.940429688 630.126953125 l 1,36,-1
 570.940429688 607.626953125 l 1,37,-1
 548.440429688 607.626953125 l 1,38,-1
 40.9599609375 607.626953125 l 1,39,-1
 18.4599609375 607.626953125 l 1,40,-1
 18.4599609375 630.126953125 l 1,41,-1
 18.4599609375 666.926757812 l 1,28,-1
294.0703125 43.6103515625 m 1,42,-1
 257.26953125 43.6103515625 l 1,43,-1
 234.76953125 43.6103515625 l 1,44,-1
 234.76953125 66.1103515625 l 1,45,-1
 234.76953125 665.950195312 l 1,46,-1
 234.76953125 688.450195312 l 1,47,-1
 257.26953125 688.450195312 l 1,48,-1
 294.0703125 688.450195312 l 1,49,-1
 330.870117188 688.450195312 l 1,50,-1
 353.370117188 688.450195312 l 1,51,-1
 353.370117188 665.950195312 l 1,52,-1
 353.370117188 66.1103515625 l 1,53,-1
 353.370117188 43.6103515625 l 1,54,-1
 330.870117188 43.6103515625 l 1,55,-1
 294.0703125 43.6103515625 l 1,42,-1
183.25 61.1103515625 m 1,56,-1
 183.25 97.91015625 l 1,57,-1
 183.25 120.41015625 l 1,58,-1
 205.75 120.41015625 l 1,59,-1
 383.309570312 120.41015625 l 1,60,-1
 405.809570312 120.41015625 l 1,61,-1
 405.809570312 97.91015625 l 1,62,-1
 405.809570312 61.1103515625 l 1,63,-1
 405.809570312 24.3095703125 l 1,64,-1
 405.809570312 1.8095703125 l 1,65,-1
 383.309570312 1.8095703125 l 1,66,-1
 205.75 1.8095703125 l 1,67,-1
 183.25 1.8095703125 l 1,68,-1
 183.25 24.3095703125 l 1,69,-1
 183.25 61.1103515625 l 1,56,-1
EndSplineSet
EndChar

StartChar: U
Encoding: 85 85 56
Width: 762
VWidth: 948
Flags: W
LayerCount: 2
Fore
SplineSet
696.1796875 59.6796875 m 5,0,-1
 696.1796875 22.8798828125 l 5,1,-1
 696.1796875 0.3798828125 l 5,2,-1
 673.6796875 0.3798828125 l 5,3,-1
 584.440429688 0.3798828125 l 6,4,5
 559 0 559 0 541.3671875 19.931640625 c 4,6,7
 525.139648438 37.9326171875 525.139648438 37.9326171875 525.139648438 59.6796875 c 6,8,-1
 525.139648438 606.219726562 l 5,9,-1
 496.120117188 606.219726562 l 5,10,-1
 473.620117188 606.219726562 l 5,11,-1
 473.620117188 628.719726562 l 5,12,-1
 473.620117188 665.51953125 l 5,13,-1
 473.620117188 702.3203125 l 5,14,-1
 473.620117188 724.8203125 l 5,15,-1
 496.120117188 724.8203125 l 5,16,-1
 602.83984375 724.8203125 l 5,17,-1
 608.360351562 724.8203125 l 5,18,-1
 613.419921875 724.8203125 l 6,19,20
 619 725 619 725 622.09375 723.689453125 c 4,21,22
 625 723 625 723 627.012695312 722.216796875 c 4,23,24
 629 721 629 721 632.90234375 718.338867188 c 4,25,26
 637 715 637 715 639.069335938 710.534179688 c 4,27,28
 640 709 640 709 641.2109375 705.616210938 c 4,29,30
 643.740234375 701.4296875 643.740234375 701.4296875 643.740234375 691.740234375 c 6,31,-1
 643.740234375 683.919921875 l 5,32,-1
 643.740234375 118.98046875 l 5,33,-1
 673.6796875 118.98046875 l 5,34,-1
 696.1796875 118.98046875 l 5,35,-1
 696.1796875 96.48046875 l 5,36,-1
 696.1796875 59.6796875 l 5,0,-1
603.905273438 156.526367188 m 5,37,-1
 622.233398438 125.3671875 l 5,38,-1
 633.682617188 105.903320312 l 5,39,-1
 614.176757812 94.525390625 l 6,40,41
 559 63 559 63 497.834960938 38.25 c 4,42,43
 438 15 438 15 382.6015625 3.1767578125 c 4,44,45
 326 -9 326 -9 276.240234375 -8.8203125 c 4,46,47
 201 -9 201 -9 149.98828125 31.955078125 c 4,48,49
 96.419921875 74.6650390625 96.419921875 74.6650390625 96.419921875 154.440429688 c 6,50,-1
 96.419921875 606.219726562 l 5,51,-1
 68.3203125 606.219726562 l 5,52,-1
 45.8203125 606.219726562 l 5,53,-1
 45.8203125 628.719726562 l 5,54,-1
 45.8203125 665.51953125 l 5,55,-1
 45.8203125 702.3203125 l 5,56,-1
 45.8203125 724.8203125 l 5,57,-1
 68.3203125 724.8203125 l 5,58,-1
 174.120117188 724.8203125 l 5,59,-1
 180.559570312 724.8203125 l 5,60,-1
 185.16015625 724.8203125 l 6,61,62
 190 725 190 725 193.376953125 723.688476562 c 4,63,64
 205 721 205 721 210.348632812 710.534179688 c 4,65,66
 211 709 211 709 211.375 708.338867188 c 4,67,68
 212 707 212 707 212.490234375 705.616210938 c 4,69,70
 215.01953125 698.948242188 215.01953125 698.948242188 215.01953125 691.740234375 c 6,71,-1
 215.01953125 683.919921875 l 5,72,-1
 215.01953125 154.440429688 l 6,73,74
 215 128 215 128 225.487304688 119.98828125 c 4,75,76
 238 110 238 110 276.240234375 109.780273438 c 4,77,78
 331 110 331 110 406.051757812 131.866210938 c 4,79,80
 481.920898438 154.272460938 481.920898438 154.272460938 554.673828125 196.858398438 c 6,81,-1
 574.294921875 208.34375 l 5,82,-1
 585.575195312 188.603515625 l 5,83,-1
 603.905273438 156.526367188 l 5,37,-1
EndSplineSet
EndChar

StartChar: V
Encoding: 86 86 57
Width: 709
VWidth: 949
Flags: W
LayerCount: 2
Fore
SplineSet
606.59375 685.50390625 m 5,0,-1
 639.818359375 670.737304688 l 5,1,-1
 659.779296875 661.865234375 l 5,2,-1
 651.500976562 641.650390625 l 5,3,-1
 405.760742188 41.5625 l 6,4,5
 400.671875 29.93359375 400.671875 29.93359375 391.751953125 21.57421875 c 132,-1,6
 382.831054688 13.2138671875 382.831054688 13.2138671875 371.108398438 8.951171875 c 4,7,8
 346.501953125 0.00390625 346.501953125 0.00390625 323.8125 12.10546875 c 4,9,10
 305.200195312 22.126953125 305.200195312 22.126953125 296.325195312 41.3544921875 c 6,11,-1
 50.4990234375 641.650390625 l 5,12,-1
 42.13671875 662.0703125 l 5,13,-1
 62.3896484375 670.828125 l 5,14,-1
 96.326171875 685.50390625 l 5,15,-1
 129.342773438 700.177734375 l 5,16,-1
 150.557617188 709.607421875 l 5,17,-1
 159.317382812 688.106445312 l 5,18,-1
 351 217.612304688 l 5,19,-1
 542.682617188 688.106445312 l 5,20,-1
 551.354492188 709.391601562 l 5,21,-1
 572.450195312 700.268554688 l 5,22,-1
 606.59375 685.50390625 l 5,0,-1
2.8203125 664.897460938 m 5,23,-1
 2.8203125 701.697265625 l 5,24,-1
 2.8203125 724.197265625 l 5,25,-1
 25.3203125 724.197265625 l 5,26,-1
 202.879882812 724.197265625 l 5,27,-1
 225.379882812 724.197265625 l 5,28,-1
 225.379882812 701.697265625 l 5,29,-1
 225.379882812 664.897460938 l 5,30,-1
 225.379882812 628.096679688 l 5,31,-1
 225.379882812 605.596679688 l 5,32,-1
 202.879882812 605.596679688 l 5,33,-1
 25.3203125 605.596679688 l 5,34,-1
 2.8203125 605.596679688 l 5,35,-1
 2.8203125 628.096679688 l 5,36,-1
 2.8203125 664.897460938 l 5,23,-1
476.620117188 664.897460938 m 5,37,-1
 476.620117188 701.697265625 l 5,38,-1
 476.620117188 724.197265625 l 5,39,-1
 499.120117188 724.197265625 l 5,40,-1
 676.6796875 724.197265625 l 5,41,-1
 699.1796875 724.197265625 l 5,42,-1
 699.1796875 701.697265625 l 5,43,-1
 699.1796875 664.897460938 l 5,44,-1
 699.1796875 628.096679688 l 5,45,-1
 699.1796875 605.596679688 l 5,46,-1
 676.6796875 605.596679688 l 5,47,-1
 499.120117188 605.596679688 l 5,48,-1
 476.620117188 605.596679688 l 5,49,-1
 476.620117188 628.096679688 l 5,50,-1
 476.620117188 664.897460938 l 5,37,-1
EndSplineSet
EndChar

StartChar: W
Encoding: 87 87 58
Width: 981
VWidth: 949
Flags: W
LayerCount: 2
Fore
SplineSet
105.137695312 681.571289062 m 5,0,-1
 140.0234375 691.669921875 l 5,1,-1
 162.272460938 698.110351562 l 5,2,-1
 168.065429688 675.684570312 l 5,3,-1
 280.088867188 241.9921875 l 5,4,-1
 428.265625 597.930664062 l 6,5,6
 438.651367188 621.66796875 438.651367188 621.66796875 462.889648438 630.482421875 c 4,7,8
 487.497070312 639.430664062 487.497070312 639.430664062 510.1875 627.329101562 c 4,9,10
 519.399414062 622.369140625 519.399414062 622.369140625 526.279296875 615.1171875 c 132,-1,11
 533.158203125 607.865234375 533.158203125 607.865234375 537.647460938 598.137695312 c 6,12,-1
 685.911132812 241.9921875 l 5,13,-1
 797.934570312 675.684570312 l 5,14,-1
 803.727539062 698.110351562 l 5,15,-1
 825.9765625 691.669921875 l 5,16,-1
 860.862304688 681.571289062 l 5,17,-1
 896.66796875 671.47265625 l 5,18,-1
 917.958007812 665.467773438 l 5,19,-1
 912.315429688 644.078125 l 5,20,-1
 754.11328125 44.37890625 l 6,21,22
 747.95703125 19.759765625 747.95703125 19.759765625 723.609375 7.5869140625 c 4,23,24
 708.161132812 0.5634765625 708.161132812 0.5634765625 693.069335938 1.2822265625 c 4,25,26
 676.612304688 2.06640625 676.612304688 2.06640625 662.39453125 12.54296875 c 4,27,28
 648.490234375 22.7861328125 648.490234375 22.7861328125 642.490234375 37.7890625 c 6,29,-1
 483 420.239257812 l 5,30,-1
 323.37109375 37.45703125 l 6,31,32
 318.369140625 26.0224609375 318.369140625 26.0224609375 309.627929688 17.65625 c 132,-1,33
 300.887695312 9.2900390625 300.887695312 9.2900390625 289.420898438 4.990234375 c 4,34,35
 265.513671875 -3.9755859375 265.513671875 -3.9755859375 242.018554688 7.7724609375 c 4,36,37
 218.04296875 19.759765625 218.04296875 19.759765625 211.88671875 44.37890625 c 6,38,-1
 53.6845703125 644.078125 l 5,39,-1
 48.0419921875 665.467773438 l 5,40,-1
 69.33203125 671.47265625 l 5,41,-1
 105.137695312 681.571289062 l 5,0,-1
4.1796875 659.9375 m 5,42,-1
 4.1796875 696.737304688 l 5,43,-1
 4.1796875 719.237304688 l 5,44,-1
 26.6796875 719.237304688 l 5,45,-1
 204.240234375 719.237304688 l 5,46,-1
 226.740234375 719.237304688 l 5,47,-1
 226.740234375 696.737304688 l 5,48,-1
 226.740234375 659.9375 l 5,49,-1
 226.740234375 623.13671875 l 5,50,-1
 226.740234375 600.63671875 l 5,51,-1
 204.240234375 600.63671875 l 5,52,-1
 26.6796875 600.63671875 l 5,53,-1
 4.1796875 600.63671875 l 5,54,-1
 4.1796875 623.13671875 l 5,55,-1
 4.1796875 659.9375 l 5,42,-1
739.259765625 659.9375 m 5,56,-1
 739.259765625 696.737304688 l 5,57,-1
 739.259765625 719.237304688 l 5,58,-1
 761.759765625 719.237304688 l 5,59,-1
 939.3203125 719.237304688 l 5,60,-1
 961.8203125 719.237304688 l 5,61,-1
 961.8203125 696.737304688 l 5,62,-1
 961.8203125 659.9375 l 5,63,-1
 961.8203125 623.13671875 l 5,64,-1
 961.8203125 600.63671875 l 5,65,-1
 939.3203125 600.63671875 l 5,66,-1
 761.759765625 600.63671875 l 5,67,-1
 739.259765625 600.63671875 l 5,68,-1
 739.259765625 623.13671875 l 5,69,-1
 739.259765625 659.9375 l 5,56,-1
EndSplineSet
EndChar

